<?xml version="1.0" encoding="UTF-8"?>
<svg version="1.1" xmlns="http://www.w3.org/2000/svg" width="512" height="512">
<path d="M0 0 C-5.28989362 6.2393617 -5.28989362 6.2393617 -8.0859375 9.234375 C-22.04800651 24.22522804 -32.09325401 41.43390392 -38 61 C-38.4021875 62.32064453 -38.4021875 62.32064453 -38.8125 63.66796875 C-43.54371579 82.75711025 -38.78068008 102.69756041 -29.046875 119.33496094 C-23.38479486 128.3404149 -14.06807841 133.32890425 -4.0625 136.375 C8.0780714 138.78304722 20.38537652 136.81907552 30.875 130.1875 C32.27399359 129.15679723 33.65063283 128.09486963 35 127 C35.62519531 126.49855469 36.25039063 125.99710937 36.89453125 125.48046875 C44.69887156 118.4922686 48.99801777 108.3080638 50 98 C50.11113378 95.91610871 50.19705313 93.83199346 50.28076172 91.74682617 C51.0103947 73.86703769 54.36443658 56.76580526 68 44 C77.76642681 35.8738804 89.81844814 32.79235016 102.3125 32.9375 C103.42334961 32.94426758 103.42334961 32.94426758 104.55664062 32.95117188 C106.37112899 32.96287825 108.18557534 32.98081102 110 33 C109.70833333 34.45833333 109.41666667 35.91666667 109.125 37.375 C108.94324219 38.30054688 108.76148438 39.22609375 108.57421875 40.1796875 C108.22843399 41.87803171 107.86228225 43.57266806 107.45703125 45.2578125 C97.76022546 87.10718484 113.19141959 141.50605658 135.32958984 177.14013672 C137.95902588 180.99932768 140.89570811 184.50897815 144 188 C144.96292969 189.19882812 144.96292969 189.19882812 145.9453125 190.421875 C156.90765275 203.7234594 172.73579214 213.91223533 190 216 C201.57498354 216.3059467 210.8265075 213.21717564 221 208 C221.66 208 222.32 208 223 208 C233.94277976 276.83438536 234.02693365 354.20934905 200 417 C199.64824707 417.66725098 199.29649414 418.33450195 198.93408203 419.02197266 C192.10001958 431.98058365 183.98850897 443.02714162 174.0078125 453.78125 C171.97160729 455.96306772 171.97160729 455.96306772 170.2421875 458.34375 C140.98700259 493.00146035 89.7632625 507.87420457 46.4758606 511.82278442 C38.82266195 512.37058021 31.14194163 512.33201617 23.47314453 512.31567383 C20.3996997 512.3125253 17.32723232 512.33603225 14.25390625 512.36132812 C-3.70566775 512.41952924 -21.64966917 510.94372702 -39.0625 506.3125 C-40.04452393 506.05686279 -41.02654785 505.80122559 -42.03833008 505.5378418 C-78.76219982 495.66773181 -114.7530176 475.95826305 -139 446 C-139.81855469 445.01902344 -140.63710937 444.03804688 -141.48046875 443.02734375 C-166.45258513 412.62378087 -182.0175786 373.91596613 -182.203125 334.38671875 C-182.21364647 332.88768509 -182.21364647 332.88768509 -182.22438049 331.35836792 C-182.24184834 328.13469924 -182.24823669 324.91121433 -182.25 321.6875 C-182.25067474 320.58630829 -182.25134949 319.48511658 -182.25204468 318.35055542 C-182.23551562 301.37923226 -181.70773393 284.78741734 -179 268 C-178.83371094 266.92959473 -178.66742188 265.85918945 -178.49609375 264.75634766 C-173.25622965 231.97323498 -163.18695865 198.40365526 -141 173 C-140.43023437 172.3090625 -139.86046875 171.618125 -139.2734375 170.90625 C-136.45918941 167.50028821 -133.65900688 164.540977 -130 162 C-129.34 162 -128.68 162 -128 162 C-127.93006836 162.59312988 -127.86013672 163.18625977 -127.78808594 163.79736328 C-125.20731626 190.50511883 -125.20731626 190.50511883 -112 213 C-105.33298458 217.49461714 -98.9994631 219.42237964 -91 218 C-85.21016389 216.00490879 -80.10281655 213.46095713 -77 208 C-72.26950072 197.60942735 -73.41831447 187.60989864 -77 177 C-79.74864116 170.48375103 -83.24652021 164.56496853 -87.0625 158.625 C-91.17793298 152.06234014 -93.77725944 145.40009967 -96 138 C-96.23460937 137.22269531 -96.46921875 136.44539062 -96.7109375 135.64453125 C-104.06756924 107.23087389 -94.6723947 77.77768915 -81 53 C-66.37390421 28.28655894 -42.72757276 9.44567344 -15.25 1.125 C-10.13557112 -0.1745057 -5.24917749 -0.30743556 0 0 Z " fill="#FE9E41" transform="translate(241,0)"/>
<path d="M0 0 C1.27149902 0.01087646 2.54299805 0.02175293 3.85302734 0.03295898 C30.76639217 0.48891357 55.87094048 10.28510547 76.625 27.375 C77.54925781 28.13425781 78.47351563 28.89351562 79.42578125 29.67578125 C100.35973573 47.76721857 115.71804876 75.70411509 118.625 103.375 C119.85560756 133.29806737 119.85560756 133.29806737 115.625 147.375 C115.39925293 148.16245605 115.17350586 148.94991211 114.94091797 149.76123047 C105.7129068 181.56246817 86.38114967 206.6220974 57.50073242 222.9675293 C27.91155772 239.07896576 -4.38990034 241.08682977 -36.57421875 231.90234375 C-66.8567809 222.65153495 -89.73693755 200.37304186 -105.09765625 173.34375 C-119.70265429 145.5531655 -122.4450146 113.54909939 -113.47558594 83.58129883 C-103.42637643 52.15892199 -81.31137546 27.46789212 -52.40258789 12.10473633 C-44.62565341 8.10717663 -36.88826781 5.43599235 -28.375 3.375 C-27.30958984 3.10840576 -26.24417969 2.84181152 -25.14648438 2.56713867 C-16.66792672 0.57974169 -8.69453039 -0.10188448 0 0 Z " fill="#FEF3F5" transform="translate(262.375,222.625)"/>
<path d="M0 0 C2.19859476 0.00313878 4.39581089 -0.0202973 6.59423828 -0.0456543 C16.59700626 -0.08939716 25.83096699 1.13008035 35.59814453 3.31567383 C36.56034912 3.52820801 37.52255371 3.74074219 38.51391602 3.9597168 C73.49211116 12.10336939 104.59657037 36.19487076 123.59814453 66.31567383 C142.60294953 98.42222373 149.74871676 137.61898397 141.01416016 174.27905273 C137.66877157 186.75589367 132.51152402 198.84673081 126.59814453 210.31567383 C138.58220782 192.3167955 148.65480188 173.50067747 158.59814453 154.31567383 C158.92814453 154.31567383 159.25814453 154.31567383 159.59814453 154.31567383 C160.25814453 160.91567383 160.91814453 167.51567383 161.59814453 174.31567383 C165.71678902 170.3459701 165.71678902 170.3459701 168.84423828 166.00317383 C169.20356445 165.40956055 169.56289063 164.81594727 169.93310547 164.2043457 C170.4788623 163.26945312 170.4788623 163.26945312 171.03564453 162.31567383 C171.42397461 161.65631836 171.81230469 160.99696289 172.21240234 160.31762695 C179.8350156 147.16909274 185.66404059 133.19268642 188.12939453 118.15161133 C188.25678513 117.3787529 188.38417572 116.60589447 188.51542664 115.80961609 C189.86282192 107.22927491 190.52670592 98.6069667 191.19067383 89.95202637 C192.44099585 73.90113885 194.12455753 57.97528651 196.59814453 42.06567383 C196.77756088 40.89254135 196.77756088 40.89254135 196.96060181 39.69570923 C198.64856838 28.76427483 200.92936099 18.04838329 203.59814453 7.31567383 C203.92814453 7.31567383 204.25814453 7.31567383 204.59814453 7.31567383 C215.54092429 76.15005919 215.62507818 153.52502288 181.59814453 216.31567383 C181.2463916 216.9829248 180.89463867 217.65017578 180.53222656 218.33764648 C173.69816411 231.29625748 165.5866535 242.34281545 155.60595703 253.09692383 C153.56975182 255.27874155 153.56975182 255.27874155 151.84033203 257.65942383 C122.58514712 292.31713418 71.36140703 307.1898784 28.07400513 311.13845825 C20.42080648 311.68625404 12.74008616 311.64769 5.07128906 311.63134766 C1.99784424 311.62819913 -1.07462315 311.65170608 -4.14794922 311.67700195 C-22.10752322 311.73520307 -40.05152463 310.25940084 -57.46435547 305.62817383 C-58.44637939 305.37253662 -59.42840332 305.11689941 -60.44018555 304.85351562 C-96.18054445 295.24773944 -138.46928695 274.63061863 -159.33935547 242.31567383 C-159.68998047 241.65567383 -160.04060547 240.99567383 -160.40185547 240.31567383 C-156.72009696 241.95005827 -153.78499224 244.25552768 -150.58935547 246.69067383 C-144.22025512 251.38268003 -137.47012264 255.15744618 -130.46435547 258.81567383 C-128.99035278 259.58983643 -128.99035278 259.58983643 -127.48657227 260.37963867 C-122.51913892 262.92627984 -117.84379542 265.0441218 -112.40185547 266.31567383 C-113.35060547 265.47004883 -114.29935547 264.62442383 -115.27685547 263.75317383 C-130.98548702 247.94933845 -139.27632542 225.80302578 -144.71435547 204.69067383 C-144.88612305 204.02745117 -145.05789062 203.36422852 -145.23486328 202.6809082 C-146.1009062 199.15526375 -146.58963804 195.94613681 -146.40185547 192.31567383 C-142.68241356 195.93422671 -139.29776282 199.71735619 -135.96435547 203.69067383 C-131.35863361 209.12067776 -126.62751776 214.41580348 -121.77685547 219.62817383 C-120.87108765 220.60633057 -120.87108765 220.60633057 -119.94702148 221.60424805 C-119.38297607 222.20640137 -118.81893066 222.80855469 -118.23779297 223.42895508 C-117.73812012 223.96302979 -117.23844727 224.49710449 -116.72363281 225.04736328 C-115.40602715 226.43716343 -115.40602715 226.43716343 -113.40185547 227.31567383 C-113.40185547 227.97567383 -113.40185547 228.63567383 -113.40185547 229.31567383 C-112.85142578 229.54383789 -112.30099609 229.77200195 -111.73388672 230.00708008 C-108.72520908 231.69536653 -106.57355194 233.85831222 -104.08935547 236.25317383 C-97.35126337 242.62394781 -89.96501439 247.97393454 -82.40185547 253.31567383 C-85.82657666 249.82868498 -89.3630293 246.55485168 -93.02685547 243.31567383 C-118.68699438 219.97419825 -135.71723519 185.10504146 -137.40185547 150.31567383 C-139.20028047 110.76737045 -126.75544176 74.11749302 -99.98095703 44.75756836 C-79.47059172 22.66080263 -53.60105517 9.07218272 -24.40185547 2.31567383 C-23.30381592 2.03203979 -23.30381592 2.03203979 -22.18359375 1.74267578 C-14.83922036 0.00817986 -7.50229174 -0.02229385 0 0 Z M-78.40185547 54.31567383 C-79.21267578 55.04399414 -80.02349609 55.77231445 -80.85888672 56.52270508 C-103.0236387 77.44529933 -114.72509379 108.19874342 -115.85546875 138.24291992 C-116.34387547 167.30569056 -105.82694442 197.98453071 -85.50732422 219.10473633 C-83.40185547 221.31567383 -83.40185547 221.31567383 -81.04638672 224.25317383 C-78.33730128 227.53392968 -75.26457754 230.10251662 -71.90185547 232.69067383 C-70.98218994 233.40175293 -70.98218994 233.40175293 -70.04394531 234.12719727 C-44.90084587 253.26722825 -14.31203836 262.3827038 17.27685547 259.03149414 C49.30165993 254.64147133 78.92789285 238.1338183 98.58227539 212.30297852 C106.60123495 201.29759448 112.10117864 189.42405892 116.47314453 176.56567383 C116.90276489 175.30775024 116.90276489 175.30775024 117.34106445 174.02441406 C120.98618204 162.77333383 121.96419842 151.78968717 121.91064453 140.00317383 C121.90572998 138.72297363 121.90081543 137.44277344 121.89575195 136.1237793 C121.78417314 127.13453231 121.1639055 118.97250963 118.59814453 110.31567383 C118.28103516 109.14262695 117.96392578 107.96958008 117.63720703 106.76098633 C113.00834986 91.23297611 105.00863502 76.70397771 94.59814453 64.31567383 C93.84146484 63.39657227 93.08478516 62.4774707 92.30517578 61.53051758 C73.6102965 39.8468974 45.87923712 25.85758969 17.59814453 22.31567383 C-19.02364408 19.68947429 -51.29745983 29.52727461 -78.40185547 54.31567383 Z " fill="#FE8641" transform="translate(259.40185546875,200.684326171875)"/>
<path d="M0 0 C2.19859476 0.00313878 4.39581089 -0.0202973 6.59423828 -0.0456543 C16.59700626 -0.08939716 25.83096699 1.13008035 35.59814453 3.31567383 C36.56034912 3.52820801 37.52255371 3.74074219 38.51391602 3.9597168 C73.49211116 12.10336939 104.59657037 36.19487076 123.59814453 66.31567383 C142.5710328 98.36830389 149.83578254 137.69421934 141.00097656 174.29882812 C133.25747769 202.93521265 117.02599319 230.68075657 93.59814453 249.31567383 C93.10137207 249.71367187 92.60459961 250.11166992 92.09277344 250.52172852 C62.42520423 274.02924738 26.32023712 284.39253474 -11.40185547 281.31567383 C-36.954378 278.17968243 -62.26477197 268.50777313 -82.40185547 252.31567383 C-83.1665918 251.70900879 -83.1665918 251.70900879 -83.94677734 251.09008789 C-113.37999318 227.61064981 -132.47132728 194.19036122 -137.02685547 156.56567383 C-139.96909078 117.03979566 -129.76118938 79.56970739 -103.89404297 49.09301758 C-82.20936362 24.92717586 -56.0512726 9.63914743 -24.40185547 2.31567383 C-23.30381592 2.03203979 -23.30381592 2.03203979 -22.18359375 1.74267578 C-14.83922036 0.00817986 -7.50229174 -0.02229385 0 0 Z M-78.40185547 54.31567383 C-79.21267578 55.04399414 -80.02349609 55.77231445 -80.85888672 56.52270508 C-103.0236387 77.44529933 -114.72509379 108.19874342 -115.85546875 138.24291992 C-116.34387547 167.30569056 -105.82694442 197.98453071 -85.50732422 219.10473633 C-83.40185547 221.31567383 -83.40185547 221.31567383 -81.04638672 224.25317383 C-78.33730128 227.53392968 -75.26457754 230.10251662 -71.90185547 232.69067383 C-70.98218994 233.40175293 -70.98218994 233.40175293 -70.04394531 234.12719727 C-44.90084587 253.26722825 -14.31203836 262.3827038 17.27685547 259.03149414 C49.30165993 254.64147133 78.92789285 238.1338183 98.58227539 212.30297852 C106.60123495 201.29759448 112.10117864 189.42405892 116.47314453 176.56567383 C116.90276489 175.30775024 116.90276489 175.30775024 117.34106445 174.02441406 C120.98618204 162.77333383 121.96419842 151.78968717 121.91064453 140.00317383 C121.90572998 138.72297363 121.90081543 137.44277344 121.89575195 136.1237793 C121.78417314 127.13453231 121.1639055 118.97250963 118.59814453 110.31567383 C118.28103516 109.14262695 117.96392578 107.96958008 117.63720703 106.76098633 C113.00834986 91.23297611 105.00863502 76.70397771 94.59814453 64.31567383 C93.84146484 63.39657227 93.08478516 62.4774707 92.30517578 61.53051758 C73.6102965 39.8468974 45.87923712 25.85758969 17.59814453 22.31567383 C-19.02364408 19.68947429 -51.29745983 29.52727461 -78.40185547 54.31567383 Z " fill="#E05453" transform="translate(259.40185546875,200.684326171875)"/>
<path d="M0 0 C-2.56953384 1.71302256 -5.07522631 3.08827264 -7.8125 4.5 C-41.26779237 22.72433032 -66.63038497 53.4880057 -78.18359375 89.7109375 C-84.81789155 112.8945276 -85.12188013 138.97601261 -80.9375 162.6875 C-80.76089844 163.70199219 -80.58429688 164.71648437 -80.40234375 165.76171875 C-80.26957031 166.50035156 -80.13679688 167.23898438 -80 168 C-93.3667252 155.73476441 -97.88709153 135.57320918 -98.90966797 118.17431641 C-99.71123665 98.88034171 -94.58228051 80.14590389 -86 63 C-85.443125 61.86046875 -84.88625 60.7209375 -84.3125 59.546875 C-70.36955569 32.30649306 -46.88028951 12.00036315 -18.0234375 1.96484375 C-11.93103345 0.11996083 -6.34606739 -0.37167857 0 0 Z " fill="#FFC99D" transform="translate(241,0)"/>
<path d="M0 0 C0.33 0 0.66 0 1 0 C1.03867188 1.30710938 1.03867188 1.30710938 1.078125 2.640625 C1.93906497 20.7203643 8.93760871 33.74980108 21 47 C22.37114451 48.23627783 23.76543545 49.44765019 25.1875 50.625 C31.37954475 55.76649823 36.2612683 62.93441121 37.4375 71 C37.30467938 75.76110854 35.13665073 79.92206478 33.37109375 84.2734375 C27.90024429 99.14292578 25.97741233 115.28423851 25 131 C24.67 131 24.34 131 24 131 C23.75765625 129.99582031 23.5153125 128.99164063 23.265625 127.95703125 C22.21133255 123.62910751 21.11475579 119.31271145 20 115 C19.71125 113.87980469 19.4225 112.75960937 19.125 111.60546875 C14.92265063 96.69088057 6.82657343 82.78648277 -1.6875 69.9375 C-10.36949224 56.21250237 -11.28177632 37.19741372 -8.28125 21.54296875 C-6.35334707 13.99460686 -3.52162132 6.94221253 0 0 Z " fill="#FECA9F" transform="translate(97,211)"/>
<path d="M0 0 C2.89810896 2.81028748 5.62088684 5.68576554 8.25 8.75 C16.33316742 17.99285097 24.93417698 25.08111389 35 32 C46.96093607 40.23411912 54.89292001 50.44892004 58.375 64.8125 C59.89649109 74.29853119 60.0525691 84.84229271 57 94 C53.8514703 90.98545029 51.12209409 87.95719383 48.5144043 84.4465332 C39.39906196 72.21588753 28.5517344 61.18830507 16.375 52 C6.52436152 44.56280237 0.66858555 36.14101363 -2 24 C-2.21349709 21.04405208 -2.18510666 18.08795726 -2.1875 15.125 C-2.19974609 14.33480469 -2.21199219 13.54460937 -2.22460938 12.73046875 C-2.2362095 8.08268452 -1.77874711 4.37304627 0 0 Z " fill="#FF9F40" transform="translate(381,101)"/>
<path d="M0 0 C6.1521927 11.130389 6.22363251 29.97890448 3.125 42.09765625 C-0.7627261 53.0318859 -6.62875253 58.84009598 -16.9375 63.87109375 C-28.6673374 68.19497514 -42.47959678 67.16757863 -53.8828125 62.5390625 C-70.64173026 54.26460937 -80.0923307 38.03154636 -86.13549805 21.05053711 C-87.60718121 16.70114655 -88.48700688 12.56325273 -89 8 C-87.15637648 10.76543527 -85.787424 13.54248744 -84.38769531 16.54736328 C-78.08947895 29.85743189 -70.8039718 36.41079227 -56.91015625 41.8125 C-45.46962534 45.29545233 -32.8366412 43.1326968 -22.4296875 37.64453125 C-20.16196498 36.21086939 -18.08266619 34.68986471 -16 33 C-15.37480469 32.49855469 -14.74960937 31.99710938 -14.10546875 31.48046875 C-4.88144498 23.22104878 -1.98331225 11.76069368 0 0 Z " fill="#FF8740" transform="translate(292,94)"/>
<path d="M0 0 C3.49173663 1.16391221 3.97430576 2.01813262 6.0625 4.9375 C13.54188558 14.78535768 22.31823936 21.93378688 32.39599609 28.88769531 C45.36916101 37.88400267 54.5827297 48.19847171 58.5 63.80078125 C59.1253108 67.80179334 59.28584464 71.70493988 59.3125 75.75 C59.31805908 76.45906494 59.32361816 77.16812988 59.3293457 77.89868164 C59.26500189 82.5968798 58.46659851 86.53593121 57 91 C53.32648004 87.48307769 50.21046614 83.78005684 47.1875 79.6875 C43.16434117 74.34639684 38.87598523 69.58851217 34 65 C33.21625 64.195625 32.4325 63.39125 31.625 62.5625 C26.10942943 57.17825254 20.4547624 52.01770468 14.25 47.4375 C5.79352621 40.93481469 2.30171343 32.90514028 -1 23 C-1.09230479 21.481325 -1.1306756 19.95897605 -1.1328125 18.4375 C-1.13410156 17.55835938 -1.13539063 16.67921875 -1.13671875 15.7734375 C-1.13285156 14.85820312 -1.12898438 13.94296875 -1.125 13 C-1.12886719 12.08476562 -1.13273437 11.16953125 -1.13671875 10.2265625 C-1.13542969 9.34742188 -1.13414062 8.46828125 -1.1328125 7.5625 C-1.13168457 6.75941406 -1.13055664 5.95632812 -1.12939453 5.12890625 C-1 3 -1 3 0 0 Z " fill="#FFCA9F" transform="translate(313,132)"/>
<path d="M0 0 C3 0.25 3 0.25 5 2.25 C5.26501465 4.71018982 5.26501465 4.71018982 5.28710938 7.84545898 C5.30052368 9.01684921 5.31393799 10.18823944 5.32775879 11.39512634 C5.33303589 12.66594559 5.33831299 13.93676483 5.34375 15.24609375 C5.36608898 17.23150154 5.38843867 19.21690927 5.41143036 21.20230961 C5.44922278 24.69730718 5.47419884 28.1923967 5.5 31.6875 C5.53076907 35.85174066 5.56374268 40.01586676 5.61193848 44.1799469 C5.64111756 46.77518745 5.66144665 49.37054499 5.67224121 51.96592712 C5.68565552 53.14046951 5.69906982 54.3150119 5.71289062 55.52514648 C5.72018188 56.5605809 5.72747314 57.59601532 5.73498535 58.66282654 C5.82079893 61.48714337 5.82079893 61.48714337 8 64.25 C8.4809429 67.93722891 8.22917499 69.81074794 6.5 73.125 C3.44901549 75.71833683 1.78441715 75.94066256 -2.12109375 75.66015625 C-5.11503671 75.00659282 -6.13197407 73.66035604 -8 71.25 C-12.01767802 66.34103344 -16.37475067 61.83522451 -20.93359375 57.4296875 C-21.72329308 56.66238312 -21.72329308 56.66238312 -22.52894592 55.87957764 C-24.72147888 53.75014823 -26.91433684 51.62183527 -29.13061523 49.51708984 C-30.76637645 47.96001442 -32.38232067 46.38449884 -33.99609375 44.8046875 C-34.49910507 44.33578094 -35.00211639 43.86687439 -35.52037048 43.38375854 C-38.00085255 40.92321591 -38.96175392 39.5315236 -39.43774414 36.02783203 C-39 33.25 -39 33.25 -37 31.25 C-34.76098633 30.76953125 -34.76098633 30.76953125 -32 31.25 C-29.73121253 33.0828788 -27.8228619 34.84385462 -25.82421875 36.9375 C-25.25419632 37.51459717 -24.68417389 38.09169434 -24.09687805 38.6862793 C-22.28167175 40.52944012 -20.48463026 42.38922688 -18.6875 44.25 C-17.45884077 45.50374052 -16.22903561 46.75635913 -14.99804688 48.0078125 C-11.98525376 51.07568908 -8.98863512 54.15859201 -6 57.25 C-5.99191315 56.56539703 -5.98382629 55.88079407 -5.97549438 55.17544556 C-5.88964993 48.07054594 -5.79015585 40.96593183 -5.68261719 33.86132812 C-5.64425819 31.20740542 -5.60941774 28.55342949 -5.578125 25.89941406 C-5.53262464 22.0916029 -5.47460551 18.28416042 -5.4140625 14.4765625 C-5.40251129 13.28382721 -5.39096008 12.09109192 -5.37905884 10.86221313 C-5.35918915 9.76122284 -5.33931946 8.66023254 -5.31884766 7.52587891 C-5.30552399 6.55325104 -5.29220032 5.58062317 -5.2784729 4.57852173 C-4.8326231 0.85043565 -3.64170577 0.30347548 0 0 Z " fill="#521D6A" transform="translate(263,273.75)"/>
<path d="M0 0 C0.81726563 0.32097656 1.63453125 0.64195312 2.4765625 0.97265625 C3.15625 3.23828125 3.15625 3.23828125 3.4765625 5.97265625 C2.359375 7.89453125 2.359375 7.89453125 0.6015625 9.72265625 C-0.04425781 10.398125 -0.69007813 11.07359375 -1.35546875 11.76953125 C-2.07089844 12.4965625 -2.78632813 13.22359375 -3.5234375 13.97265625 C-4.26980469 14.8028125 -5.01617187 15.63296875 -5.78515625 16.48828125 C-6.54441406 17.308125 -7.30367187 18.12796875 -8.0859375 18.97265625 C-8.78847656 19.73578125 -9.49101562 20.49890625 -10.21484375 21.28515625 C-13.16156895 23.43910767 -14.95267946 23.37330231 -18.5234375 22.97265625 C-19.5234375 21.97265625 -19.5234375 21.97265625 -20.0625 19.4375 C-19.21807205 14.00990874 -15.73045665 11.26986493 -11.8984375 7.53515625 C-11.18558594 6.79072266 -10.47273437 6.04628906 -9.73828125 5.27929688 C-4.39056812 -0.03407315 -4.39056812 -0.03407315 0 0 Z " fill="#E15A5A" transform="translate(203.5234375,397.02734375)"/>
<path d="M0 0 C1.21880859 -0.01224609 2.43761719 -0.02449219 3.69335938 -0.03710938 C5.43649414 -0.04000977 5.43649414 -0.04000977 7.21484375 -0.04296875 C8.28726318 -0.04707764 9.35968262 -0.05118652 10.46459961 -0.05541992 C13.0625 0.1875 13.0625 0.1875 15.0625 2.1875 C14.8125 5.25 14.8125 5.25 14.0625 8.1875 C9.94387709 10.24681145 4.58890955 9.37239262 0.0625 9.375 C-1.05640625 9.38724609 -2.1753125 9.39949219 -3.328125 9.41210938 C-4.92914063 9.41500977 -4.92914063 9.41500977 -6.5625 9.41796875 C-7.54476562 9.42207764 -8.52703125 9.42618652 -9.5390625 9.43041992 C-11.9375 9.1875 -11.9375 9.1875 -13.9375 7.1875 C-14.125 4.125 -14.125 4.125 -13.9375 1.1875 C-11.29209403 -1.45790597 -3.56345815 0.00187847 0 0 Z " fill="#E15959" transform="translate(166.9375,336.8125)"/>
<path d="M0 0 C2.5 -0.3125 2.5 -0.3125 5 0 C7.64699616 2.64699616 7.25749767 3.90394409 7.265625 7.59375 C7.26820313 8.70621094 7.27078125 9.81867188 7.2734375 10.96484375 C7.26570313 12.13144531 7.25796875 13.29804688 7.25 14.5 C7.25773437 15.66660156 7.26546875 16.83320313 7.2734375 18.03515625 C7.27085937 19.14761719 7.26828125 20.26007813 7.265625 21.40625 C7.26336914 22.43041016 7.26111328 23.45457031 7.25878906 24.50976562 C7 27 7 27 5 29 C2.5 29.25 2.5 29.25 0 29 C-2.60269085 26.39730915 -2.25725649 25.28043207 -2.265625 21.66015625 C-2.26820313 20.59732422 -2.27078125 19.53449219 -2.2734375 18.43945312 C-2.26570313 17.32505859 -2.25796875 16.21066406 -2.25 15.0625 C-2.25773437 13.95197266 -2.26546875 12.84144531 -2.2734375 11.69726562 C-2.27085937 10.63314453 -2.26828125 9.56902344 -2.265625 8.47265625 C-2.26336914 7.49562744 -2.26111328 6.51859863 -2.25878906 5.51196289 C-2 3 -2 3 0 0 Z " fill="#E15858" transform="translate(260,231)"/>
<path d="M0 0 C2.375 0.75 2.375 0.75 3.375 1.75 C3.62801239 5.88962283 3.56022549 10.04105996 3.5625 14.1875 C3.57474609 15.35861328 3.58699219 16.52972656 3.59960938 17.73632812 C3.60250977 19.41178711 3.60250977 19.41178711 3.60546875 21.12109375 C3.60957764 22.15161865 3.61368652 23.18214355 3.61791992 24.24389648 C3.375 26.75 3.375 26.75 1.375 28.75 C-1.125 29 -1.125 29 -3.625 28.75 C-6.72011984 25.65488016 -5.91906478 22.41701591 -5.94726562 18.18945312 C-5.94404297 17.07505859 -5.94082031 15.96066406 -5.9375 14.8125 C-5.95361328 13.70197266 -5.96972656 12.59144531 -5.98632812 11.44726562 C-5.98697266 10.38314453 -5.98761719 9.31902344 -5.98828125 8.22265625 C-5.99126221 7.24562744 -5.99424316 6.26859863 -5.99731445 5.26196289 C-5.625 2.75 -5.625 2.75 -4.26635742 0.89233398 C-2.625 -0.25 -2.625 -0.25 0 0 Z " fill="#E15858" transform="translate(263.625,422.25)"/>
<path d="M0 0 C1.11246094 -0.00257813 2.22492188 -0.00515625 3.37109375 -0.0078125 C4.53769531 -0.00007813 5.70429688 0.00765625 6.90625 0.015625 C8.07285156 0.00789063 9.23945313 0.00015625 10.44140625 -0.0078125 C11.55386719 -0.00523437 12.66632813 -0.00265625 13.8125 0 C14.83666016 0.00225586 15.86082031 0.00451172 16.91601562 0.00683594 C19.40625 0.265625 19.40625 0.265625 21.40625 2.265625 C21.07653521 5.56277293 20.7835661 6.8883089 18.40625 9.265625 C16.0078125 9.52441406 16.0078125 9.52441406 13.03125 9.53125 C11.96390625 9.53382813 10.8965625 9.53640625 9.796875 9.5390625 C8.11851562 9.52746094 8.11851562 9.52746094 6.40625 9.515625 C5.28734375 9.52335937 4.1684375 9.53109375 3.015625 9.5390625 C1.94828125 9.53648437 0.8809375 9.53390625 -0.21875 9.53125 C-1.20101563 9.52899414 -2.18328125 9.52673828 -3.1953125 9.52441406 C-5.59375 9.265625 -5.59375 9.265625 -7.59375 7.265625 C-7.84375 4.765625 -7.84375 4.765625 -7.59375 2.265625 C-4.94675384 -0.38137116 -3.68980591 0.00812733 0 0 Z " fill="#E15959" transform="translate(351.59375,336.734375)"/>
<path d="M0 0 C2.37573242 0.82666016 2.37573242 0.82666016 4.37573242 2.82666016 C4.45115018 6.63868503 2.87586789 8.6374411 0.42651367 11.34228516 C-0.80895816 12.59761988 -2.05548707 13.84215005 -3.31176758 15.07666016 C-3.9247168 15.71345703 -4.53766602 16.35025391 -5.16918945 17.00634766 C-8.06821398 19.89614941 -9.99733901 21.62968846 -13.95629883 22.87353516 C-16.62426758 22.82666016 -16.62426758 22.82666016 -18.62426758 20.82666016 C-19.05032557 17.78767573 -18.9711315 16.33900212 -17.23486328 13.77441406 C-15.15011983 11.6504748 -13.06244133 9.53478343 -10.93676758 7.45166016 C-9.85492188 6.32824219 -9.85492188 6.32824219 -8.7512207 5.18212891 C-8.04545898 4.47958984 -7.33969727 3.77705078 -6.61254883 3.05322266 C-5.96842041 2.40949707 -5.32429199 1.76577148 -4.66064453 1.10253906 C-2.62426758 -0.17333984 -2.62426758 -0.17333984 0 0 Z " fill="#E15A5A" transform="translate(337.624267578125,262.17333984375)"/>
<path d="M0 0 C6.14093315 0.41689116 9.26729214 4.60581161 13.375 8.75 C14.12394531 9.46671875 14.87289062 10.1834375 15.64453125 10.921875 C16.34707031 11.623125 17.04960937 12.324375 17.7734375 13.046875 C18.73902588 14.00352051 18.73902588 14.00352051 19.72412109 14.97949219 C21 17 21 17 20.76416016 19.68457031 C20 22 20 22 19 23 C15.89307348 23.38696258 14.45508635 23.31776241 11.85595703 21.50292969 C11.16356934 20.81618164 10.47118164 20.12943359 9.7578125 19.421875 C9.00242188 18.67292969 8.24703125 17.92398437 7.46875 17.15234375 C6.6953125 16.35957031 5.921875 15.56679688 5.125 14.75 C4.32835937 13.97269531 3.53171875 13.19539063 2.7109375 12.39453125 C1.96328125 11.64042969 1.215625 10.88632812 0.4453125 10.109375 C-0.58311768 9.07248535 -0.58311768 9.07248535 -1.63232422 8.01464844 C-3 6 -3 6 -2.84033203 3.86816406 C-2 2 -2 2 0 0 Z " fill="#E05656" transform="translate(186,262)"/>
<path d="M0 0 C6.14093315 0.41689116 9.26729214 4.60581161 13.375 8.75 C14.12394531 9.46671875 14.87289063 10.1834375 15.64453125 10.921875 C16.34707031 11.623125 17.04960937 12.324375 17.7734375 13.046875 C18.73902588 14.00352051 18.73902588 14.00352051 19.72412109 14.97949219 C21 17 21 17 20.76416016 19.68457031 C20 22 20 22 19 23 C15.99546249 23.35103145 14.49447473 23.33737629 11.96362305 21.6105957 C10.99743042 20.65286255 10.99743042 20.65286255 10.01171875 19.67578125 C9.30595703 18.97646484 8.60019531 18.27714844 7.87304688 17.55664062 C7.15181641 16.81607422 6.43058594 16.07550781 5.6875 15.3125 C4.94693359 14.59126953 4.20636719 13.87003906 3.44335938 13.12695312 C2.74404297 12.42119141 2.04472656 11.71542969 1.32421875 10.98828125 C0.68572998 10.34415283 0.04724121 9.70002441 -0.6105957 9.03637695 C-2.35373938 6.48154276 -2.42499197 5.03418701 -2 2 C-1.34 1.34 -0.68 0.68 0 0 Z " fill="#E05757" transform="translate(321,397)"/>
<path d="M0 0 C3.6875 0.4375 3.6875 0.4375 6.625 2.5625 C8.6875 5.4375 8.6875 5.4375 9.25 8.4375 C8.52952557 12.2800303 7.67847304 13.89517292 4.6875 16.4375 C1.89020883 17.09669771 -0.51105588 17.06580743 -3.3125 16.4375 C-6.31415249 14.22575606 -7.85382445 11.84107628 -9.3125 8.4375 C-4.16887343 0.55060592 -4.16887343 0.55060592 0 0 Z " fill="#B050B4" transform="translate(262.3125,332.5625)"/>
<path d="M0 0 C0.66 0.33 1.32 0.66 2 1 C-5.26 8.26 -12.52 15.52 -20 23 C-20 18.6571337 -17.34523917 16.73393822 -14.5 13.75 C-13.68547363 12.88145386 -13.68547363 12.88145386 -12.85449219 11.99536133 C-8.80100348 7.72074055 -4.58373768 3.70743489 0 0 Z " fill="#FFC58A" transform="translate(190,19)"/>
</svg>
