<?xml version="1.0" encoding="UTF-8"?>
<svg version="1.1" xmlns="http://www.w3.org/2000/svg" width="512" height="512">
<path d="M0 0 C5.7479118 0.07575994 11.49477818 0.09295712 17.24313146 0.09393406 C24.26068102 0.09552809 31.27764441 0.13536135 38.29498279 0.18739414 C40.26137634 0.19977014 42.22781056 0.20502886 44.1942364 0.210145 C84.10432289 0.38108153 116.13866975 11.28333052 148.53192294 34.16827488 C153.87652455 37.90786802 159.29251193 41.54407184 164.69452059 45.20001316 C166.81898407 46.63898772 168.94273272 48.07901846 171.06561434 49.52032566 C171.97110018 50.13408054 172.87658602 50.74783543 173.80951083 51.38018894 C176.25702059 53.07501316 176.25702059 53.07501316 178.06294405 54.65788364 C180.83065995 56.44552041 182.53050216 56.44713141 185.80975497 56.44390965 C186.92612338 56.45079304 188.04249178 56.45767643 189.19268954 56.46476841 C190.39985629 56.45861012 191.60702303 56.45245182 192.85077059 56.44610691 C195.43540713 56.46351888 198.02004252 56.48110285 200.60467684 56.49884129 C204.65659946 56.51180059 208.70849981 56.51254081 212.76043856 56.51080418 C232.12908941 56.52870938 250.84372016 57.09988536 269.06952059 64.32501316 C270.23003939 64.77106907 270.23003939 64.77106907 271.41400301 65.22613621 C285.90543211 70.95565239 298.36918008 79.10127609 310.58905184 88.67657566 C311.12312655 89.09044529 311.65720126 89.50431492 312.20746005 89.93072605 C313.66026321 91.06215918 315.09978254 92.21059118 316.53827059 93.36016941 C319.51924949 95.24041329 321.77595586 95.74226433 325.25702059 96.07501316 C325.25702059 99.37501316 325.25702059 102.67501316 325.25702059 106.07501316 C324.59702059 106.07501316 323.93702059 106.07501316 323.25702059 106.07501316 C322.88577059 107.27126316 322.51452059 108.46751316 322.13202059 109.70001316 C321.19465504 112.6202674 320.1661948 115.25098814 318.75702059 117.98126316 C313.04815072 129.28921695 313.40518015 139.48145042 313.25702059 152.07501316 C301.70702059 152.07501316 290.15702059 152.07501316 278.25702059 152.07501316 C277.59702059 153.72501316 276.93702059 155.37501316 276.25702059 157.07501316 C270.64653729 164.89949884 263.8838999 169.95060871 255.25702059 174.07501316 C254.50291903 174.43595066 253.74881747 174.79688816 252.97186434 175.16876316 C241.11001102 179.68756442 225.7473761 178.43513264 214.23748934 173.61798191 C205.11331592 168.89445832 197.93550244 161.59273594 192.25702059 153.07501316 C189.1102256 152.767725 186.15858004 152.65792173 183.00802767 152.67387486 C182.03725562 152.66707819 181.06648358 152.66028152 180.06629419 152.65327889 C176.79268592 152.6341919 173.5194481 152.63675112 170.24579012 152.63922215 C167.90718248 152.63025178 165.5685793 152.62004522 163.22998202 152.60868931 C156.86224277 152.58211123 150.49462433 152.57515255 144.12683499 152.57324195 C139.4866775 152.57075715 134.84654716 152.56206665 130.20639922 152.55273252 C117.73390076 152.52780359 105.26146661 152.51660744 92.78894414 152.51874172 C91.72585927 152.51892152 91.72585927 152.51892152 90.64129794 152.51910496 C89.57691883 152.51928892 89.57691883 152.51928892 88.49103712 152.5194766 C76.98978935 152.52069609 65.48883619 152.49198774 53.98767366 152.44968986 C42.18572045 152.40662739 30.38391102 152.38587772 18.58187723 152.38847119 C11.95295335 152.38946816 5.32430103 152.38060124 -1.30456007 152.34893703 C-7.53778106 152.3199774 -13.7703484 152.31959783 -20.0035919 152.34148693 C-22.29497958 152.344635 -24.58640735 152.33747345 -26.87772596 152.31940556 C-29.99926866 152.29638005 -33.11852858 152.31008284 -36.2400192 152.33329868 C-37.15304929 152.31786799 -38.06607938 152.3024373 -39.00677705 152.28653902 C-41.40102174 152.32606134 -43.44130785 152.41411067 -45.74297941 153.07501316 C-48.30666871 155.81449354 -48.30666871 155.81449354 -49.74297941 159.07501316 C-56.69250215 168.68170636 -67.251819 174.54495803 -78.74297941 177.07501316 C-94.79603622 178.42832318 -108.04042071 176.62133921 -120.74297941 166.07501316 C-128.07691337 159.50320862 -128.07691337 159.50320862 -129.96685636 155.45074558 C-130.55297697 154.66675388 -131.13909757 153.88276218 -131.74297941 153.07501316 C-134.60175093 152.61747802 -134.60175093 152.61747802 -137.85235441 153.07110691 C-157.61124856 154.26798488 -157.61124856 154.26798488 -163.55938566 150.10284519 C-168.16625378 145.32275134 -171.60860789 139.85644488 -174.71270597 134.00860691 C-175.59561075 132.12520253 -175.59561075 132.12520253 -176.74297941 131.07501316 C-176.83153101 128.40875286 -176.85822614 125.76854202 -176.84063566 123.10235691 C-176.83922071 122.30471424 -176.83780576 121.50707157 -176.83634794 120.68525791 C-176.83073257 118.12763881 -176.81817753 115.57010598 -176.80547941 113.01251316 C-176.80046638 111.28269671 -176.79590314 109.5528789 -176.79180753 107.82306004 C-176.78075816 103.57367763 -176.76348327 99.32436004 -176.74297941 95.07501316 C-173.11297941 95.07501316 -169.48297941 95.07501316 -165.74297941 95.07501316 C-165.74297941 80.88501316 -165.74297941 66.69501316 -165.74297941 52.07501316 C-169.37297941 52.07501316 -173.00297941 52.07501316 -176.74297941 52.07501316 C-176.74297941 47.45501316 -176.74297941 42.83501316 -176.74297941 38.07501316 C-168.91541917 34.97146312 -160.86901771 32.59065245 -152.82110441 30.13751316 C-151.23719615 29.65270366 -149.65335565 29.16767276 -148.06957853 28.68243504 C-143.88869733 27.40215397 -139.7069002 26.12489055 -135.52490079 24.84826756 C-133.0372906 24.0885459 -130.5499779 23.32785987 -128.06280363 22.56671238 C-126.85202886 22.19626301 -126.85202886 22.19626301 -125.61679399 21.81832981 C-123.9896889 21.32009204 -122.36278073 20.82121071 -120.73607004 20.32168674 C-116.61688877 19.05795609 -112.49443867 17.80759838 -108.36378324 16.5818491 C-100.62975515 14.27435407 -93.02818891 11.86568999 -85.51714933 8.90704441 C-57.88259522 -1.67668708 -29.12863702 -0.40121736 0 0 Z " fill="#DA3227" transform="translate(181.7429794073105,166.92498683929443)"/>
<path d="M0 0 C5.7479118 0.07575994 11.49477818 0.09295712 17.24313146 0.09393406 C24.26068102 0.09552809 31.27764441 0.13536135 38.29498279 0.18739414 C40.26137634 0.19977014 42.22781056 0.20502886 44.1942364 0.210145 C84.10432289 0.38108153 116.13866975 11.28333052 148.53192294 34.16827488 C153.87652455 37.90786802 159.29251193 41.54407184 164.69452059 45.20001316 C166.81898407 46.63898772 168.94273272 48.07901846 171.06561434 49.52032566 C171.97110018 50.13408054 172.87658602 50.74783543 173.80951083 51.38018894 C176.25702059 53.07501316 176.25702059 53.07501316 178.06294405 54.65788364 C180.83065995 56.44552041 182.53050216 56.44713141 185.80975497 56.44390965 C186.92612338 56.45079304 188.04249178 56.45767643 189.19268954 56.46476841 C190.39985629 56.45861012 191.60702303 56.45245182 192.85077059 56.44610691 C195.43540713 56.46351888 198.02004252 56.48110285 200.60467684 56.49884129 C204.65659946 56.51180059 208.70849981 56.51254081 212.76043856 56.51080418 C232.21844403 56.52879198 249.82468112 57.64549277 268.25702059 64.07501316 C268.25702059 64.40501316 268.25702059 64.73501316 268.25702059 65.07501316 C255.75574289 65.09829783 243.25447044 65.11600981 230.75317538 65.12682533 C224.94683207 65.13201914 219.14050373 65.13905234 213.33416903 65.15045261 C207.7190756 65.16140701 202.10399645 65.1673163 196.48889315 65.1698904 C194.35856046 65.17172222 192.22822846 65.17529871 190.09790194 65.18074322 C179.40373809 65.20695972 168.81568122 65.07183545 158.14666903 64.3053751 C151.55337201 63.9148913 144.9605012 63.92145313 138.35736239 63.90634823 C135.7932413 63.89897668 133.22929021 63.88316412 130.66522372 63.86500645 C123.38562724 63.81351788 116.10613063 63.76484038 108.82635653 63.74908543 C85.63313995 63.69137887 63.20039824 62.60620035 40.25702059 59.07501316 C37.84956551 58.71809497 35.44193498 58.36235802 33.0341202 58.00787449 C28.72301082 57.36934743 24.41356242 56.72055621 20.10467684 56.06720066 C12.81599117 54.9876292 5.50856775 54.08863571 -1.80547941 53.20001316 C-16.52023988 51.4118305 -31.187432 49.33684427 -45.85259855 47.18097019 C-54.89282293 45.86006017 -63.92540581 44.6516475 -73.01589811 43.72757053 C-78.37950389 43.17127856 -78.37950389 43.17127856 -80.68951261 42.55947971 C-98.23497676 38.42004559 -119.80615826 42.87479757 -137.70916593 44.39282322 C-143.4613373 44.8782694 -149.2150745 45.3449413 -154.96859205 45.81410313 C-156.95297048 45.97732958 -158.93698571 46.14495268 -160.92098844 46.31268406 C-162.12439878 46.41278782 -163.32780912 46.51289158 -164.56768644 46.61602879 C-165.61892698 46.70485325 -166.67016752 46.79367771 -167.75326383 46.88519382 C-170.75857579 47.07600339 -173.73249258 47.10805025 -176.74297941 47.07501316 C-176.74297941 44.10501316 -176.74297941 41.13501316 -176.74297941 38.07501316 C-168.91541917 34.97146312 -160.86901771 32.59065245 -152.82110441 30.13751316 C-151.23719615 29.65270366 -149.65335565 29.16767276 -148.06957853 28.68243504 C-143.88869733 27.40215397 -139.7069002 26.12489055 -135.52490079 24.84826756 C-133.0372906 24.0885459 -130.5499779 23.32785987 -128.06280363 22.56671238 C-126.85202886 22.19626301 -126.85202886 22.19626301 -125.61679399 21.81832981 C-123.9896889 21.32009204 -122.36278073 20.82121071 -120.73607004 20.32168674 C-116.61688877 19.05795609 -112.49443867 17.80759838 -108.36378324 16.5818491 C-100.62975515 14.27435407 -93.02818891 11.86568999 -85.51714933 8.90704441 C-57.88259522 -1.67668708 -29.12863702 -0.40121736 0 0 Z " fill="#D93328" transform="translate(181.7429794073105,166.92498683929443)"/>
<path d="M0 0 C2.28845037 1.72991333 4.45835119 3.54121013 6.6171875 5.4296875 C7.54337891 6.17992187 7.54337891 6.17992187 8.48828125 6.9453125 C16.68533444 14.1747848 21.98553809 26.42278587 22.953125 37.15625 C23.04457022 46.28248268 22.02826569 53.83662294 18.6171875 62.4296875 C18.20146484 63.53376953 18.20146484 63.53376953 17.77734375 64.66015625 C13.10325879 75.45147682 3.96125461 82.48431677 -6.3828125 87.4296875 C-7.13691406 87.790625 -7.89101563 88.1515625 -8.66796875 88.5234375 C-20.52982207 93.04223876 -35.89245699 91.78980698 -47.40234375 86.97265625 C-59.34474453 80.79015519 -68.10508363 70.83039601 -72.5078125 58.203125 C-76.88411149 44.25367198 -76.43541809 31.9101867 -69.6953125 18.7421875 C-61.95669589 5.55998519 -51.02480802 -2.32823903 -36.3828125 -6.5703125 C-24.18310353 -9.38276449 -10.47146589 -6.90086768 0 0 Z " fill="#323D2C" transform="translate(443.3828125,253.5703125)"/>
<path d="M0 0 C10.94982963 7.91237689 19.48350737 18.6901492 22.23828125 32.13671875 C24.33144493 48.74248396 20.11319143 61.98001846 10.40625 75.3984375 C3.47577864 83.47339037 -7.869712 89.7360186 -18.56835938 90.63793945 C-36.71043597 91.13333341 -48.98280653 88.28667388 -62.71875 75.7734375 C-71.40808007 66.66280657 -75.45605754 53.86709606 -75.84375 41.4609375 C-75.39573133 27.16167507 -69.80449392 16.21875385 -60.1640625 5.859375 C-43.63797045 -8.84645184 -18.90433239 -11.78529582 0 0 Z " fill="#323D2C" transform="translate(119.46875,253.5390625)"/>
<path d="M0 0 C2.79712951 -0.24680555 5.57206479 -0.42257534 8.375 -0.5625 C9.53708984 -0.67561523 9.53708984 -0.67561523 10.72265625 -0.79101562 C15.94771308 -0.98533592 18.7369724 0.13450924 22.65625 3.6015625 C23.95358652 4.88436056 25.24918449 6.16929863 26.51824951 7.48007202 C28.15405552 9.15802478 29.82617669 10.79349455 31.50634766 12.42700195 C34.74296807 15.5808841 37.94923181 18.76353046 41.14453125 21.95922852 C43.15086288 23.96333418 45.16512058 25.95925476 47.1796875 27.95507812 C48.45621593 29.22867897 49.73227573 30.50274974 51.0078125 31.77734375 C51.91226608 32.67101906 51.91226608 32.67101906 52.83499146 33.58274841 C57 37.77112666 57 37.77112666 57 40 C87.03 40 117.06 40 148 40 C130.19227313 27.56470767 130.19227313 27.56470767 112.1875 15.4375 C95.34228704 4.30945023 95.34228704 4.30945023 91 1 C91 0.67 91 0.34 91 0 C108.60801285 -2.13790375 121.54954634 9.49397032 135.21044922 19.06103516 C138.33528005 21.23304692 141.47909864 23.3761947 144.62890625 25.51171875 C145.19363647 25.8946257 145.7583667 26.27753265 146.34020996 26.67204285 C148.03907008 27.82337822 149.73823464 28.97426284 151.4375 30.125 C153.5619115 31.56405129 155.68565623 33.00408762 157.80859375 34.4453125 C158.71407959 35.05906738 159.61956543 35.67282227 160.55249023 36.30517578 C163 38 163 38 164.80592346 39.58287048 C167.57363935 41.37050725 169.27348157 41.37211825 172.55273438 41.36889648 C173.66910278 41.37577988 174.78547119 41.38266327 175.93566895 41.38975525 C177.14283569 41.38359695 178.35000244 41.37743866 179.59375 41.37109375 C182.17838654 41.38850572 184.76302193 41.40608969 187.34765625 41.42382812 C191.39957887 41.43678743 195.45147922 41.43752765 199.50341797 41.43579102 C218.96142344 41.45377882 236.56766053 42.57047961 255 49 C255 49.33 255 49.66 255 50 C242.4987223 50.02328466 229.99744985 50.04099665 217.49615479 50.05181217 C211.68981148 50.05700598 205.88348314 50.06403918 200.07714844 50.07543945 C194.46205501 50.08639385 188.84697586 50.09230314 183.23187256 50.09487724 C181.10153987 50.09670906 178.97120787 50.10028555 176.84088135 50.10573006 C166.1467175 50.13194656 155.55866063 49.99682229 144.88964844 49.23036194 C138.29635142 48.83987814 131.70348061 48.84643997 125.1003418 48.83133507 C122.5362207 48.82396352 119.97226962 48.80815095 117.40820312 48.78999329 C110.12860665 48.73850472 102.84911004 48.68982722 95.56933594 48.67407227 C72.37611936 48.61636571 49.94337765 47.53118718 27 44 C24.59254492 43.64308181 22.18491438 43.28734486 19.77709961 42.93286133 C15.46599023 42.29433427 11.15654183 41.64554305 6.84765625 40.9921875 C-0.44102942 39.91261604 -7.74845284 39.01362255 -15.0625 38.125 C-29.77726047 36.33681734 -44.4444526 34.26183111 -59.10961914 32.10595703 C-68.14984352 30.78504701 -77.1824264 29.57663434 -86.2729187 28.65255737 C-91.63652448 28.0962654 -91.63652448 28.0962654 -93.9465332 27.48446655 C-111.49199736 23.34503243 -133.06317885 27.79978441 -150.96618652 29.31781006 C-156.71835789 29.80325624 -162.47209509 30.26992813 -168.22561264 30.73908997 C-170.20999107 30.90231641 -172.19400631 31.06993952 -174.17800903 31.2376709 C-175.38141937 31.33777466 -176.58482971 31.43787842 -177.82470703 31.54101562 C-179.40156784 31.67425232 -179.40156784 31.67425232 -181.01028442 31.81018066 C-184.01559638 32.00099023 -186.98951318 32.03303709 -190 32 C-190 29.03 -190 26.06 -190 23 C-180.54169747 21.97307868 -171.08328311 20.94719494 -161.6247282 19.92260075 C-157.23177926 19.44670407 -152.83886826 18.97046293 -148.44604492 18.4934082 C-144.19915949 18.0322154 -139.95217318 17.57196186 -135.70511818 17.1123333 C-134.09255226 16.93765486 -132.48002169 16.76264974 -130.86752892 16.58729744 C-130.09572603 16.5033869 -129.32392315 16.41947636 -128.5287323 16.33302307 C-127.77844442 16.25141339 -127.02815655 16.16980371 -126.25513268 16.08572102 C-124.1008272 15.85424824 -121.94576169 15.63130311 -119.79048157 15.40911865 C-117.54711627 15.16698515 -115.30578687 14.90056258 -113.07218933 14.58062744 C-104.62600864 13.46864103 -96.59642361 14.97225323 -88.27734375 16.3515625 C-86.64835252 16.61128109 -85.01916116 16.86974716 -83.38978577 17.12704468 C-79.10200018 17.80726871 -74.81688748 18.50303475 -70.53222656 19.20263672 C-66.29689544 19.89205362 -62.05959775 20.56910229 -57.82226562 21.24609375 C-56.99135218 21.37890118 -56.16043873 21.5117086 -55.30434608 21.6485405 C-53.62978322 21.91617337 -51.95521062 22.18374528 -50.2806282 22.4512558 C-47.7832376 22.85062 -45.28606312 23.25131503 -42.78890991 23.65216064 C-32.22098209 25.34565381 -21.64703974 26.99342013 -11.06027412 28.56516647 C-9.58038479 28.7849674 -8.10066775 29.00593201 -6.62113762 29.22813797 C-4.58855113 29.53275396 -2.55529824 29.83239889 -0.52172852 30.13037109 C0.62230942 30.29926849 1.76634735 30.46816589 2.9450531 30.6421814 C5.66894352 30.96122415 8.2618129 31.07112693 11 31 C9.80890625 30.15695313 9.80890625 30.15695313 8.59375 29.296875 C4.44930181 26.01207576 0.60643742 22.89123443 -0.52099609 17.51611328 C-0.97517713 11.66257728 -0.61265431 5.8309267 0 0 Z " fill="#E57166" transform="translate(195,182)"/>
<path d="M0 0 C74.58 0 149.16 0 226 0 C227.98 7.92 227.98 7.92 230 16 C230.99 19.465 230.99 19.465 232 23 C153.46 23 74.92 23 -6 23 C-5.01 20.03 -4.02 17.06 -3 14 C-2.01 9.38 -1.02 4.76 0 0 Z " fill="#B4100B" transform="translate(142,296)"/>
<path d="M0 0 C1.42119141 0.24762085 1.42119141 0.24762085 2.87109375 0.50024414 C3.87140625 0.67934326 4.87171875 0.85844238 5.90234375 1.04296875 C14.03204634 2.45382128 22.15752614 3.72871947 30.33984375 4.79296875 C36.65383 5.61769828 42.90628366 6.55294212 49.15234375 7.79296875 C55.79716298 9.10025735 62.38869581 9.93779292 69.12109375 10.60546875 C73.85190641 11.15838585 78.50081464 12.09825513 83.17562866 12.99888611 C92.06512445 14.68765091 101.01443801 15.97455497 109.96484375 17.29296875 C111.70056059 17.55116516 113.43623785 17.80962782 115.171875 18.06835938 C124.61076756 19.47347344 124.61076756 19.47347344 134.05761719 20.82373047 C135.30317383 20.99791504 136.54873047 21.17209961 137.83203125 21.3515625 C138.90565918 21.49907959 139.97928711 21.64659668 141.08544922 21.79858398 C143.39013261 22.15995474 145.59222274 22.6146868 147.83984375 23.23046875 C146.99466979 26.68799859 146.49767743 28.71985687 143.63623047 30.94091797 C140.29059068 32.48375622 138.43418882 32.42417321 134.78515625 32.05078125 C133.5415332 31.9312207 132.29791016 31.81166016 131.01660156 31.68847656 C129.62430419 31.53621613 128.23205334 31.38352974 126.83984375 31.23046875 C125.34615329 31.07916803 123.85233272 30.92914744 122.35839844 30.78027344 C117.14056484 30.2517833 111.92781147 29.67969073 106.71484375 29.10546875 C105.75371674 29.00053101 104.79258972 28.89559326 103.80233765 28.78747559 C82.79154208 26.49283081 61.79958045 24.03476406 40.81005859 21.55419922 C39.56446671 21.40745758 38.31887482 21.26071594 37.03553772 21.10952759 C34.70989464 20.83540956 32.38439215 20.56009476 30.05906677 20.28329468 C9.80052661 16.90029563 9.80052661 16.90029563 -9.16015625 22.23046875 C-9.16015625 22.89046875 -9.16015625 23.55046875 -9.16015625 24.23046875 C-7.60936555 25.79910957 -7.60936555 25.79910957 -5.59765625 27.41796875 C-1.44148176 30.87739664 -1.44148176 30.87739664 0.17066956 32.9006958 C4.49252952 38.05219452 8.19947476 39.20248804 14.78251648 39.93757629 C15.94354385 40.03551987 17.10457123 40.13346344 18.30078125 40.234375 C19.53532547 40.36361862 20.76986969 40.49286224 22.04182434 40.62602234 C25.39948471 40.97195092 28.75764592 41.29051449 32.1189537 41.59742737 C35.64325936 41.92623641 39.16379168 42.29131137 42.68481445 42.65332031 C48.50750059 43.2479674 54.33175448 43.8236308 60.15771484 44.38525391 C72.24253478 45.55193157 84.31576715 46.82591951 96.38970947 48.099823 C99.92823753 48.47009817 103.46759128 48.83114443 107.00732422 49.18969727 C113.28955071 49.83021014 119.56586541 50.51385718 125.83984375 51.23046875 C126.81922913 51.33931396 127.7986145 51.44815918 128.80767822 51.56030273 C131.58906152 51.87879022 134.36452204 52.22850438 137.140625 52.58984375 C138.36026192 52.72570892 138.36026192 52.72570892 139.60453796 52.86431885 C144.80458698 53.59043002 147.5363003 54.86532236 150.83984375 59.23046875 C150.83984375 60.22046875 150.83984375 61.21046875 150.83984375 62.23046875 C146.69372872 62.11402346 142.5480575 61.98536056 138.40234375 61.85546875 C137.29568359 61.82453125 136.18902344 61.79359375 135.04882812 61.76171875 C122.01037313 61.34225103 108.99585586 60.48134109 95.97711372 59.6722765 C87.57518896 59.15047 79.17235568 58.64391381 70.76947594 58.13775635 C67.18740896 57.92196177 63.60536511 57.70578456 60.0233202 57.48962402 C57.30811209 57.32578926 54.59289909 57.16203577 51.87768555 56.99829102 C48.20058877 56.77650779 44.52350642 56.55448756 40.84643555 56.33227539 C36.29556979 56.05726214 31.74467837 55.78267718 27.19376945 55.50837898 C25.49770163 55.40608306 23.8016423 55.30364601 22.10559273 55.2010479 C20.50737801 55.10438729 18.90914127 55.00808988 17.31088161 54.91217518 C15.77234052 54.81919796 14.23390245 54.72449794 12.69558048 54.62796307 C8.73796098 54.38364145 4.78418612 54.18482343 0.82125854 54.04891968 C0.0020011 54.01634851 -0.81725634 53.98377733 -1.66133976 53.95021915 C-3.2209525 53.88957413 -4.78107223 53.84044379 -6.34146023 53.8049612 C-10.65646834 53.62538677 -13.27001708 53.12916819 -16.41015625 50.08984375 C-17.85668945 48.11376953 -17.85668945 48.11376953 -19.16015625 45.98046875 C-19.66957764 45.25972168 -20.17899902 44.53897461 -20.70385742 43.79638672 C-21.73677936 42.33185617 -22.7480302 40.85177456 -23.73583984 39.35644531 C-25.82818997 36.23334197 -28.14882384 33.30757001 -30.47265625 30.35546875 C-31.26027344 29.32292969 -32.04789063 28.29039062 -32.859375 27.2265625 C-36.22690598 22.84133965 -39.68505096 18.53066887 -43.16015625 14.23046875 C-38.51065384 10.45305425 -33.14275722 8.30407267 -27.70727539 5.87719727 C-25.85792612 5.04757583 -24.01805077 4.19904294 -22.17773438 3.34960938 C-21.00017578 2.82173828 -19.82261719 2.29386719 -18.609375 1.75 C-17.00582153 1.02453979 -17.00582153 1.02453979 -15.36987305 0.28442383 C-10.16578826 -1.42440967 -5.31878845 -0.95290436 0 0 Z " fill="#B5100B" transform="translate(206.16015625,232.76953125)"/>
<path d="M0 0 C2.72219879 1.20986613 4.41077686 2.13510461 6.09375 4.60546875 C7.3885693 8.02669387 7.50850073 11.44671481 7.6875 15.0625 C7.73455078 15.78244141 7.78160156 16.50238281 7.83007812 17.24414062 C8.01392529 20.49009803 8.03750686 22.88747942 7 26 C6.05506837 34.112913 7.39913796 40.22510425 12 47 C16.03284568 51.03284568 20.70993253 53.78140265 26.4375 54.328125 C27.613125 54.30234375 28.78875 54.2765625 30 54.25 C31.175625 54.23453125 32.35125 54.2190625 33.5625 54.203125 C36.94754525 54.07317602 36.94754525 54.07317602 40.02734375 53.4453125 C46.63481088 52.45549482 53.69109973 53.51881869 59.3125 57.125 C61.61998338 61.05626797 61.38178443 63.49494377 61 68 C61.66 68.33 62.32 68.66 63 69 C49.27313177 78.61961632 36.62784598 81.87958104 20 80 C6.72307503 77.52717654 -2.96441287 69.47005886 -11 59 C-17.94397583 48.63845613 -20.47038566 35.21117627 -18.52734375 23.0390625 C-16.32534961 12.78067062 -12.32661444 -1.27516701 0 0 Z " fill="#1D2617" transform="translate(387,264)"/>
<path d="M0 0 C0.66 0.07347656 1.32 0.14695312 2 0.22265625 C4.8259499 1.23271256 6.1347602 2.59899041 8 4.9375 C9.97562675 11.11468589 10.23256398 17.29261944 9.3125 23.6640625 C8.08186453 32.61693557 8.83994056 39.33917072 14 46.9375 C18.01833878 50.95583878 22.69449393 53.71515498 28.40234375 54.265625 C30.15224609 54.22695313 30.15224609 54.22695313 31.9375 54.1875 C33.16984375 54.16429687 34.4021875 54.14109375 35.671875 54.1171875 C39.07475767 53.99672183 39.07475767 53.99672183 42.6875 53.3125 C48.86552738 52.61310067 54.87079342 53.57480779 60.125 56.9375 C62.67360951 59.65601681 62.97648549 60.51423882 63.1875 64.3125 C63.00632488 67.81521902 62.91558217 69.13094938 61 71.9375 C58.42578125 73.5703125 58.42578125 73.5703125 55.3125 75.0625 C54.29800781 75.56007813 53.28351563 76.05765625 52.23828125 76.5703125 C40.22808845 81.64096085 24.80507636 82.16031234 12.6015625 77.26171875 C-1.10745366 70.28370602 -10.03711092 60.48221837 -15.03515625 45.921875 C-18.42649883 33.87077857 -18.13672616 21.45428915 -12.60546875 10.06640625 C-6.3311284 -0.87794945 -6.3311284 -0.87794945 0 0 Z " fill="#1C2617" transform="translate(61,264.0625)"/>
<path d="M0 0 C42.02533306 -1.20962987 80.12373408 8.69137928 113 36 C114.33927409 37.32736599 115.67327324 38.66009267 117 40 C106.95127712 40.18563437 96.90296423 40.32764429 86.8528738 40.41449738 C82.18572219 40.45619069 77.51974637 40.51270788 72.85327148 40.60351562 C68.34684321 40.69065675 63.8415432 40.73831818 59.33433723 40.75901794 C57.61784162 40.77376201 55.90140551 40.80255619 54.18539238 40.84584045 C40.77626373 41.17051318 40.77626373 41.17051318 36.59103394 38.41255188 C34.81043524 36.37495782 33.42880789 34.29387475 32 32 C30.89733611 30.79403573 29.76029921 29.61858217 28.59082031 28.47729492 C28.0204303 27.90698044 27.45004028 27.33666595 26.86236572 26.74906921 C26.27356628 26.16543106 25.68476685 25.58179291 25.078125 24.98046875 C24.45145935 24.35521805 23.8247937 23.72996735 23.17913818 23.08576965 C21.20512709 21.11728554 19.22764714 19.1523304 17.25 17.1875 C15.90992247 15.85244816 14.57007682 14.51716353 13.23046875 13.18164062 C10.29398114 10.25490642 7.35531148 7.3303845 4.41461182 4.40788269 C2.94068511 2.94096726 1.46987216 1.4709772 0 0 Z " fill="#495042" transform="translate(213,182)"/>
<path d="M0 0 C3.46037363 0.0732568 6.92114509 0.10391968 10.38208008 0.13885498 C17.10175045 0.21261921 23.81992719 0.33111827 30.53833008 0.48065186 C30.53949326 1.05149002 30.54065643 1.62232819 30.54185486 2.21046448 C30.56322438 4.8289689 30.62663027 7.44488855 30.69067383 10.06268311 C30.69176147 10.96055542 30.69284912 11.85842773 30.69396973 12.7835083 C30.86817887 18.42659417 31.68479364 21.69319028 35.61437988 25.82623291 C37.833247 27.82935406 40.15876088 29.67343374 42.53833008 31.48065186 C42.53833008 31.81065186 42.53833008 32.14065186 42.53833008 32.48065186 C29.88560873 32.08619311 17.56194266 30.03188456 5.09350586 27.95742798 C-1.09051738 26.92875715 -7.2782576 25.92287096 -13.46557617 24.91424561 C-15.34057297 24.60768791 -15.34057297 24.60768791 -17.25344849 24.29493713 C-29.80950765 22.24759801 -42.38246968 20.31738003 -54.96166992 18.41815186 C-55.96400665 18.2665863 -56.96634338 18.11502075 -57.99905396 17.9588623 C-63.48609462 17.12945698 -68.97361193 16.30329792 -74.46166992 15.48065186 C-74.46166992 14.82065186 -74.46166992 14.16065186 -74.46166992 13.48065186 C-73.22416992 13.12873779 -71.98666992 12.77682373 -70.71166992 12.41424561 C-69.88469604 12.17801987 -69.05772217 11.94179413 -68.20568848 11.69841003 C-66.37285693 11.17724672 -64.53860987 10.6610366 -62.70300293 10.1497345 C-57.79761908 8.77183366 -52.94919552 7.33513995 -48.1472168 5.62908936 C-32.04450165 0.09159605 -16.89939551 -0.39747034 0 0 Z " fill="#4D5143" transform="translate(164.461669921875,181.51934814453125)"/>
<path d="M0 0 C2.79712951 -0.24680555 5.57206479 -0.42257534 8.375 -0.5625 C9.14972656 -0.63791016 9.92445313 -0.71332031 10.72265625 -0.79101562 C15.94301712 -0.98516128 18.73759688 0.13293662 22.65625 3.59375 C23.95406497 4.87651528 25.2500478 6.16155242 26.51824951 7.47360229 C28.15659331 9.16131169 29.82820979 10.81109874 31.50634766 12.45922852 C35.40668254 16.29990468 39.26704046 20.17933437 43.125 24.0625 C44.47632686 25.4188546 45.82788772 26.7749761 47.1796875 28.13085938 C50.45582527 31.41789555 53.72879311 34.70805696 57 38 C52.88694969 39.20284521 49.34091195 38.69694303 45.1640625 38.07421875 C44.40709076 37.96656693 43.65011902 37.8589151 42.87020874 37.7480011 C41.27100889 37.51873654 39.67234989 37.28567159 38.07421875 37.04907227 C35.64195607 36.69000318 33.20799628 36.34506729 30.7734375 36.00195312 C29.2160237 35.77688516 27.65872772 35.55100011 26.1015625 35.32421875 C25.37949615 35.22203537 24.65742981 35.11985199 23.91348267 35.01457214 C14.19601307 33.55587678 7.02084108 29.99987762 1.08105469 22.09277344 C-2.28262339 15.58115454 -0.74940489 7.02220142 0 0 Z " fill="#737C6A" transform="translate(195,182)"/>
<path d="M0 0 C5.20440944 4.64153654 9.41118946 9.48122142 10.3359375 16.578125 C10.46501219 25.40683346 8.26370734 32.53423758 2 39 C1.01 39.33 0.02 39.66 -1 40 C-1.144375 39.236875 -1.28875 38.47375 -1.4375 37.6875 C-3.55719327 34.04162757 -5.57301954 33.99012504 -9.484375 32.8671875 C-14.98714732 30.97026909 -19.49402411 27.66449967 -23.375 23.375 C-25.74492778 18.4528423 -26.86261403 13.32503433 -28 8 C-29.98 8 -31.96 8 -34 8 C-31.6027578 2.56625101 -27.11477485 -0.31516802 -22 -3 C-13.9896524 -5.01768937 -7.12898499 -4.18174471 0 0 Z " fill="#737D6B" transform="translate(431,275)"/>
<path d="M0 0 C5.20440944 4.64153654 9.41118946 9.48122142 10.3359375 16.578125 C10.46501219 25.40683346 8.26370734 32.53423758 2 39 C1.01 39.33 0.02 39.66 -1 40 C-1.144375 39.236875 -1.28875 38.47375 -1.4375 37.6875 C-3.55719327 34.04162757 -5.57301954 33.99012504 -9.484375 32.8671875 C-14.98714732 30.97026909 -19.49402411 27.66449967 -23.375 23.375 C-25.74492778 18.4528423 -26.86261403 13.32503433 -28 8 C-29.98 8 -31.96 8 -34 8 C-31.6027578 2.56625101 -27.11477485 -0.31516802 -22 -3 C-13.9896524 -5.01768937 -7.12898499 -4.18174471 0 0 Z " fill="#737D6B" transform="translate(107,275)"/>
<path d="M0 0 C3.21087552 2.1160196 6.1080083 4.47018296 9 7 C9.92619141 7.75023437 9.92619141 7.75023437 10.87109375 8.515625 C18.43829313 15.18959149 24.18198031 26.98082279 25.20092773 36.96972656 C25.30166518 39.02585411 25.32222788 41.0665802 25.3125 43.125 C25.32861328 43.81464844 25.34472656 44.50429688 25.36132812 45.21484375 C25.36558504 49.66757431 24.64419024 52.4139478 22 56 C18.125 55.125 18.125 55.125 17 54 C16.69913118 51.8581715 16.43497664 49.7111523 16.1875 47.5625 C15.29799974 41.15420253 13.88883088 35.77766177 11 30 C10.57847656 29.15695312 10.15695312 28.31390625 9.72265625 27.4453125 C3.69902317 16.46594806 -6.05694664 8.88864167 -18 5 C-22.23527697 4.09783913 -26.48468962 3.70294208 -30.796875 3.38671875 C-34 3 -34 3 -36 1 C-36.125 -1.625 -36.125 -1.625 -36 -4 C-23.94905012 -8.10245102 -11.19716851 -5.75956591 0 0 Z " fill="#494F41" transform="translate(441,252)"/>
<path d="M0 0 C12.78249881 4.63574571 24.13115311 14.38567966 29.97265625 26.75390625 C33.7738069 36.16503096 35.09122633 44.98836235 34.03515625 55.12890625 C32.515625 58.0859375 32.515625 58.0859375 31.03515625 60.12890625 C27.16015625 59.25390625 27.16015625 59.25390625 26.03515625 58.12890625 C25.73428743 55.98707775 25.47013289 53.84005855 25.22265625 51.69140625 C24.33315599 45.28310878 22.92398713 39.90656802 20.03515625 34.12890625 C19.61363281 33.28585937 19.19210938 32.4428125 18.7578125 31.57421875 C12.73417942 20.59485431 2.97820961 13.01754792 -8.96484375 9.12890625 C-13.20012072 8.22674538 -17.44953337 7.83184833 -21.76171875 7.515625 C-24.96484375 7.12890625 -24.96484375 7.12890625 -26.96484375 5.12890625 C-27.08984375 2.50390625 -27.08984375 2.50390625 -26.96484375 0.12890625 C-20.14990219 -3.27856453 -7.21235064 -1.90741427 0 0 Z " fill="#495042" transform="translate(107.96484375,247.87109375)"/>
<path d="M0 0 C11.88 0 23.76 0 36 0 C35.938125 3.073125 35.87625 6.14625 35.8125 9.3125 C35.91107182 15.78153767 36.40486903 20.50494071 41.00463867 25.29174805 C43.25298873 27.30613722 45.59674242 29.17479119 48 31 C48 31.33 48 31.66 48 32 C37.11470141 31.54050414 26.68591229 30.07963287 16 28 C16.06703125 27.20078125 16.1340625 26.4015625 16.203125 25.578125 C16.29780414 18.85590596 15.4498997 14.74430797 10.78417969 9.94042969 C8.24946976 7.54894057 5.65089747 5.26296126 3 3 C2.01 2.01 1.02 1.02 0 0 Z " fill="#323D2C" transform="translate(159,182)"/>
<path d="M0 0 C12.87 0 25.74 0 39 0 C40.32 5.61 41.64 11.22 43 17 C43.66 18.98 44.32 20.96 45 23 C20.70183983 26.1813484 20.70183983 26.1813484 13.17041016 21.08544922 C7.36929798 15.20646977 2.6192461 7.85773831 0 0 Z " fill="#B5100B" transform="translate(5,296)"/>
<path d="M0 0 C9.57 0 19.14 0 29 0 C29 7.59 29 15.18 29 23 C17.45 23 5.9 23 -6 23 C-4.02 17.555 -4.02 17.555 -2 12 C-1.34 8.04 -0.68 4.08 0 0 Z " fill="#B4100B" transform="translate(466,296)"/>
<path d="M0 0 C17.61111758 -2.13828072 30.54913146 9.49546669 44.21044922 19.06542969 C47.33162728 21.22998552 50.47716043 23.35693997 53.62890625 25.4765625 C54.76905955 26.24484844 55.90919629 27.01315896 57.04931641 27.78149414 C59.27195756 29.27896605 61.49727275 30.77219034 63.72412109 32.26342773 C64.74199707 32.95122314 65.75987305 33.63901855 66.80859375 34.34765625 C67.71407959 34.95617432 68.61956543 35.56469238 69.55249023 36.19165039 C71.9436957 37.95839941 73.96000962 39.84289521 76 42 C74.52129029 42.05556738 73.04191756 42.09347512 71.5625 42.125 C70.73878906 42.14820313 69.91507812 42.17140625 69.06640625 42.1953125 C59.69900207 41.59866255 53.95448651 38.41530955 46.4375 32.875 C44.41311118 31.42347331 42.38701191 29.97432972 40.359375 28.52734375 C39.31845703 27.78081543 38.27753906 27.03428711 37.20507812 26.26513672 C31.94018198 22.54425719 26.56606147 18.99121495 21.1875 15.4375 C4.30976346 4.28466256 4.30976346 4.28466256 0 1 C0 0.67 0 0.34 0 0 Z " fill="#797968" transform="translate(286,182)"/>
<path d="M0 0 C2.31 0 4.62 0 7 0 C7.30292969 0.95261719 7.60585938 1.90523438 7.91796875 2.88671875 C8.34036466 4.15390649 8.76358589 5.42081934 9.1875 6.6875 C9.59355469 7.92886719 9.99960937 9.17023438 10.41796875 10.44921875 C13.05569504 16.36944887 17.46714894 19.80797054 23 23 C25.33067629 23.85038189 27.66367746 24.6000428 30.046875 25.2890625 C32 26 32 26 34 28 C34.125 30.625 34.125 30.625 34 33 C27.36036676 36.78831881 21.48922406 36.87416308 14 36 C7.04665532 33.82645087 2.58987035 29.21459523 -1 23 C-3.71223066 17.259731 -4.14667708 10.85097911 -2.32421875 4.73046875 C-1.5 2.8125 -1.5 2.8125 0 0 Z " fill="#485143" transform="translate(396,283)"/>
<path d="M0 0 C2.31 0 4.62 0 7 0 C7.30292969 0.95261719 7.60585937 1.90523438 7.91796875 2.88671875 C8.34036466 4.15390649 8.76358589 5.42081934 9.1875 6.6875 C9.59355469 7.92886719 9.99960938 9.17023438 10.41796875 10.44921875 C13.05569504 16.36944887 17.46714894 19.80797054 23 23 C25.33067629 23.85038189 27.66367746 24.6000428 30.046875 25.2890625 C32 26 32 26 34 28 C34.125 30.625 34.125 30.625 34 33 C27.36036676 36.78831881 21.48922406 36.87416308 14 36 C7.04665532 33.82645087 2.58987035 29.21459523 -1 23 C-3.71223066 17.259731 -4.14667708 10.85097911 -2.32421875 4.73046875 C-1.5 2.8125 -1.5 2.8125 0 0 Z " fill="#485143" transform="translate(72,283)"/>
<path d="M0 0 C2.64 0 5.28 0 8 0 C9.70626533 3.7417395 11.38667625 7.49453956 13.0625 11.25 C13.79049805 12.84521484 13.79049805 12.84521484 14.53320312 14.47265625 C14.98759766 15.49746094 15.44199219 16.52226562 15.91015625 17.578125 C16.54642944 18.99206543 16.54642944 18.99206543 17.19555664 20.43457031 C18.30672189 23.97815892 17.64523124 25.67969829 16.06030273 28.92285156 C15.68848877 29.5722168 15.3166748 30.22158203 14.93359375 30.890625 C14.53076172 31.59960938 14.12792969 32.30859375 13.71289062 33.0390625 C13.29201172 33.76867187 12.87113281 34.49828125 12.4375 35.25 C12.01275391 35.99507812 11.58800781 36.74015625 11.15039062 37.5078125 C10.10453958 39.34098961 9.05283808 41.17082677 8 43 C5.36 43 2.72 43 0 43 C0 28.81 0 14.62 0 0 Z " fill="#B5100B" transform="translate(30,219)"/>
<path d="M0 0 C-2.72436525 1.8162435 -4.72452805 2.69202793 -7.79101562 3.69580078 C-8.7621228 4.01598175 -9.73322998 4.33616272 -10.73376465 4.66604614 C-11.78068481 5.00570404 -12.82760498 5.34536194 -13.90625 5.6953125 C-14.98249634 6.04761932 -16.05874268 6.39992615 -17.16760254 6.76290894 C-19.44319104 7.50647379 -21.71953925 8.24771704 -23.99658203 8.98681641 C-27.4882455 10.12118122 -30.97665994 11.26514232 -34.46484375 12.41015625 C-36.67429042 13.1307873 -38.88391981 13.85085839 -41.09375 14.5703125 C-42.14067017 14.91401886 -43.18759033 15.25772522 -44.26623535 15.61184692 C-45.72289612 16.0826619 -45.72289612 16.0826619 -47.20898438 16.56298828 C-48.06375366 16.84119415 -48.91852295 17.11940002 -49.79919434 17.40603638 C-52 18 -52 18 -55 18 C-55 18.66 -55 19.32 -55 20 C-59.12385827 20.50972081 -63.24923423 21.00597627 -67.375 21.5 C-68.53128906 21.64308594 -69.68757813 21.78617188 -70.87890625 21.93359375 C-77.62477351 22.73395088 -84.20679329 23.20967886 -91 23 C-87.64732256 21.18714578 -84.22878045 20.01502962 -80.60522461 18.84521484 C-79.6552636 18.53753929 -79.6552636 18.53753929 -78.68611145 18.22364807 C-72.03103171 16.07509481 -65.3605468 13.97436334 -58.68920898 11.87695312 C-55.54350757 10.88628844 -52.40305565 9.88110848 -49.26635742 8.86230469 C-15.86052562 -1.97578798 -15.86052562 -1.97578798 0 0 Z " fill="#534F41" transform="translate(97,182)"/>
<path d="M0 0 C14.59476243 -1.37143359 14.59476243 -1.37143359 20.14453125 1.79296875 C22.62577463 4.0683947 24.80553484 6.45036129 27 9 C28.20484944 9.9419732 29.41267977 10.88016135 30.625 11.8125 C34.1990896 16.60930447 33.50532403 21.21684718 33 27 C29.93752753 27.4298207 27.9633673 27.66998729 25 27 C23.3671875 25.53295898 23.3671875 25.53295898 21.8125 23.55859375 C17.69717896 18.57109675 13.16850757 14.09427699 8.5625 9.5625 C6.93656196 7.96190783 5.31273413 6.35916813 3.69140625 4.75390625 C2.98185791 4.05595947 2.27230957 3.3580127 1.54125977 2.63891602 C0 1 0 1 0 0 Z " fill="#737C6A" transform="translate(142,182)"/>
<path d="M0 0 C2.64 0 5.28 0 8 0 C8 14.19 8 28.38 8 43 C5.36 43 2.72 43 0 43 C0 28.81 0 14.62 0 0 Z " fill="#E46F64" transform="translate(22,219)"/>
<path d="M0 0 C10.23 0 20.46 0 31 0 C31 3.3 31 6.6 31 10 C20.77 10 10.54 10 0 10 C0 6.7 0 3.4 0 0 Z " fill="#EBEADF" transform="translate(476,263)"/>
<path d="M0 0 C1.98 0 3.96 0 6 0 C6 14.19 6 28.38 6 43 C4.02 43 2.04 43 0 43 C0 28.81 0 14.62 0 0 Z " fill="#B5100B" transform="translate(16,219)"/>
<path d="M0 0 C6.33833153 -0.55115926 11.4912397 0.7686523 17 4 C22.05375006 8.50717144 26.63777104 13.44315962 27.1953125 20.45703125 C27.17210937 21.23433594 27.14890625 22.01164062 27.125 22.8125 C27.10695313 23.60269531 27.08890625 24.39289063 27.0703125 25.20703125 C27.04710937 25.79871094 27.02390625 26.39039063 27 27 C25.68 27 24.36 27 23 27 C22.78085937 26.28714844 22.56171875 25.57429688 22.3359375 24.83984375 C19.72721176 16.96064363 17.094656 11.15900044 9.5625 7.1875 C6.05644826 6.01881609 2.57140291 4.94751506 -1 4 C-0.67 2.68 -0.34 1.36 0 0 Z " fill="#BBB9A4" transform="translate(414,271)"/>
<path d="M0 0 C6.33833153 -0.55115926 11.4912397 0.7686523 17 4 C22.05375006 8.50717144 26.63777104 13.44315962 27.1953125 20.45703125 C27.17210938 21.23433594 27.14890625 22.01164062 27.125 22.8125 C27.10695313 23.60269531 27.08890625 24.39289063 27.0703125 25.20703125 C27.04710938 25.79871094 27.02390625 26.39039063 27 27 C25.68 27 24.36 27 23 27 C22.78085938 26.28714844 22.56171875 25.57429688 22.3359375 24.83984375 C19.72721176 16.96064363 17.094656 11.15900044 9.5625 7.1875 C6.05644826 6.01881609 2.57140291 4.94751506 -1 4 C-0.67 2.68 -0.34 1.36 0 0 Z " fill="#BBB9A4" transform="translate(90,271)"/>
<path d="M0 0 C5.28 0 10.56 0 16 0 C16 4.95 16 9.9 16 15 C11.99513132 11.59160112 8.01406295 8.15762253 4.0625 4.6875 C3.29035156 4.01074219 2.51820313 3.33398438 1.72265625 2.63671875 C1.15417969 2.09660156 0.58570313 1.55648437 0 1 C0 0.67 0 0.34 0 0 Z " fill="#475042" transform="translate(159,182)"/>
<path d="M0 0 C4.53287116 3.73295272 8.37382288 7.38486548 12 12 C7.05 11.67 2.1 11.34 -3 11 C-2.01 10.67 -1.02 10.34 0 10 C0 6.7 0 3.4 0 0 Z " fill="#4E5042" transform="translate(195,202)"/>
<path d="M0 0 C-0.99 0.495 -0.99 0.495 -2 1 C-1.01 1.66 -0.02 2.32 1 3 C-5.04829486 3.89604368 -10.8894576 4.11269443 -17 4 C-14.22246623 2.55441992 -11.45460092 1.34964587 -8.5 0.3125 C-7.7471875 0.04050781 -6.994375 -0.23148438 -6.21875 -0.51171875 C-3.76402507 -1.0519311 -2.35576662 -0.79774824 0 0 Z " fill="#6F5041" transform="translate(23,201)"/>
</svg>
