<?xml version="1.0" encoding="UTF-8"?>
<svg version="1.1" xmlns="http://www.w3.org/2000/svg" width="512" height="512">
<path d="M0 0 C1.29056808 -0.01853531 1.29056808 -0.01853531 2.60720825 -0.03744507 C4.42085006 -0.05694527 6.23459667 -0.06823173 8.04833984 -0.07177734 C10.80617662 -0.08586529 13.55947934 -0.15325316 16.31640625 -0.22265625 C31.06199922 -0.40955025 31.06199922 -0.40955025 35.84375 3.66796875 C37.51025391 5.59179687 37.51025391 5.59179687 38.9453125 7.5390625 C39.9570386 8.64810064 40.97251577 9.75373155 41.9921875 10.85546875 C42.8995752 11.93218379 43.80074254 13.01417467 44.6953125 14.1015625 C45.15035156 14.63974609 45.60539062 15.17792969 46.07421875 15.73242188 C53.81740404 25.00416104 53.81740404 25.00416104 54.2578125 30.2890625 C53.9453125 33.5390625 53.9453125 33.5390625 52.9453125 35.5390625 C59.7658743 34.8821882 66.16894645 33.31169433 72.78515625 31.5625 C75.08772983 30.96812672 77.39046943 30.37439632 79.69335938 29.78125 C83.29377521 28.84865508 86.89276529 27.91143735 90.48901367 26.96289062 C93.98009806 26.04459869 97.47577731 25.14593415 100.97265625 24.25 C102.03854477 23.96361664 103.10443329 23.67723328 104.20262146 23.38217163 C110.70617037 21.73402104 117.49294262 20.23967488 123.7518158 23.47201538 C127.9403973 26.53332538 128.85050611 29.64801184 129.9453125 34.5390625 C130.12696582 37.27414452 130.2265649 39.90182746 130.2109375 42.6328125 C130.21285095 43.38316772 130.2147644 44.13352295 130.21673584 44.90661621 C130.21808864 46.48315774 130.2144559 48.05971075 130.20605469 49.63623047 C130.19534191 52.03248407 130.20598058 54.42798812 130.21875 56.82421875 C130.21742824 58.36458497 130.21486552 59.90495072 130.2109375 61.4453125 C130.21498596 62.1528064 130.21903442 62.86030029 130.22320557 63.5892334 C130.16631546 69.70392049 129.52392899 74.72365354 125.4453125 79.4140625 C122.19973987 82.17279924 120.74249133 82.66437703 116.59375 82.63671875 C115.31757812 82.63188477 115.31757812 82.63188477 114.015625 82.62695312 C113.12617188 82.61857422 112.23671875 82.61019531 111.3203125 82.6015625 C110.423125 82.59705078 109.5259375 82.59253906 108.6015625 82.58789062 C106.38274602 82.57608841 104.16406232 82.55962405 101.9453125 82.5390625 C102.27853516 83.07273437 102.61175781 83.60640625 102.95507812 84.15625 C104.47041948 86.60622847 105.95781744 89.07208666 107.4453125 91.5390625 C107.96996094 92.37824219 108.49460937 93.21742188 109.03515625 94.08203125 C112.30586747 99.56153446 113.77198637 103.1461179 112.9453125 109.5390625 C112.34783203 110.55613281 112.34783203 110.55613281 111.73828125 111.59375 C110.5983295 113.7662484 110.5983295 113.7662484 112.18359375 116.921875 C112.84896813 118.1833487 113.54192855 119.4305516 114.2578125 120.6640625 C114.62374512 121.30496826 114.98967773 121.94587402 115.36669922 122.60620117 C117.05177125 125.32294268 118.31354631 127.2565138 121.27734375 128.58203125 C122.75213917 128.7553888 124.23261229 128.88789627 125.71533203 128.96923828 C129.45790651 129.92557382 130.5037033 132.76464022 132.46777344 135.89916992 C133.90863587 138.47353303 135.14656005 141.06086065 136.33984375 143.7578125 C139.99090446 152.95286567 139.99090446 152.95286567 146.86669922 159.48046875 C151.17811295 160.39529202 155.45333546 159.95816278 159.81396484 159.60888672 C175.09696497 159.10820653 192.19878248 169.65091336 203.09765625 179.671875 C207.37095625 183.83574896 210.80488211 188.47733685 213.9453125 193.5390625 C214.62400391 194.621875 214.62400391 194.621875 215.31640625 195.7265625 C218.01389297 200.50550091 218.6391404 204.07516778 217.9453125 209.5390625 C216.21840618 213.94443577 213.80693121 216.83755193 209.9453125 219.5390625 C210.41839844 219.95414063 210.89148438 220.36921875 211.37890625 220.796875 C224.59412474 233.1104704 233.52462163 250.75150107 234.28125 268.921875 C234.62050345 290.25059192 230.15524324 308.81350821 215.07275391 324.53491211 C200.335999 339.2893491 182.89544526 346.69304767 162.0703125 346.9765625 C142.61671082 346.85992631 125.08362696 340.16635354 110.9453125 326.5390625 C99.2036472 314.38298549 92.21645624 300.34552616 89.9453125 283.5390625 C88.94548308 283.70158225 87.94565367 283.864102 86.91552639 284.03154659 C83.0707377 284.57772727 79.30835031 284.66209108 75.42189026 284.65931702 C74.33486097 284.66059865 74.33486097 284.66059865 73.2258715 284.66190618 C70.81535018 284.66354369 68.40489959 284.65806813 65.99438477 284.65258789 C64.25938417 284.65230562 62.52438346 284.65246453 60.78938293 284.6530304 C56.09158965 284.65331681 51.39382201 284.64744524 46.69603467 284.64045644 C41.78197183 284.63419698 36.86790837 284.63361705 31.95384216 284.63243103 C22.65383662 284.62932536 13.35384285 284.62112227 4.05384248 284.61108154 C-6.5362014 284.59989668 -17.12624585 284.59440397 -27.71629417 284.58938611 C-49.49576518 284.57893902 -71.2752256 284.56135437 -93.0546875 284.5390625 C-93.1159079 285.15045578 -93.1771283 285.76184906 -93.24020386 286.39176941 C-93.32448639 287.19729752 -93.40876892 288.00282562 -93.49560547 288.83276367 C-93.61837357 290.02829109 -93.61837357 290.02829109 -93.74362183 291.24797058 C-95.78781554 306.30406998 -106.29567279 321.16305011 -117.65234375 330.7265625 C-135.71545592 344.44932973 -155.97912767 349.27257457 -178.35693359 346.22558594 C-191.17676264 343.8772359 -202.21019198 337.88705046 -212.0546875 329.5390625 C-213.51261719 328.394375 -213.51261719 328.394375 -215 327.2265625 C-218.18729773 324.56145188 -220.6673437 321.48681601 -223.0546875 318.1015625 C-223.48330078 317.49683105 -223.91191406 316.89209961 -224.35351562 316.26904297 C-230.66827484 307.05168515 -236.0546875 295.87211842 -236.0546875 284.5390625 C-236.95711182 284.56000977 -237.85953613 284.58095703 -238.78930664 284.60253906 C-242.164575 284.67105482 -245.53909546 284.72102534 -248.91479492 284.75878906 C-250.37064334 284.77880072 -251.82641244 284.80601927 -253.28198242 284.84082031 C-268.75334533 285.20123576 -268.75334533 285.20123576 -274.0546875 280.5390625 C-277.92581579 274.98529555 -278.64134635 270.95071789 -278.55078125 264.265625 C-278.55223648 263.3836142 -278.55369171 262.50160339 -278.55519104 261.59286499 C-278.55353694 259.7287058 -278.54203063 257.86453226 -278.52124023 256.00048828 C-278.49262459 253.2067353 -278.50057501 250.41492631 -278.51367188 247.62109375 C-278.49743686 233.21503789 -277.18543099 219.15888992 -272.3671875 205.4765625 C-272.11445068 204.74107178 -271.86171387 204.00558105 -271.60131836 203.24780273 C-265.82943255 187.05286614 -256.98566827 172.74639184 -246.0546875 159.5390625 C-245.39210937 158.68699219 -244.72953125 157.83492187 -244.046875 156.95703125 C-242.26158653 154.79018112 -240.50504006 153.03275659 -238.3671875 151.2265625 C-236.24442641 149.42859546 -234.16000275 147.64176122 -232.16796875 145.69921875 C-217.43130156 131.54159546 -197.52531627 122.90682146 -178.0546875 117.5390625 C-178.0546875 113.6115934 -180.84989611 109.99735345 -182.64453125 106.58203125 C-185.52840072 100.35894449 -186.35709113 92.89281179 -184.37109375 86.25390625 C-182.23801879 81.51865686 -179.77006052 78.94486506 -175.0546875 76.5390625 C-171.75205997 75.72580178 -168.67705957 75.41241069 -165.2822113 75.40534973 C-163.88433632 75.39895226 -163.88433632 75.39895226 -162.45822144 75.39242554 C-161.44776764 75.39287872 -160.43731384 75.39333191 -159.39624023 75.39379883 C-158.32238571 75.39044022 -157.24853119 75.3870816 -156.14213562 75.38362122 C-152.59083906 75.37412086 -149.03958973 75.37216825 -145.48828125 75.37109375 C-143.0131071 75.36787945 -140.53793315 75.36451524 -138.0627594 75.36100769 C-132.87020427 75.35501794 -127.67766577 75.35316753 -122.48510742 75.35375977 C-115.85341497 75.35386113 -109.22183022 75.34023488 -102.59016323 75.32298756 C-97.4744061 75.31182823 -92.35867462 75.3098418 -87.24290657 75.31036949 C-84.7994557 75.3091943 -82.35600406 75.3047986 -79.91256523 75.29703712 C-76.48126746 75.28716222 -73.0501985 75.29014527 -69.61889648 75.29614258 C-68.6226123 75.29052307 -67.62632812 75.28490356 -66.59985352 75.27911377 C-51.1411419 75.34724913 -37.38894669 78.7766318 -25.88671875 89.57421875 C-16.98086283 99.04817805 -12.69128611 109.58182373 -12.79327393 122.50402832 C-13.24567144 127.7564025 -15.05276087 132.40844701 -16.921875 137.3046875 C-17.31666046 138.38232361 -17.71144592 139.45995972 -18.11819458 140.57025146 C-19.37215301 143.9829063 -20.65002889 147.38597188 -21.9296875 150.7890625 C-23.19681537 154.20823524 -24.45898586 157.62919905 -25.71975708 161.05072021 C-26.50289254 163.1705598 -27.29064948 165.28869959 -28.08370972 167.40484619 C-33.28427745 181.336709 -36.04981644 195.43056918 -30.37890625 209.796875 C-23.96306602 223.08277423 -15.77796872 230.99828771 -2.0546875 236.5390625 C4.45544431 238.51536064 10.41825518 238.84597148 17.19921875 238.83984375 C18.25890366 238.84412888 19.31858856 238.848414 20.41038513 238.85282898 C22.64003793 238.8585468 24.86970936 238.85909144 27.09936523 238.85473633 C30.50081205 238.85156902 33.90139437 238.87509363 37.30273438 238.90039062 C39.47656141 238.90266321 41.65039077 238.9033673 43.82421875 238.90234375 C45.34010338 238.91615837 45.34010338 238.91615837 46.88661194 238.93025208 C53.77422639 238.88531334 59.06521537 238.29202461 64.24609375 233.33984375 C66.31071236 229.93678273 67.27608227 226.56919641 68.1328125 222.7265625 C68.29716797 222.05302734 68.46152344 221.37949219 68.63085938 220.68554688 C77.76242824 182.0519863 67.17654498 138.96421432 56.01708984 101.92895508 C54.079271 95.49507509 52.28669338 89.12467181 50.9453125 82.5390625 C42.1977232 82.16918557 34.23402983 83.92696971 25.71484375 85.76171875 C11.5804422 88.66832306 11.5804422 88.66832306 4.9453125 87.5390625 C2.49268637 85.65800846 1.98921014 84.6832976 1.0703125 81.6640625 C0.91837287 77.86557181 1.52574107 76.44254821 3.9453125 73.5390625 C7.78295554 71.68162787 11.58931913 70.95107901 15.77734375 70.25 C17.06962891 70.03085938 18.36191406 69.81171875 19.69335938 69.5859375 C21.04815702 69.3618578 22.40297499 69.137901 23.7578125 68.9140625 C25.13224771 68.68280369 26.50659773 68.45103801 27.88085938 68.21875 C31.23487291 67.65386351 34.58966741 67.09416023 37.9453125 66.5390625 C37.9357251 65.44609863 37.9261377 64.35313477 37.91625977 63.22705078 C37.89970337 61.33962158 37.89970337 61.33962158 37.8828125 59.4140625 C37.8737085 58.68558105 37.86460449 57.95709961 37.85522461 57.20654297 C37.84211389 54.08788306 37.95855844 51.49302551 38.82421875 48.484375 C38.95450627 45.31544621 38.69735024 44.31401837 37.05859375 41.6796875 C34.13211988 38.61056174 31.56588075 38.11283938 27.37887573 37.95861816 C23.6236435 37.96268696 19.88311851 38.10656203 16.1328125 38.2890625 C-5.56462361 39.15063563 -5.56462361 39.15063563 -12.9296875 33.2265625 C-17.11015124 27.93950542 -18.47081961 23.78472841 -18.4296875 17.0390625 C-18.43742187 15.770625 -18.44515625 14.5021875 -18.453125 13.1953125 C-18.01707407 9.19390395 -17.31860185 6.86329117 -15.0546875 3.5390625 C-10.04307397 0.32306922 -5.76636674 0.04559878 0 0 Z " fill="#020101" transform="translate(278.0546875,82.4609375)"/>
<path d="M0 0 C5.65069776 -1.00296608 11.46901721 -1.97114812 17 0 C21.94084945 4.35423167 24.36201588 11.10802961 27 17 C29.99467383 23.31610476 29.99467383 23.31610476 34 29 C36.43598679 29.72615204 38.3952786 29.75546027 40.92578125 29.6953125 C43 30 43 30 44.54296875 31.5546875 C45.83039147 33.65417686 46.91955249 35.78784286 48 38 C48.81033184 39.23059711 49.62267825 40.4598712 50.4375 41.6875 C52 45 52 45 51.25 47.5 C50.8375 48.325 50.425 49.15 50 50 C49.55050828 55.38308404 50.34271033 58.42444268 53.1328125 63.01171875 C53.77347656 64.09904297 54.41414063 65.18636719 55.07421875 66.30664062 C56.44870409 68.57257789 57.8237096 70.83819971 59.19921875 73.10351562 C59.83730469 74.18697266 60.47539062 75.27042969 61.1328125 76.38671875 C62.02830811 77.85951294 62.02830811 77.85951294 62.94189453 79.36206055 C64 82 64 82 63.30395508 84.20898438 C61.5629928 86.60024055 59.61144737 88.67831642 57.5625 90.8125 C33.21154141 116.97849241 18.6175329 150.30272227 17 186 C13.68862155 186.99431503 10.69203816 187.12336827 7.24200439 187.12025452 C6.06693832 187.12162918 4.89187225 187.12300385 3.68119812 187.12442017 C1.75314079 187.11902725 1.75314079 187.11902725 -0.21386719 187.11352539 C-1.58389789 187.11324325 -2.95392874 187.11340177 -4.32395935 187.1139679 C-8.04055935 187.11425484 -11.75712709 187.10837472 -15.4737196 187.10139394 C-19.3588005 187.09514329 -23.24388213 187.09455524 -27.12896729 187.09336853 C-34.48473762 187.09026027 -41.84049309 187.08205367 -49.19625688 187.07201904 C-57.5710371 187.06084224 -65.94581803 187.0553435 -74.32060385 187.05032361 C-91.54707783 187.03987065 -108.77353734 187.02228096 -126 187 C-126.02211044 186.28227921 -126.04422089 185.56455841 -126.06700134 184.8250885 C-126.17201754 181.54068823 -126.28709967 178.25671291 -126.40234375 174.97265625 C-126.45424866 173.27913025 -126.45424866 173.27913025 -126.50720215 171.5513916 C-127.27465118 150.42147569 -136.78141584 131.08110361 -151.77734375 116.25390625 C-165.39017585 104.24903284 -183.61154441 95.40742516 -202 95 C-203.25425781 94.94972656 -204.50851563 94.89945312 -205.80078125 94.84765625 C-212.81419235 94.38731475 -212.81419235 94.38731475 -219.4296875 96.22265625 C-221.45221263 98.5118327 -221.42448201 99.6776853 -221.25 102.6875 C-221.21390625 103.49574219 -221.1778125 104.30398438 -221.140625 105.13671875 C-221.09421875 105.75160156 -221.0478125 106.36648438 -221 107 C-218.34468614 107.88510462 -216.70253234 108.14282339 -213.97265625 108.2109375 C-193.03125281 108.90619467 -172.71810743 113.99749576 -157.8359375 129.8515625 C-142.8680136 147.36721813 -140 164.01116528 -140 187 C-202.7 187 -265.4 187 -330 187 C-330 164.57812595 -323.0938621 146.66076003 -307.625 130.25 C-292.16928339 115.66258208 -272.8231261 108.62050761 -251.85058594 108.41455078 C-247.69333063 108.37071774 -247.69333063 108.37071774 -244.00390625 106.66015625 C-242.45251823 104.09463132 -242.75592588 101.92888944 -243 99 C-243.33 98.01 -243.66 97.02 -244 96 C-257.08902264 90.88848552 -276.69803878 96.48976717 -288.91162109 101.83691406 C-297.86933787 105.88538131 -305.6201102 110.42494107 -313 117 C-314.29119054 118.08390077 -315.582815 119.16728499 -316.875 120.25 C-319.35913683 122.39939499 -321.72173199 124.63060127 -324 127 C-315.5475693 98.16229526 -294.3887032 75.44730548 -268.8125 60.5625 C-257.39982177 54.33388578 -245.59572368 50.84239782 -233 48 C-232.21557683 47.8210447 -231.43115366 47.64208941 -230.62296009 47.45771122 C-227.86008562 46.97558469 -225.30515968 46.87701542 -222.50138855 46.87974548 C-221.40908936 46.87837082 -220.31679016 46.87699615 -219.19139099 46.87557983 C-218.0031221 46.87917511 -216.81485321 46.88277039 -215.59057617 46.88647461 C-213.70216507 46.88625557 -213.70216507 46.88625557 -211.77560425 46.8860321 C-208.33178094 46.88574564 -204.88799259 46.89161799 -201.44417739 46.89860606 C-197.84204394 46.90486471 -194.23990965 46.90544539 -190.63777161 46.90663147 C-183.8203567 46.90973738 -177.00295787 46.9179408 -170.18555003 46.92798096 C-162.42258522 46.93916508 -154.65961963 46.94465834 -146.89664876 46.94967639 C-130.93108988 46.96012402 -114.96554701 46.97770914 -99 47 C-99.30123422 48.41212772 -99.60600866 49.82350045 -99.91221619 51.23455811 C-100.08154632 52.02059795 -100.25087645 52.8066378 -100.42533779 53.61649704 C-101.3321343 57.37757988 -102.65183219 60.95801764 -104.00390625 64.578125 C-104.28725327 65.35258972 -104.57060028 66.12705444 -104.86253357 66.92498779 C-105.75716853 69.36866562 -106.65916672 71.8095256 -107.5625 74.25 C-108.46866511 76.70501077 -109.37309882 79.16060999 -110.2731781 81.61785889 C-110.830387 83.13847154 -111.39113255 84.65779439 -111.95594788 86.17559814 C-117.78601141 102.05980529 -116.63105008 121.0513564 -109.68994141 136.34863281 C-106.74943682 142.51109263 -103.30134239 147.48517238 -98.50390625 152.328125 C-97 154 -97 154 -97 156 C-96.42378906 156.27199219 -95.84757813 156.54398438 -95.25390625 156.82421875 C-92.99507747 158.0025679 -91.01498279 159.34078789 -88.9375 160.8125 C-77.12142756 168.76114083 -65.99138863 171.30595802 -51.953125 171.40625 C-50.70553406 171.41765015 -49.45794312 171.42905029 -48.17254639 171.4407959 C-45.5401953 171.45963042 -42.90779774 171.47273775 -40.27539062 171.48046875 C-37.59840381 171.4892399 -34.9227058 171.51704224 -32.24609375 171.5625 C-28.356379 171.6238157 -24.46827084 171.64460417 -20.578125 171.65625 C-19.39647766 171.6809436 -18.21483032 171.70563721 -16.99737549 171.7310791 C-7.87880417 171.68283526 0.1845883 169.43641228 7.03875732 163.1217041 C8.5281575 161.47545902 9.78474084 159.85698017 11 158 C11.48984375 157.30132812 11.9796875 156.60265625 12.484375 155.8828125 C25.65542345 130.83066365 21.40454297 89.47375487 15.60742188 62.80224609 C14.95868613 59.8094049 14.37433429 56.80814813 13.796875 53.80078125 C10.68417628 37.87626917 6.51532334 22.37806567 1.5234375 6.94726562 C0 2.20495212 0 2.20495212 0 0 Z " fill="#F7634A" transform="translate(345,165)"/>
<path d="M0 0 C2 4 2 4 2 6 C4.65531386 6.88510462 6.29746766 7.14282339 9.02734375 7.2109375 C29.96874719 7.90619467 50.28189257 12.99749576 65.1640625 28.8515625 C80.1319864 46.36721813 83 63.01116528 83 86 C20.3 86 -42.4 86 -107 86 C-107 63.57812595 -100.0938621 45.66076003 -84.625 29.25 C-69.16928339 14.66258208 -49.8231261 7.62050761 -28.85058594 7.41455078 C-24.71007456 7.38169007 -24.71007456 7.38169007 -21.05078125 5.66015625 C-19.8216791 3.86531728 -19.8216791 3.86531728 -19 1 C-12.73 0.67 -6.46 0.34 0 0 Z " fill="#F8462F" transform="translate(122,266)"/>
<path d="M0 0 C13.01053085 8.59718931 22.95083515 21.45583121 26.50390625 36.80029297 C29.21793435 52.01369265 26.22195379 68.02612711 17.98046875 81.0546875 C7.99464645 94.58566233 -4.64347984 102.70285284 -21.08642578 105.609375 C-37.0482026 107.907687 -51.83423971 104.18725135 -64.74609375 94.65234375 C-75.7970856 85.54352973 -84.98387339 72.62010067 -86.93359375 58.0703125 C-86.99546875 57.35488281 -87.05734375 56.63945312 -87.12109375 55.90234375 C-87.22421875 55.19722656 -87.32734375 54.49210937 -87.43359375 53.765625 C-87.81045915 49.6436597 -87.2459595 48.0553043 -84.62109375 44.83984375 C-83.80705078 44.00839844 -83.80705078 44.00839844 -82.9765625 43.16015625 C-80.00124301 39.53966221 -78.04199237 35.39539249 -75.92578125 31.23217773 C-72.5276481 24.58005916 -72.5276481 24.58005916 -70.12109375 21.90234375 C-69.46109375 21.90234375 -68.80109375 21.90234375 -68.12109375 21.90234375 C-67.14804931 24.49712893 -66.85143782 26.24021829 -67.91015625 28.83984375 C-68.61932445 30.18675313 -69.35291201 31.52116144 -70.11328125 32.83984375 C-74.34784944 41.50593678 -73.51512899 56.18306345 -70.49609375 65.08984375 C-65.76555547 75.77064098 -57.58104808 84.27368771 -46.80859375 88.83984375 C-35.77996345 93.09271426 -24.9792095 93.3173361 -13.8125 89.109375 C-9.96732856 87.38490769 -6.53429787 85.36432705 -3.12109375 82.90234375 C-2.25484375 82.32484375 -1.38859375 81.74734375 -0.49609375 81.15234375 C6.84215756 74.20031619 12.40498129 63.41901403 13.046875 53.23828125 C13.13413815 40.00918723 10.22651846 31.30573437 3.12890625 20.15234375 C-4.5844151 12.4390224 -14.23708166 6.60433353 -25.2734375 6.2734375 C-27.12109375 5.90234375 -27.12109375 5.90234375 -29.12109375 2.90234375 C-29.12109375 1.91234375 -29.12109375 0.92234375 -29.12109375 -0.09765625 C-26.74844314 -0.77383149 -24.3735402 -1.43873851 -21.99609375 -2.09765625 C-21.3309375 -2.2884375 -20.66578125 -2.47921875 -19.98046875 -2.67578125 C-11.70250394 -4.94816375 -7.29982987 -4.22099006 0 0 Z " fill="#29384A" transform="translate(470.12109375,308.09765625)"/>
<path d="M0 0 C15.08212954 -0.09365667 30.16423645 -0.16408333 45.24659538 -0.20724869 C52.25043362 -0.22782852 59.25409063 -0.25586069 66.2578125 -0.30175781 C73.02053665 -0.34605429 79.78307264 -0.36915793 86.54593277 -0.37950897 C89.12224409 -0.38688285 91.69854546 -0.40128225 94.27477646 -0.42292023 C97.89157864 -0.45208179 101.50761033 -0.45595051 105.12451172 -0.45410156 C106.18259537 -0.46848267 107.24067902 -0.48286377 108.33082581 -0.49768066 C118.16927687 -0.44348499 126.04253991 2.28941004 133.2421875 9.06640625 C137.05233106 13.25756417 139.70184469 17.4876678 141 23 C124.72716399 23.14039112 108.45452553 23.24607856 92.18122959 23.31087303 C84.62460096 23.34176293 77.06834942 23.38384915 69.51196289 23.45263672 C62.92295553 23.51258922 56.33422136 23.55118452 49.7449488 23.56453097 C46.25837392 23.57232834 42.77258033 23.59054895 39.28625679 23.63438034 C35.38673798 23.6830053 31.48797156 23.6839297 27.58813477 23.68115234 C25.86938141 23.71350983 25.86938141 23.71350983 24.11590576 23.746521 C16.53981522 23.68826061 11.68873004 22.09957523 6 17 C1.71970426 11.7319437 -0.1365593 6.74830557 0 0 Z " fill="#1684B7" transform="translate(108,174)"/>
<path d="M0 0 C0.66821777 0.02102783 1.33643555 0.04205566 2.02490234 0.0637207 C7.1617318 0.27977886 11.86594205 0.85662946 16.75 2.4375 C17.74386719 2.74429687 18.73773438 3.05109375 19.76171875 3.3671875 C32.87191218 7.86654383 45.40777263 16.75304527 51.75 29.4375 C51.75 30.0975 51.75 30.7575 51.75 31.4375 C51.11723145 31.47713867 50.48446289 31.51677734 49.83251953 31.55761719 C16.88745465 33.71462813 -16.23170748 41.26837525 -40.16796875 65.8515625 C-43.99192178 70.6010126 -46.61495148 75.95558234 -49.25 81.4375 C-49.58 81.4375 -49.91 81.4375 -50.25 81.4375 C-50.13634009 52.45422188 -30.78494089 26.13627424 -12.25 5.4375 C-11.46753906 4.4990625 -10.68507813 3.560625 -9.87890625 2.59375 C-6.42173119 -0.24185273 -4.42094009 -0.14099706 0 0 Z " fill="#F5452F" transform="translate(428.25,256.5625)"/>
<path d="M0 0 C14.58339037 4.86113012 25.42164444 16.64599842 32.3659668 30.10864258 C38.83411126 43.5445515 39 55.71719743 39 71 C26.13 71 13.26 71 0 71 C0 47.57 0 24.14 0 0 Z " fill="#E83225" transform="translate(166,281)"/>
<path d="M0 0 C4.29 0 8.58 0 13 0 C13.32871094 0.89460938 13.65742187 1.78921875 13.99609375 2.7109375 C18.85923284 15.07306343 25.65989169 24.28729679 38.03125 29.92578125 C48.33945184 34.10853238 60.26958458 34.68050551 70.75 30.9375 C82.80994773 25.75026947 90.86421508 17.51674981 95.9375 5.4375 C96.618125 3.643125 97.29875 1.84875 98 0 C102.29 0 106.58 0 111 0 C111 12.04997244 103.58050302 23.39399687 95.41796875 31.8515625 C83.0546096 42.83677661 68.77607366 47.57644514 52.39453125 47.24609375 C34.26040342 45.93142165 22.34977158 38.06536055 10.1875 25.0625 C4.25409842 18.0515703 0 9.21493459 0 0 Z " fill="#29384A" transform="translate(58,367)"/>
<path d="M0 0 C0.66 0 1.32 0 2 0 C2.97304444 2.59478518 3.26965593 4.33787454 2.2109375 6.9375 C1.5017693 8.28440938 0.76818174 9.61881769 0.0078125 10.9375 C-4.22675569 19.60359303 -3.39403524 34.2807197 -0.375 43.1875 C4.24275094 53.61364151 12.3195751 62.18268484 22.75 66.875 C29.01677242 69.27349408 35.35193433 70.28158 42 71 C40.37258353 72.72913 38.72725313 74.37336356 37 76 C36.40703125 76.56203125 35.8140625 77.1240625 35.203125 77.703125 C31.77676606 80.63608825 29.24924229 82.48979146 24.625 82.1875 C11.93849369 79.68071611 0.37957781 70.32271003 -7 60 C-11.87382651 51.94740153 -16.17937225 43.48850832 -17 34 C-17.103125 33.29488281 -17.20625 32.58976562 -17.3125 31.86328125 C-17.6893654 27.74131595 -17.12486575 26.15296055 -14.5 22.9375 C-13.95730469 22.38320313 -13.41460937 21.82890625 -12.85546875 21.2578125 C-9.88014926 17.63731846 -7.92089862 13.49304874 -5.8046875 9.32983398 C-2.40655435 2.67771541 -2.40655435 2.67771541 0 0 Z " fill="#33465A" transform="translate(400,330)"/>
<path d="M0 0 C7.58504247 4.44989158 12.90351584 9.0446738 16.375 17.25 C18.19567537 28.17405219 17.1464636 36.65584457 10.84375 45.81640625 C6.10044341 51.43400876 -0.8803404 55.52213961 -8.19921875 56.37109375 C-17.91826879 56.55611486 -24.3526995 54.92438709 -31.8125 48.625 C-39.43568676 39.47717589 -41.35051799 33.03445108 -41 21 C-40.34 21 -39.68 21 -39 21 C-38.48050781 22.02480469 -37.96101563 23.04960937 -37.42578125 24.10546875 C-36.72185004 25.46640243 -36.01739502 26.82706527 -35.3125 28.1875 C-34.97283203 28.86103516 -34.63316406 29.53457031 -34.28320312 30.22851562 C-31.11147997 36.30518149 -27.29189751 40.94475387 -21 44 C-13.41957063 45.74856562 -6.88736127 45.61644364 -0.09765625 41.6640625 C4.97002826 37.6438882 7.48571918 32.33344823 8.23828125 25.9921875 C8.55972962 16.82244975 4.50110553 9.71618091 0 2 C0 1.34 0 0.68 0 0 Z " fill="#C3D5E2" transform="translate(452,330)"/>
<path d="M0 0 C4.29 0 8.58 0 13 0 C13.32871094 0.89460938 13.65742187 1.78921875 13.99609375 2.7109375 C18.88177894 15.13037574 25.62929864 23.92592294 37.8203125 29.890625 C43.91904008 32.49342924 50.47065007 33.15397143 57 34 C55.37258353 35.72913 53.72725313 37.37336356 52 39 C51.11054687 39.84304688 51.11054687 39.84304688 50.203125 40.703125 C46.82236152 43.59705854 44.25348762 45.49504406 39.6875 45.25 C26.43608556 42.60882461 14.73548996 31.6362987 7 21 C3.0656315 14.27181131 0 7.88347951 0 0 Z " fill="#34475B" transform="translate(58,367)"/>
<path d="M0 0 C12.32747615 -0.48343044 22.27189704 -0.8604316 32.3125 7.25 C37.1329159 11.78743602 40.39215297 16.56861188 42 23 C1.41 23 -39.18 23 -81 23 C-81 22.67 -81 22.34 -81 22 C-52.95 22 -24.9 22 4 22 C2.4777095 10.7986598 2.4777095 10.7986598 0 0 Z " fill="#0A718E" transform="translate(207,174)"/>
<path d="M0 0 C18.15 0 36.3 0 55 0 C50.8058133 8.38837341 46.60525147 14.56590025 37.625 18 C29.46557282 20.18911461 20.54690088 20.00803439 13 16 C6.30305237 11.2937444 3.79955352 7.59910703 0 0 Z " fill="#C8DBE7" transform="translate(86,367)"/>
<path d="M0 0 C0.43344727 0.84183838 0.86689453 1.68367676 1.31347656 2.55102539 C2.93740641 5.70319386 4.56272674 8.85463741 6.18896484 12.00561523 C6.8897104 13.36405549 7.58991632 14.72277427 8.28955078 16.08178711 C9.30095565 18.04616333 10.31436029 20.00949705 11.328125 21.97265625 C11.78931732 22.86997215 11.78931732 22.86997215 12.25982666 23.78541565 C13.82618914 26.81400564 15.45539212 29.77983504 17.19824219 32.70874023 C19.29920636 36.5465584 19.65061468 38.68967772 19 43 C17.375 45.4375 17.375 45.4375 15 47 C12.0625 47.5625 12.0625 47.5625 9 47 C4.08536135 43.00233157 1.8003656 38.15464173 -0.875 32.5 C-1.74149354 30.70736714 -2.60998924 28.91570071 -3.48046875 27.125 C-3.90376465 26.25230469 -4.32706055 25.37960937 -4.76318359 24.48046875 C-6.96631523 20.06202867 -9.43197717 15.79615654 -11.91796875 11.53125 C-13 9 -13 9 -12.94921875 6.828125 C-11.63883274 4.3044186 -10.12545606 3.56091871 -7.625 2.25 C-6.83351563 1.82203125 -6.04203125 1.3940625 -5.2265625 0.953125 C-3 0 -3 0 0 0 Z " fill="#CBCCCD" transform="translate(427,314)"/>
<path d="M0 0 C0 7.59 0 15.18 0 23 C-10.89 23 -21.78 23 -33 23 C-33 18.05 -33 13.1 -33 8 C-31.07414062 7.50628906 -29.14828125 7.01257813 -27.1640625 6.50390625 C-25.3007393 6.02417005 -23.43742016 5.54441797 -21.57421875 5.06420898 C-19.64102868 4.56662562 -17.70723512 4.07138881 -15.7734375 3.57617188 C-14.56171875 3.26357422 -13.35 2.95097656 -12.1015625 2.62890625 C-10.42054443 2.1968689 -10.42054443 2.1968689 -8.70556641 1.75610352 C-2.42169842 0 -2.42169842 0 0 0 Z " fill="#F5462F" transform="translate(365,127)"/>
<path d="M0 0 C0 9.9 0 19.8 0 30 C-3.96 30 -7.92 30 -12 30 C-12 21.09 -12 12.18 -12 3 C-1 0 -1 0 0 0 Z " fill="#E1EEF9" transform="translate(392,120)"/>
<path d="M0 0 C4.56216465 -0.14532035 9.12373362 -0.23408477 13.6875 -0.3125 C15.62786133 -0.3753418 15.62786133 -0.3753418 17.60742188 -0.43945312 C19.47817383 -0.46362305 19.47817383 -0.46362305 21.38671875 -0.48828125 C23.10701294 -0.52755737 23.10701294 -0.52755737 24.86206055 -0.56762695 C28.95021363 0.17188568 30.43536798 1.81123851 33 5 C33 5.66 33 6.32 33 7 C22.44 7 11.88 7 1 7 C0.67 4.69 0.34 2.38 0 0 Z " fill="#12729F" transform="translate(275,98)"/>
</svg>
