<?xml version="1.0" encoding="UTF-8"?>
<svg version="1.1" viewBox="0 0 1684 2048" width="1280" height="1280" xmlns="http://www.w3.org/2000/svg">
<path transform="translate(0,13)" d="m0 0h329v97h-231v1490h1488v-1490h-231v-97h328l1 1v1683h-1684z" fill="#025B4B"/>
<path transform="translate(1360,379)" d="m0 0h2l13 18 16 24 13 22 13 24 13 26 14 32 12 30 13 36 13 40 11 40 9 39 7 37 6 43 4 45 1 21v247h-1081l-31-3-30-5-24-6-27-9-25-11-18-10-12-8-12-9-11-9-22-22-13-17-10-15-14-27-9-23-7-25-5-24-4-31-1-14v-50l3-30 6-35 10-40 11-35 12-33 12-29 12-26 14-28 14-24 14-22 12-16 11-14 9-10 7-8 15-15 11-9 9-7 4-1h47l-2 6-12 19-19 32-14 25-15 29-13 28-12 29-10 28-7 25-5 24-2 16v35l3 22 6 21 7 16 8 14 9 11 9 10 13 11 19 12 21 10 27 9 21 5 24 4 34 3 892 1-2-27-5-26-6-20-10-25-14-28-12-19-14-20-13-18-16-21-12-16-1-2 22-64 34-98 18-52 11-31z" fill="#197565"/>
<path transform="translate(1355,13)" d="m0 0h328l1 1v1683h-1l-1-428-1-14-1-4-41-1-3-2-1 399-4-2-45-45v-1490h-231z" fill="#29917E"/>
<path transform="translate(0,13)" d="m0 0h329v97h-231v1490l-48 48h-1l-1-270-1-128-43 1-2 2-1 49h-1z" fill="#29917E"/>
<path transform="translate(484,965)" d="m0 0 800 1 8 15 7 14 10 19 18 35 10 19 14 27 1 5-3 3h-784l-7-1-8-5-8-16-12-23-17-33-10-19-12-23-8-16z" fill="#024A3D"/>
<path transform="translate(350,403)" d="m0 0h47l-2 6-12 19-19 32-14 25-15 29-13 28-12 29-10 28-7 25-5 24-2 16v35l3 22 6 21 7 16 8 14 9 11 8 9 1 6-4 17-14 52-9 33 13 10 19 12 27 14 26 10 24 7 28 6 30 4 13 1 3 2 3 7 13 25 7 14 10 19 18 35 10 19 7 13 6 3 7 1v1h-126l-31-3-30-5-24-6-27-9-25-11-18-10-12-8-12-9-11-9-22-22-13-17-10-15-14-27-9-23-7-25-5-24-4-31-1-14v-50l3-30 6-35 10-40 11-35 12-33 12-29 12-26 14-28 14-24 14-22 12-16 11-14 9-10 7-8 15-15 11-9 9-7z" fill="#197565"/>
<path transform="translate(327,793)" d="m0 0 6 4 11 9 18 11 19 9 27 9 21 5 24 4 34 3 892 1v1l-510 1-13 2-4 1-2 11-10 37-9 34-6 22v7l-4 1-269 1h-62l-39-4-28-5-24-6-27-9-20-9-21-11-21-14-10-8 15-56 11-40z" fill="#4EC3AD"/>
<path transform="translate(40,1661)" d="m0 0h1603l7 3 10 9 23 23v1h-1682l6-7 26-26z" fill="#024A3D"/>
<path transform="translate(722,1807)" d="m0 0h240v241h-240z" fill="#024A3D"/>
<path transform="translate(321,1600)" d="m0 0h1101l3 2 1 3v38l1 4 2 1h-1120l4-1 1-3 1-43z" fill="#4FC4AE"/>
<path transform="translate(1355,13)" d="m0 0h328l-6 7-41 41-1 305-1 203-1-2h-43l-2-1-1-5-1-283v-168h-231z" fill="#0E6958"/>
<path transform="translate(0,13)" d="m0 0h329v97h-1v-48h-279v457l-1 180-1-2h-44l-1 4h-2z" fill="#4FC4AE"/>
<path transform="translate(858,1203)" d="m0 0 4 2 149 149-6 7-99 99-6 7-5 4-7 8-20 20-5 4-3 4-4-2-62-62v-2l-4-2-10-10-4-5-69-69 6-7z" fill="#187464"/>
<path transform="translate(869,849)" d="m0 0h367v1l-7 1-3 3-28 104v7l-175 1h-471v-1l273-1-1-7 8-29 17-64 3-11 7-3z" fill="#29917E"/>
<path transform="translate(1236,849)" d="m0 0h143l1 1 2 13 12 23 10 19 12 23 10 19 15 29 8 16 8 14 8 16 10 19 8 16 18 35 3 5-2 5-4 1h-149l2-1-1-7-9-17-8-16-10-19-21-41-10-18-8-16v-2h-261v-1h175l-1-7 15-56 13-48 4-4z" fill="#025B4B"/>
<path transform="translate(49,62)" d="m0 0h279v48h-230v204l-1 246-1 6-2 1h-45z" fill="#025B4B"/>
<path transform="translate(1682,14)" d="m0 0h2v1683h-1l-1-967-1-25-2-8h-43l-1-13v-623z" fill="#50C4AE"/>
<path transform="translate(97,314)" d="m0 0h1v1286l-48 48h-1v-597h44l2-7 1-16z" fill="#4FC4AE"/>
<path transform="translate(1586,867)" d="m0 0h1l1 163 1 15 2 6 39-1 4-1 1 358v240l-4-2-45-45z" fill="#4FC4AE"/>
<path transform="translate(1361,380)" d="m0 0 5 5 10 13 15 23 13 22 13 24 13 26 14 32 12 30 13 36 13 40 11 40 9 39 7 37 6 43 4 45 1 21v236l-2-1-8-77-8-67-9-64-9-52-10-48-11-43-12-38-12-31-12-26-9-17-12-19-15-20-1-61-3-31-6-37-5-24-4-15-5-20-6-19z" fill="#024B3E"/>
<path transform="translate(708,1355)" d="m0 0h302l-6 7-98 98-6 7-5 4-7 8-20 20-5 4-3 4-4-2-62-62v-2l-4-2-10-10-4-5-68-68z" fill="#024A3D"/>
<path transform="translate(1355,62)" d="m0 0h279v227h-1v-7l-3-1-39-1-3-2-1-8v-160h-232z" fill="#025B4B"/>
<path transform="translate(0,13)" d="m0 0h329v97h-1v-48h-280l-48-48z" fill="#4EC3AD"/>
<path transform="translate(484,965)" d="m0 0 109 1-2 4 8 15 12 23 8 16 12 23 10 19 8 15 8 16v2l11 3v1h-103l-7-1-8-5-8-16-12-23-17-33-10-19-12-23-8-16z" fill="#025B4B"/>
<path transform="translate(722,1807)" d="m0 0h240l-6 7-77 77-8 7-25 25-2 3-5-1-117-117z" fill="#29917E"/>
<path transform="translate(961,1808)" d="m0 0h1v240l-84-84-8-7-2-4h-2l-7-8-18-18 36-36 8-7z" fill="#187565"/>
<path transform="translate(373,943)" d="m0 0 7 1 26 8 27 6 26 4 22 2 3 2 3 7 13 25 7 14 10 19 18 35 10 19 7 13 6 3 7 1v1h-96l-11-1-2-4h-2l-10-19-8-16-18-35-10-19-13-25-10-19-9-17z" fill="#0E6958"/>
<path transform="translate(97,110)" d="m0 0h1v204l-1 246-1 6-2 1h-45v-287h44l3-12z" fill="#197565"/>
<path transform="translate(169,1600)" d="m0 0h152v1l-5 1-1 42-2 3h1114l-2-4v-39l-3-4h117l1 3 1 45-86 1h-1177l-111-1 1-45z" fill="#29917E"/>
<path transform="translate(1381,863)" d="m0 0 3 3 8 16 13 25 10 19 12 23 14 27 8 16 8 14 8 16 10 19 8 16 18 35 3 5-2 5-4 1h-74v-1h5v-6l-13-25-10-19-12-23-17-33-10-19-7-13v-5l8-10 5-10 5-17 2-13 1-14z" fill="#0E6958"/>
<path transform="translate(1236,849)" d="m0 0h105l-2 1-3 11-7 26-6 23-4 14-8 31-3 7-4 3-9 1h-272v-1h175l-1-7 15-56 13-48 4-4z" fill="#0E6958"/>
<path transform="translate(1361,380)" d="m0 0 5 5 10 13 15 23 13 22 13 24 13 26 14 32 12 30 13 36 13 40 3 10-1 4-1-6-6-1-43 14-3 1-13-25-12-19-15-20-1-61-3-31-6-37-5-24-4-15-5-20-6-19z" fill="#025B4B"/>
<path transform="translate(300,449)" d="m0 0h1v7l-12 44-11 42-25 93-22 82-14 52-3 3-5-15-6-30-3-30v-43l3-30 2-9 13-32 12-26 14-28 14-24 14-22 12-16 11-14z" fill="#025B4B"/>
<path transform="translate(856,1942)" d="m0 0 7 6 3 3v2h2l7 8 10 9 76 76v2h-239v-99l1 2 3 1 85 1v5l-12 13-75 75h128l1-2 1-98z" fill="#025B4B"/>
<path transform="translate(858,1203)" d="m0 0h1v151h-71l-2-6-34-34-1-4z" fill="#4EC3AD"/>
<path transform="translate(1102,2)" d="m0 0h36l19 45 14 34 1-19 1-39 1-21h27v17l-3 65-1 29-1 15h-35l-13-29-14-32-6-15-1 4-1 27-1 44-1 1h-27l1-23z" fill="#035C4C"/>
<path transform="translate(47,1249)" d="m0 0h1l1 129v270h-1l-1-216-3 2-39 1-3 5-1 42h-1v-180l1-49 3-3z" fill="#197565"/>
<path transform="translate(284,677)" d="m0 0h1l1 22 3 22 6 21 7 16 8 14 9 11 8 9 1 6-4 17-14 52-9 32-2 1-11-9-21-21-11-14-10-14-3-5 2-11 20-75 11-40 5-19 1-2z" fill="#29917E"/>
<path transform="translate(1360,379)" d="m0 0 2 1 3 12 4 14 5 19 5 20 7 38 4 32 1 13v41l-2 1-56-19-23-8h-5l-2 1 3-10 16-47 15-43 19-55z" fill="#4EC3AD"/>
<path transform="translate(1635,1232)" d="m0 0h1v16l3 1 41 1 2 5 1 14v187h-1l-3-22h-40l-3-2-1-10z" fill="#197565"/>
<path transform="translate(379,2)" d="m0 0h63l10 4 6 7 3 7 1 5v15l-3 10-4 6-7 6-2 1 8 5 5 6 3 7 1 6v12l-3 11-4 7-5 5-7 4-4 1-13 1h-51l-1-2 2-35zm28 25v24h18l5-3 3-5v-9l-3-5-3-2zm-1 49-1 7v20h17l7-2 4-5 1-3v-9l-3-5-5-3z" fill="#035C4C"/>
<path transform="translate(786,2)" d="m0 0h63l8 3 6 5 4 8 2 10v8l-2 11-5 9-7 6-2 1 9 6 6 10 1 4v20l-4 11-7 8-8 4-3 1-13 1h-52l2-48zm28 25-1 14v10h19l5-3 2-3 1-9-3-7-4-2zm-2 49-1 26 1 1h17l8-3 3-5 1-9-3-7-5-3z" fill="#035C4C"/>
<path transform="translate(1355,13)" d="m0 0h210v1l-34 1-1 45-5 1-80 1h-90z" fill="#4EC3AD"/>
<path transform="translate(678,2)" d="m0 0h30v12l-2 39v34l3 8 4 4 6 2 9-1 5-4 4-9 2-17 3-67 1-1h30l1 2-4 83-2 14-4 10-7 8-5 4-8 4-12 3h-23l-14-4-9-6-8-9-3-9-1-6v-16l2-39 1-30z" fill="#035C4C"/>
<path transform="translate(1262)" d="m0 0h18l19 3 5 2 1 7v23l-15-5-12-2-11 1-10 4-8 7-6 11-3 15v10l2 10 4 8 7 6 6 2h12l7-1v-9l1-11h-13l1-26h41v13l-2 52-2 6-15 3-8 1h-27l-13-3-12-6-8-8-5-8-5-15-2-13v-17l4-18 5-12 7-11 7-7 11-7 12-4z" fill="#035C4C"/>
<path transform="translate(511,2)" d="m0 0h36l3 9 12 45 17 60 3 12h-32l-9-35-35-1-3 10-9 26h-33l3-9 14-34 27-68 5-14zm16 29-9 24-3 10h21l-4-18-4-16z" fill="#035C4C"/>
<path transform="translate(1587,395)" d="m0 0 2 4 2 7h39l3 2 1 8v153l-1-2h-43l-2-1-1-5z" fill="#197565"/>
<path transform="translate(885,2)" d="m0 0h77v24l-1 4h-47v21l39-1v17l-1 11-40 1v10l-1 12 48-1-1 27-1 1h-77v-12l2-33 1-30 1-50z" fill="#035D4D"/>
<path transform="translate(327,421)" d="m0 0 2 4-13 48-10 38-13 48-12 44-11 42-15 56-10 37-13 48-4 14-1 2-3-1-9-23-1-6 3-7 25-93 44-164 14-52v-6l-2 1 2-4 13-12z" fill="#0E6958"/>
<path transform="translate(788,1807)" d="m0 0h174l-6 7-77 77-8 7-26 26h-1v-112h-2v-3l-54-1z" fill="#4FC4AE"/>
<path transform="translate(47,1422)" d="m0 0h1v146l-1 8-3 2h-43v80h-1v-176l1-42 3-5 1-1 39-1 3-1z" fill="#0E6958"/>
<path transform="translate(1635,1422)" d="m0 0h1v10l3 1 40 1 3 13 1 9v137l-2-3-1-9-1-3h-40l-4-2z" fill="#0E6958"/>
<path transform="translate(1236,849)" d="m0 0h61l-4 1-1 2v-2h-3l-1 3-1-3-5 4-7 26-11 40-8 31-3 12v2h-55l-1-7 15-56 13-48 4-4z" fill="#197565"/>
<path transform="translate(0,13)" d="m0 0h165v1l-5 1-1 2-2-1-1 2-2-1 1 43 84 1v1h-191l-48-48z" fill="#29917E"/>
<path transform="translate(1565,13)" d="m0 0h118l-6 7-42 42h-190v-1l84-1 1-43 1-2 3-1z" fill="#28907D"/>
<path transform="translate(97,110)" d="m0 0h1v204l-1 81-2 8-2 3h-44v-126h44l3-12z" fill="#0E6A59"/>
<path transform="translate(961,1808)" d="m0 0h1v69l-1 35-4 3h-97l-3-2 44-44 7-8z" fill="#0E6958"/>
<path transform="translate(583,2)" d="m0 0h89l-1 28h-30v16l-3 82h-30v-15l2-40 1-43-29 1v-28z" fill="#035D4D"/>
<path transform="translate(976,2)" d="m0 0h30l1 3-3 63-1 32h43l-1 25-1 3h-74l2-34 2-48 1-43z" fill="#035D4D"/>
<path transform="translate(1102,2)" d="m0 0h36l19 45 6 14v2l-30 1-5-12-1 4-1 27-1 44-1 1h-27l1-23z" fill="#29917E"/>
<path transform="translate(97,1600)" d="m0 0h72l-1 46-1 2h111v1h-172l-23-1-2-3-1-24-1-3z" fill="#197565"/>
<path transform="translate(1305,542)" d="m0 0 8 1 65 22 12 4h1v17l-1 2-27 1-20 3-21 6-18 8-14 8-11 8h-2l-1 3-1-2 21-61 6-17z" fill="#29917E"/>
<path transform="translate(961,1935)" d="m0 0h1v113l-85-85v-2l3-1 77-1 3-2z" fill="#29917E"/>
<path transform="translate(1056,2)" d="m0 0h31l-2 52-2 74h-31v-17l2-44z" fill="#035C4C"/>
<path transform="translate(774,1422)" d="m0 0 81 1 4 3 1 81-4-2-62-62v-2l-4-2-10-10-4-5z" fill="#035D4D"/>
<path transform="translate(859,1355)" d="m0 0h151l-6 7-20 20-3-2-118-1-4-4z" fill="#025B4B"/>
<path transform="translate(1539,1600)" d="m0 0h48l23 23-1 22-2 3-22 1h-130v-1h86l-1-3z" fill="#197565"/>
<path transform="translate(583,2)" d="m0 0h89l-1 28h-30v6l-2-1-26-1-1 14h-1v-18l-29 1v-28z" fill="#4FC4AE"/>
<path transform="translate(350,403)" d="m0 0h47l-2 6-12 19-19 32-14 25-15 29-13 28-1-3 3-7 2-9 5-18 15-56 12-45h-8z" fill="#2A927F"/>
<path transform="translate(722,1807)" d="m0 0h66l3 3v63l-2 2-67-67z" fill="#197565"/>
<path transform="translate(859,1203)" d="m0 0 7 6 59 59v3l-2 1h-63l-1-10z" fill="#0E6958"/>
<path transform="translate(786,2)" d="m0 0h63l8 3 6 5 4 8 2 10v8l-5-1h-21l-4 1-2-6-4-2-19-1v14h-1l-2-6h-25z" fill="#4FC4AE"/>
<path transform="translate(379,2)" d="m0 0h63l10 4 6 7 3 7 1 5v15h-1l-1-5h-27l-4-6-2-1-20-1v10l-1-2h-25l-2 1z" fill="#4FC4AE"/>
<path transform="translate(885,2)" d="m0 0h77v24l-1 4h-47v6l-3-1h-25l-2 1v-33z" fill="#4FC4AE"/>
<path transform="translate(1262)" d="m0 0h18l19 3 5 2 1 7v23l-15-5-12-2-11 1-10 4-6 4v-2h-35l6-12 10-11 11-7 12-4z" fill="#4FC4AE"/>
<path transform="translate(381,34)" d="m0 0h23l3 3v14l18-1 5-3 2-4 1-8 1-1h26l1 1v10l-5 10-8 7-5 2-64-1v9h-1v-19l1-17z" fill="#29917E"/>
<path transform="translate(787,34)" d="m0 0h24l2 2v15l19-1 4-2 2-3 2-9 3-2h21l4 2v7l-4 10-6 7-8 4-64-1-1 2v-30z" fill="#29917E"/>
<path transform="translate(960,1809)" d="m0 0h1v59l-1 1h-58l2-4z" fill="#025B4B"/>
<path transform="translate(97,1600)" d="m0 0h22l-1 47 160 1v1h-172l-23-1-2-3-1-24-1-3z" fill="#0E6958"/>
<path transform="translate(750,1311)" d="m0 0h2l3 5 33 33 1 4-1 1h-80l6-7z" fill="#29917E"/>
<path transform="translate(1101,63)" d="m0 0h24v64l-1 1h-27l1-23 2-41z" fill="#035D4D"/>
<path transform="translate(976,2)" d="m0 0h30l1 3-3 63h-1v-11h-28l-1 4 1-58z" fill="#50C4AE"/>
<path transform="translate(511,2)" d="m0 0h36l3 9 6 23-1 2-1-1h-26l-1-2-1 3h-2v-2l-25 1 1-5 10-27z" fill="#4FC4AE"/>
<path transform="translate(1102,2)" d="m0 0h36l13 31v1l-47 1-2 5h-1v-16z" fill="#4FC4AE"/>
<path transform="translate(1577,1600)" d="m0 0h10l23 23-1 22-2 3-22 1h-130v-1l123-1z" fill="#0E6958"/>
<path transform="translate(886,34)" d="m0 0h25l3 2v15l39-1v17l-1-4-69 1v-11l1-17z" fill="#29917E"/>
<path transform="translate(743,2)" d="m0 0h30l1 2-2 40h-1l-1-8-2-1-25-1-1 3h-1l1-34z" fill="#4FC4AE"/>
<path transform="translate(1056,2)" d="m0 0h31l-1 27-2 6-27-1-1 7h-1v-14z" fill="#4FC4AE"/>
<path transform="translate(678,2)" d="m0 0h30v12l-1 19-2 3v-2h-28v-23z" fill="#4FC4AE"/>
<path transform="translate(1218,34)" d="m0 0h31l2 1-1 4-5 8-3 8-2 11-1-3h-29v14h-1v-17l4-18 3-7z" fill="#29917E"/>
<path transform="translate(677,34)" d="m0 0h28l1 2v17l-1 27h-1v-17h-28v9h-1l1-31z" fill="#29917E"/>
<path transform="translate(1174,2)" d="m0 0h27v17l-1 20-2-3v-2h-23l-1 8h-1v-19z" fill="#4FC4AE"/>
<path transform="translate(743,34)" d="m0 0h25l3 2v27h-31v-14l1-12z" fill="#29917E"/>
<path transform="translate(1057,34)" d="m0 0h28v20l-1 32h-1v-23h-28v-22z" fill="#29917E"/>
<path transform="translate(613,34)" d="m0 0h26l2 2-1 32h-1v-5h-28v-15l1-12z" fill="#29917E"/>
<path transform="translate(531,34)" d="m0 0h23l3 4 6 21v4h-26v3h-23l1-2 21 1-5-18-2-8v-4z" fill="#29917E"/>
<path transform="translate(500,34)" d="m0 0h24l1 4-9 25-29 1 3-9 8-20z" fill="#29927F"/>
<path transform="translate(1175,34)" d="m0 0h23l1 2v24l-1 3h-25v9h-1l1-30z" fill="#29917E"/>
<path transform="translate(975,34)" d="m0 0h28l2 1v13l-1 20h-1v-11h-28l-1 4v-15z" fill="#2A927F"/>
<path transform="translate(859,1203)" d="m0 0 7 6 20 20-1 4-1 1h-24l-1-18z" fill="#025B4B"/>
<path transform="translate(786,57)" d="m0 0h72v3l-8 4-64-1-1 2z" fill="#197565"/>
<path transform="translate(380,57)" d="m0 0h72l-2 4-5 3-66-1v-5z" fill="#197565"/>
<path transform="translate(884,57)" d="m0 0h68v6h-68z" fill="#197565"/>
<path transform="translate(1267,55)" d="m0 0h41v13h-1v-5l-40 1z" fill="#1B7969"/>
<path transform="translate(676,56)" d="m0 0 29 1v23h-1v-17h-28v9h-1v-10z" fill="#1A7767"/>
<path transform="translate(1211,57)" d="m0 0h28l1 1v8l-1-3h-29v14h-1v-17z" fill="#1B7968"/>
<path transform="translate(1055,56)" d="m0 0 29 1v29h-1v-23h-28z" fill="#1A7767"/>
<path transform="translate(559,56)" d="m0 0 4 3v4h-26v3h-23l1-2 21 1-1-7 1-1z" fill="#1B7968"/>
<path transform="translate(1157,56)" d="m0 0 4 1 2 6-30 1-1-6 1-1z" fill="#197665"/>
<path transform="translate(741,57)" d="m0 0h29v6h-30z" fill="#197565"/>
<path transform="translate(975,57)" d="m0 0h28v6h-28l-1 3z" fill="#187464"/>
<path transform="translate(1101,57)" d="m0 0h25v26h-1v-20h-24z" fill="#1A7666"/>
<path transform="translate(489,57)" d="m0 0h27l1 4-1 2-29 1z" fill="#1A7666"/>
<path transform="translate(611,57)" d="m0 0h28v6h-28z" fill="#197565"/>
<path transform="translate(1174,57)" d="m0 0h24v6h-25v9h-1v-10z" fill="#1B7868"/>
<path transform="translate(2,14)" d="m0 0 7 1 3 8 1 2-4-2-7-7z" fill="#1C7B6A"/>
</svg>
