<?xml version="1.0" encoding="UTF-8"?>
<svg version="1.1" xmlns="http://www.w3.org/2000/svg" width="3066" height="3727">
<path d="M0 0 C197.67 0 395.34 0 599 0 C599 58.74 599 117.48 599 178 C460.07 178 321.14 178 178 178 C178 1072.3 178 1966.6 178 2888 C1071.97 2888 1965.94 2888 2887 2888 C2887 1994.03 2887 1100.06 2887 179 C2748.4 179 2609.8 179 2467 179 C2467 119.93 2467 60.86 2467 0 C2664.67 0 2862.34 0 3066 0 C3066 1011.78 3066 2023.56 3066 3066 C2054.22 3066 1042.44 3066 0 3066 C0 2054.22 0 1042.44 0 0 Z " fill="#288F7C" transform="translate(0,23)"/>
<path d="M0 0 C3.27402212 1.38633341 4.92813248 2.84506712 6.99609375 5.71875 C7.82318848 6.85473633 7.82318848 6.85473633 8.66699219 8.01367188 C9.25125977 8.83416016 9.83552734 9.65464844 10.4375 10.5 C11.05657227 11.35658203 11.67564453 12.21316406 12.31347656 13.09570312 C13.59683402 14.87265961 14.87692188 16.65198183 16.15380859 18.43359375 C17.81205979 20.73874273 19.48811918 23.02884724 21.17578125 25.3125 C42.00107781 53.59409409 60.58064856 83.52842983 78 114 C78.57073242 114.99580078 79.14146484 115.99160156 79.72949219 117.01757812 C88.91599185 133.09006654 97.56250949 149.42051636 105.9440918 165.9239502 C107.0450283 168.08853137 108.15010587 170.25096186 109.25585938 172.41308594 C120.28633242 194.00185958 130.61523037 215.79911583 140.27197266 238.03564453 C141.81949844 241.59490033 143.39453383 245.141259 144.98046875 248.68359375 C183.02475967 333.77023092 213.04633614 423.15054029 290.1875 844.3125 C290.24289444 845.35683701 290.24289444 845.35683701 290.29940796 846.42227173 C291.89374888 877.21410361 292.14930639 908.03031573 292.11606562 938.85550404 C292.111658 944.00829362 292.11321468 949.16108235 292.1139679 954.31387329 C292.11448674 963.19557247 292.11140773 972.07726418 292.10573006 980.95896149 C292.09752701 993.79966191 292.09499093 1006.64035879 292.09374207 1019.48106155 C292.09156521 1040.32526703 292.08494258 1061.16946854 292.07543945 1082.01367188 C292.0662297 1102.23567688 292.0591664 1122.45768081 292.05493164 1142.6796875 C292.05466892 1143.93074159 292.05440619 1145.18179568 292.05413551 1146.47076049 C292.05283027 1152.74829572 292.05156661 1159.02583095 292.05032361 1165.30336618 C292.03999363 1217.20224686 292.022413 1269.10112323 292 1321 C233.2844239 1321.01100263 174.56884773 1321.02154127 115.85327148 1321.03173828 C114.70420546 1321.03193788 113.55513944 1321.03213747 112.37125324 1321.03234312 C18.2477275 1321.04868315 -75.87579846 1321.06461022 -255.10348188 1321.08447801 C-257.1542853 1321.08468645 -259.20508873 1321.08489533 -261.25589216 1321.08510434 C-319.37428958 1321.09102686 -377.49268704 1321.09656049 -435.61108455 1321.10157386 C-437.76244449 1321.10175943 -439.91380442 1321.10194504 -442.06516436 1321.10213066 C-443.13099897 1321.10222261 -443.13099897 1321.10222261 -444.21836558 1321.10231642 C-470.93488135 1321.10462238 -497.6513971 1321.10701712 -524.36791285 1321.10946488 C-527.27060373 1321.10973074 -530.17329461 1321.10999559 -533.07598549 1321.11025951 C-601.54691405 1321.11648598 -670.01784189 1321.12430219 -738.48876953 1321.1373291 C-739.56875822 1321.13753441 -739.56875822 1321.13753441 -740.67056486 1321.13774386 C-764.61165849 1321.14229755 -788.55275209 1321.1470065 -812.49384569 1321.15173688 C-834.12623801 1321.15601062 -855.75863033 1321.16022858 -877.39102268 1321.16426277 C-878.1017373 1321.16439533 -878.81245192 1321.1645279 -879.54470335 1321.16466448 C-924.09477114 1321.1729594 -968.64483876 1321.17883496 -1013.19490719 1321.18227959 C-1014.22792864 1321.18235994 -1014.22792864 1321.18235994 -1015.28181922 1321.18244191 C-1045.53591252 1321.18479325 -1075.79000584 1321.18664159 -1106.0440992 1321.1879158 C-1118.21816377 1321.18843086 -1130.39222833 1321.18902032 -1142.56629289 1321.18965055 C-1144.58473789 1321.18975442 -1146.60318289 1321.18985588 -1148.62162788 1321.18995707 C-1179.45346062 1321.19152012 -1210.28529205 1321.19473056 -1241.11712384 1321.20278788 C-1241.78074481 1321.20296128 -1242.44436578 1321.20313467 -1243.12809648 1321.20331333 C-1254.46455038 1321.2062863 -1265.80100424 1321.20941843 -1277.13745809 1321.21256442 C-1320.32580441 1321.22452043 -1363.51414668 1321.23019122 -1406.70249469 1321.22724798 C-1412.68444892 1321.22684187 -1418.66640315 1321.22650708 -1424.64835739 1321.22621536 C-1425.82088683 1321.2261556 -1426.99341627 1321.22609584 -1428.2014769 1321.22603427 C-1446.69222166 1321.22527596 -1465.18295781 1321.23121552 -1483.67370023 1321.24001972 C-1501.90152961 1321.24855877 -1520.12934796 1321.24984358 -1538.3571784 1321.24366363 C-1548.08930964 1321.24055784 -1557.82141476 1321.24049721 -1567.5535428 1321.24976636 C-1653.55426538 1321.32789299 -1739.25653605 1319.17249826 -2005 1207 C-2005.93199219 1206.26265625 -2006.86398437 1205.5253125 -2007.82421875 1204.765625 C-2013.76163186 1199.98859077 -2019.40737705 1194.96459704 -2024.98046875 1189.7734375 C-2027.21977265 1187.69302997 -2029.51283884 1185.686793 -2031.828125 1183.69140625 C-2036.25888422 1179.82952815 -2040.41901269 1175.72848589 -2044.5625 1171.5625 C-2045.63661133 1170.49418945 -2045.63661133 1170.49418945 -2046.73242188 1169.40429688 C-2051.36118031 1164.76711486 -2055.74257811 1159.9787288 -2060 1155 C-2060.87750476 1153.99079897 -2061.75510105 1152.98167752 -2062.6328125 1151.97265625 C-2082.42224355 1128.86430808 -2099.48483103 1103.72825731 -2114 1077 C-2114.44859375 1076.19030762 -2114.8971875 1075.38061523 -2115.359375 1074.54638672 C-2149.03932534 1013.68294198 -2165.78349057 944.46641964 -2173.75 875.8125 C-2173.85114105 874.95569641 -2173.9522821 874.09889282 -2174.05648804 873.21612549 C-2177.35034615 844.95616176 -2178.38633529 816.71800927 -2178.31805801 788.29216766 C-2178.3123939 785.89255201 -2178.30958868 783.49294349 -2178.30697632 781.09332275 C-2178.27051462 758.03351299 -2177.9035007 735.10906478 -2175.25 712.17852783 C-2174.98909583 709.90497983 -2174.74158938 707.63024104 -2174.49609375 705.35498047 C-2166.88443244 635.56139989 -2149.83192985 566.96252037 -2127.79632568 500.40722656 C-2127.01264447 498.03822317 -2126.23369663 495.66770669 -2125.45556641 493.296875 C-2112.24449746 453.14519941 -2096.8626213 413.75280832 -2080 375 C-2079.58098419 374.03592224 -2079.58098419 374.03592224 -2079.15350342 373.05236816 C-2061.7513454 333.07012135 -2042.83865203 293.75726566 -2021 256 C-2020.42894531 255.00629395 -2019.85789062 254.01258789 -2019.26953125 252.98876953 C-1999.69237906 218.9286303 -1978.21278893 185.9599833 -1954 155 C-1953.1194081 153.86097352 -1952.23921007 152.72164244 -1951.359375 151.58203125 C-1942.76976694 140.49946223 -1933.69519669 129.85808803 -1924.25512695 119.49047852 C-1922.87283187 117.96392313 -1921.49891183 116.42966696 -1920.13964844 114.88256836 C-1913.69139469 107.57428077 -1906.84360939 100.69125412 -1899.94311523 93.81274414 C-1897.93422136 91.80923014 -1895.93075611 89.80039848 -1893.92773438 87.79101562 C-1887.79056472 81.65037254 -1881.66894951 75.56933034 -1875 70 C-1873.98974866 69.12370464 -1872.9805844 68.24615403 -1871.97265625 67.3671875 C-1869.93682528 65.62375104 -1867.89095684 63.90702825 -1865.82139587 62.2051239 C-1863.2604577 60.08870083 -1860.80351805 57.89892199 -1858.37281799 55.63484192 C-1846.9329805 45.43108145 -1837.74210424 44.15751736 -1822.77734375 44.51171875 C-1820.69413482 44.51353257 -1818.61091378 44.5095868 -1816.52772522 44.50019836 C-1811.10293892 44.49092035 -1805.68189013 44.55868945 -1800.25787354 44.64379883 C-1794.70003194 44.71694849 -1789.14223139 44.71547047 -1783.58398438 44.72070312 C-1772.72144491 44.74171242 -1761.86138698 44.84430613 -1751 45 C-1751.63793521 46.28615192 -1752.27704639 47.5717206 -1752.91665649 48.85704041 C-1753.27243586 49.57300353 -1753.62821522 50.28896666 -1753.99477577 51.02662563 C-1755.06965462 53.13674027 -1756.23832414 55.14006544 -1757.5234375 57.12890625 C-1757.97936279 57.84103271 -1758.43528809 58.55315918 -1758.9050293 59.28686523 C-1759.39011963 60.03782471 -1759.87520996 60.78878418 -1760.375 61.5625 C-1766.75878931 71.56150303 -1772.93060404 81.68118231 -1779.07568359 91.828125 C-1781.10326374 95.17021092 -1783.13875483 98.50741893 -1785.17578125 101.84375 C-1794.2973887 116.79279162 -1803.25358353 131.82749935 -1812 147 C-1812.6379248 148.10311523 -1813.27584961 149.20623047 -1813.93310547 150.34277344 C-1829.04665675 176.49729592 -1843.25909109 203.10217081 -1857 230 C-1857.53367187 231.04397949 -1858.06734375 232.08795898 -1858.6171875 233.16357422 C-1866.21090681 248.06432102 -1873.37346124 263.14669351 -1880.32910156 278.35498047 C-1881.98492152 281.97323131 -1883.66101328 285.58195921 -1885.3359375 289.19140625 C-1916.26681874 356.15145087 -1942.03627623 426.82395503 -1953 500 C-1953.17644043 501.11971191 -1953.35288086 502.23942383 -1953.53466797 503.39306641 C-1958.61921837 536.62657471 -1958.22112162 572.79876025 -1953 606 C-1952.82839355 607.09666992 -1952.65678711 608.19333984 -1952.47998047 609.32324219 C-1942.33150333 671.66518308 -1912.52544578 729.86965476 -1862 769 C-1861.01902344 769.78632812 -1860.03804687 770.57265625 -1859.02734375 771.3828125 C-1845.03149753 782.51796927 -1829.78031813 791.63857352 -1814 800 C-1813.00516602 800.5273877 -1813.00516602 800.5273877 -1811.99023438 801.06542969 C-1740.95864812 838.36593604 -1658.00699056 850.57213068 -1578.74645805 854.09197044 C-1577.78972274 854.13451733 -1576.83298743 854.17706421 -1575.84726013 854.2209004 C-1548.64837667 855.38844954 -1521.4307204 855.29452754 -1494.21267964 855.28054001 C-1486.12562987 855.27681634 -1478.03860089 855.28508623 -1469.95155613 855.29345289 C-1454.84916798 855.30875277 -1439.74678924 855.3148937 -1424.64439392 855.31578636 C-1409.37344271 855.31672775 -1394.10250211 855.32206975 -1378.83155441 855.33261681 C-1377.86164852 855.33328413 -1376.89174262 855.33395146 -1375.89244564 855.334639 C-1370.94559158 855.33806243 -1365.99873756 855.34155591 -1361.05188357 855.3450741 C-1325.38302171 855.37029905 -1289.71416083 855.38604666 -1254.0452919 855.39665604 C-1218.75373136 855.40718136 -1183.4621764 855.42183179 -1148.17061996 855.44193649 C-1147.07202557 855.44256048 -1145.97343117 855.44318446 -1144.84154603 855.44382735 C-1134.80664328 855.44952918 -1124.77174056 855.45528135 -1114.73683788 855.46109388 C-1089.79826736 855.47553848 -1064.85969652 855.4893523 -1039.92112541 855.50273705 C-1038.78584764 855.50334687 -1037.65056988 855.50395669 -1036.48088975 855.50458498 C-981.34159132 855.53414827 -926.20229028 855.55644161 -871.06298828 855.578125 C-851.94364418 855.58564769 -832.82430009 855.59320265 -813.70495605 855.60089111 C-812.51906967 855.60136796 -811.33318329 855.60184481 -810.11136095 855.60233611 C-754.91657 855.62457436 -699.72178198 855.65199854 -644.52699408 855.68074883 C-640.94089513 855.68261669 -637.35479617 855.68448232 -633.76869721 855.6863475 C-610.0021606 855.69871236 -586.23562404 855.71116634 -562.4690875 855.72367998 C-515.18512985 855.74857532 -467.90117194 855.7729472 -420.61721383 855.79695912 C-418.36575267 855.79810247 -416.11429152 855.79924618 -413.86283036 855.80039027 C-312.58970806 855.85184931 -211.31658337 855.89722105 -110.04345703 855.93994141 C-108.62192408 855.94054111 -108.62192408 855.94054111 -107.17167329 855.94115294 C-59.78111568 855.96114108 -12.39055793 855.980786 35 856 C34.62090125 850.46602223 34.23448289 844.9326165 33.84185791 839.39958191 C33.70981672 837.52518371 33.57962733 835.65065395 33.45147705 833.77598572 C27.30881184 744.08436702 -8.99403691 656.19240518 -60.55615234 583.05175781 C-62.15666781 580.77736958 -63.74484174 578.49464388 -65.33203125 576.2109375 C-77.03054318 559.40093558 -89.07104502 542.85179978 -101.24267578 526.38232422 C-102.9775979 524.0303695 -104.70655144 521.67415161 -106.43359375 519.31640625 C-113.25071938 510.01759495 -120.16383479 500.79953918 -127.16821289 491.64086914 C-131.73660864 485.66689864 -136.27428642 479.67177576 -140.74536133 473.62451172 C-143.15226263 470.38671094 -145.61582025 467.23159528 -148.21875 464.1484375 C-148.73783936 463.52380615 -149.25692871 462.8991748 -149.79174805 462.25561523 C-150.77357131 461.08180919 -151.77152283 459.92122271 -152.78833008 458.77758789 C-155.0920629 456.00606189 -156.03300526 454.53939656 -155.80981445 450.8918457 C-154.85291153 446.29311509 -153.46941274 441.97868281 -151.9296875 437.546875 C-151.46082878 436.17381195 -151.46082878 436.17381195 -150.98249817 434.77301025 C-149.9528188 431.7631904 -148.9140652 428.75659125 -147.875 425.75 C-147.1451687 423.62384221 -146.41576432 421.49753783 -145.68676758 419.37109375 C-140.46268628 404.15424736 -135.17397864 388.95968564 -129.85888672 373.77441406 C-124.69888403 359.0301504 -119.59418002 344.26712174 -114.5 329.5 C-108.86131724 313.15680456 -103.20504637 296.82015136 -97.5 280.5 C-91.8388368 264.30409699 -86.22260346 248.09297751 -80.625 231.875 C-74.55451529 214.28719034 -68.47596036 196.70226381 -62.375 179.125 C-62.02776886 178.12455658 -61.68053772 177.12411316 -61.32278442 176.09335327 C-59.57823891 171.06719208 -57.83340679 166.04113045 -56.08837891 161.01513672 C-52.93166784 151.92318103 -49.77612339 142.83082054 -46.62109375 133.73828125 C-45.91620815 131.70685816 -45.21129285 129.67544538 -44.50634766 127.64404297 C-40.48476843 116.05483614 -36.46720601 104.46425217 -32.45703125 92.87109375 C-32.07840439 91.77650848 -31.69977753 90.68192322 -31.30967712 89.5541687 C-30.74175194 87.91232101 -30.74175194 87.91232101 -30.16235352 86.23730469 C-23.66853256 67.46419894 -17.16396966 48.69493373 -10.625 29.9375 C-10.31367126 29.04371643 -10.00234253 28.14993286 -9.68157959 27.22906494 C-6.51193828 18.13142483 -3.33459001 9.03889435 0 0 Z " fill="#1D7968" transform="translate(2476,688)"/>
<path d="M0 0 C144.87 0 289.74 0 439 0 C439 144.54 439 289.08 439 438 C294.13 438 149.26 438 0 438 C0 293.46 0 148.92 0 0 Z " fill="#015041" transform="translate(1313,3289)"/>
<path d="M0 0 C2.75927022 1.42786425 4.60735896 3.26907173 6.80488694 5.4695909 C7.27549345 5.93673588 7.74609997 6.40388086 8.23096728 6.88518175 C9.81497294 8.46121105 11.38800173 10.04776385 12.96134675 11.63443065 C14.10260361 12.77437995 15.24451924 13.91367006 16.38703811 15.05235451 C19.53161605 18.19020592 22.66673235 21.33736632 25.80042899 24.48607957 C29.17875317 27.87732861 32.565711 31.259935 35.95164216 34.64358592 C41.81911036 40.50947914 47.68104972 46.38085124 53.53929627 52.25595355 C62.00939905 60.75041126 70.48774881 69.23659777 78.96815071 77.72077196 C92.72596731 91.48515855 106.47706757 105.25623484 120.22398102 119.03151011 C133.57984605 132.41490154 146.9388504 145.79514642 160.30210602 159.17115855 C161.12546591 159.99530661 161.94882579 160.81945466 162.79713598 161.6685769 C166.92760552 165.80296148 171.05813703 169.93728413 175.18869936 174.071576 C209.46951455 208.38350415 243.7394464 242.70628671 278.00230134 277.03614879 C272.70899911 283.4570416 266.87887647 289.29684955 260.99256623 295.16613841 C259.86935367 296.28978749 258.74636108 297.41365649 257.62356853 298.53772527 C254.54953902 301.61398375 251.4724121 304.6871273 248.39475739 307.75975835 C245.07195439 311.07823404 241.75205095 314.39960833 238.43179047 317.72062755 C232.6827693 323.47017251 226.93192324 329.2178869 221.1798259 334.96435428 C212.86330906 343.27273649 204.54956209 351.58388585 196.2364838 359.89570839 C182.74826954 373.38173521 169.25782466 386.86552838 155.76597321 400.34791636 C142.6616101 413.44309737 129.55829999 426.53933055 116.4564029 439.63697886 C115.64850344 440.4446156 114.84060398 441.25225234 114.00822271 442.08436292 C109.955146 446.13613457 105.90208996 450.18792691 101.8490442 454.23972952 C68.23666797 487.84174276 34.62066991 521.44013089 1.00230134 555.03614879 C-2.65854862 553.49460257 -4.99057063 551.29191719 -7.7846669 548.49527621 C-8.25358504 548.02866576 -8.72250318 547.56205531 -9.20563096 547.08130515 C-10.78146753 545.51077783 -12.35004731 543.93319689 -13.91878021 542.35557628 C-15.05612566 541.2191027 -16.19391039 540.08306862 -17.33209717 538.94743764 C-20.46300525 535.82101061 -23.58762788 532.68836634 -26.71128333 529.55469537 C-30.07913961 526.17821782 -33.45275753 522.80750589 -36.82568634 519.43609691 C-42.67023222 513.59260071 -48.51109943 507.74544812 -54.34949768 501.89580989 C-62.79088971 493.4381772 -71.23778623 484.9860598 -79.68604484 476.53528674 C-93.39198823 462.82496399 -107.09345754 449.11017905 -120.79213226 435.3925941 C-134.100664 422.06570978 -147.41129064 408.74092359 -160.72474945 395.41896129 C-161.54512234 394.59806295 -162.36549523 393.77716461 -163.2107279 392.93139057 C-167.32623056 388.81327787 -171.44177454 384.69520646 -175.55733907 380.57715559 C-209.71053425 346.40322042 -243.85647693 312.22204566 -277.99769866 278.03614879 C-276.45817168 274.38690286 -274.26798276 272.05291993 -271.48361671 269.26200461 C-270.78803117 268.56071057 -270.78803117 268.56071057 -270.0783934 267.84524897 C-268.5176445 266.27416386 -266.94985259 264.71030231 -265.38200653 263.14630198 C-264.25251582 262.01236003 -263.12345711 260.87798765 -261.99479461 259.74322134 C-258.88753291 256.62175656 -255.77401448 253.50659836 -252.65942442 250.39244807 C-249.30338416 247.03476172 -245.95306234 243.67137759 -242.60194671 240.30877757 C-235.27277958 232.95674889 -227.93614375 225.61220334 -220.59806573 218.26907015 C-216.01944585 213.68719581 -211.44246124 209.10369041 -206.86582839 204.51983142 C-194.20225342 191.83669216 -181.53710139 179.15513387 -168.86519325 166.48031974 C-167.64861976 165.26346489 -167.64861976 165.26346489 -166.40746903 164.02202712 C-164.76318626 162.3773781 -163.11890222 160.73273036 -161.4746169 159.08808389 C-160.65836181 158.27164599 -159.84210672 157.45520809 -159.00111663 156.61402965 C-158.18386843 155.79660089 -157.36662023 154.97917214 -156.52460693 154.13697282 C-143.26795301 140.87677351 -130.02308991 127.6048644 -116.78335704 114.32777216 C-103.20086873 100.70726316 -89.60910268 87.09607217 -76.00774169 73.49440867 C-68.36682459 65.85290573 -60.72994971 58.2074573 -53.10317123 50.55184054 C-46.61223621 44.03647546 -40.11286383 37.52967978 -33.60215499 31.03407183 C-30.27787442 27.71699351 -26.95784211 24.39592814 -23.64846694 21.06397319 C-20.62303358 18.01809471 -17.58645035 14.98383053 -14.5402969 11.95867798 C-13.43631609 10.85821989 -12.33660723 9.7534573 -11.24149586 8.64417251 C-9.75999253 7.14472749 -8.26415051 5.66129399 -6.7634629 4.18108726 C-5.518847 2.93524967 -5.518847 2.93524967 -4.24908733 1.66424364 C-1.99769866 0.03614879 -1.99769866 0.03614879 0 0 Z " fill="#014F40" transform="translate(1563.9976986646652,2187.963851213455)"/>
<path d="M0 0 C143.88 0 287.76 0 436 0 C436 144.54 436 289.08 436 438 C428.12486214 431.24988183 428.12486214 431.24988183 424.8434 427.97482777 C424.0944662 427.22973511 423.34553239 426.48464244 422.57390362 425.71697122 C421.77330342 424.91550454 420.97270322 424.11403785 420.14784241 423.2882843 C419.28023189 422.4236449 418.41262136 421.5590055 417.51871961 420.66816491 C415.1269933 418.28357942 412.73749771 415.89679921 410.34896982 413.50901258 C407.76664011 410.92854358 405.18146867 408.35092395 402.59671021 405.77288818 C396.95610918 400.14582298 391.31924626 394.51502325 385.68320394 388.88339257 C382.16448789 385.36744386 378.64503722 381.85223113 375.12545586 378.33714867 C365.37923626 368.60310956 355.63395466 358.86813355 345.89212894 349.12969685 C345.26970881 348.50749628 344.64728869 347.88529572 344.00600734 347.24424059 C343.38213002 346.62058155 342.75825269 345.9969225 342.11546999 345.35436469 C340.85131422 344.09065239 339.58715691 342.82694163 338.32299805 341.56323242 C337.69593684 340.93639265 337.06887563 340.30955287 336.42281257 339.66371795 C326.24070699 329.48556842 316.05185524 319.31420068 305.86011035 309.14570425 C295.39487681 298.70415089 284.93524535 288.25701338 274.48126119 277.80419701 C268.61196947 271.93582329 262.74026761 266.06990625 256.86238289 260.21013832 C251.86313998 255.22625057 246.86900861 250.23731228 241.88158167 245.241599 C239.335503 242.69159913 236.78701725 240.14412936 234.23200417 237.60307884 C231.46765126 234.85369573 228.71489731 232.09288925 225.96327209 229.33076477 C224.73894922 228.1185265 224.73894922 228.1185265 223.48989254 226.88179857 C222.75921297 226.14452915 222.02853339 225.40725973 221.27571201 224.64764881 C220.6385386 224.01107249 220.0013652 223.37449617 219.3448835 222.71862966 C218 221 218 221 218 218 C217.41908262 217.74389167 216.83816523 217.48778334 216.23964429 217.22391415 C213.77967124 215.87959539 212.14690644 214.39759682 210.16569138 212.41737366 C209.41228053 211.6691783 208.65886968 210.92098295 207.8826282 210.15011501 C207.06161663 209.324642 206.24060506 208.49916899 205.39471436 207.64868164 C204.51741645 206.77450372 203.64011855 205.90032579 202.73623586 204.99965763 C200.30167834 202.57170442 197.87169348 200.13933269 195.44353771 197.70498705 C192.82412648 195.08105728 190.19897542 192.46288096 187.57455444 189.84396362 C182.43462964 184.71294011 177.30013627 179.57651437 172.16755864 174.43814254 C167.99798263 170.26405393 163.82646369 166.09191645 159.65354156 161.9211731 C159.06015622 161.32809422 158.46677087 160.73501534 157.85540415 160.12396437 C156.65005677 158.91925642 155.44470489 157.71455296 154.23934856 156.50985396 C142.93313128 145.20934188 131.63305635 133.90270366 120.33506432 122.59396899 C110.63179439 112.88175876 100.92328607 103.17481084 91.2109375 93.47167969 C79.94019693 82.21163045 68.67269283 70.94835895 57.41037107 59.67988873 C56.21065004 58.47953058 55.01092483 57.27917662 53.81119537 56.0788269 C53.22085573 55.48817871 52.63051608 54.89753051 52.02228735 54.28898388 C47.85325935 50.11822586 43.68190849 45.94979967 39.50966644 41.78225708 C34.42975092 36.70793757 29.35338725 31.63009714 24.28161189 26.54764104 C21.69175401 23.95250986 19.10029134 21.35903516 16.50450516 18.76983261 C13.69670529 15.96904684 10.89662909 13.16062291 8.09735107 10.35131836 C7.26741662 9.52584535 6.43748216 8.70037233 5.58239818 7.84988499 C4.83941832 7.10168963 4.09643846 6.35349428 3.33094406 5.58262634 C2.68303115 4.93438872 2.03511823 4.2861511 1.36757159 3.61826992 C0 2 0 2 0 0 Z " fill="#1C7262" transform="translate(1316,3289)"/>
<path d="M0 0 C4.74821578 4.43775552 8.58393643 9.45124318 12.5 14.625 C13.20560059 15.55505859 13.91120117 16.48511719 14.63818359 17.44335938 C20.81848475 25.6503313 26.67949275 34.04235284 32.38476562 42.58447266 C34.04439549 45.06639192 35.71667228 47.53944137 37.390625 50.01171875 C51.43945538 70.83176096 64.53633426 92.19738202 77 114 C77.57073242 114.99580078 78.14146484 115.99160156 78.72949219 117.01757812 C87.91599185 133.09006654 96.56250949 149.42051636 104.9440918 165.9239502 C106.0450283 168.08853137 107.15010587 170.25096186 108.25585938 172.41308594 C119.28633242 194.00185958 129.61523037 215.79911583 139.27197266 238.03564453 C140.81949844 241.59490033 142.39453383 245.141259 143.98046875 248.68359375 C182.02475967 333.77023092 212.04633614 423.15054029 289.1875 844.3125 C289.22442963 845.00872467 289.26135925 845.70494934 289.29940796 846.42227173 C290.89228807 877.18589061 291.1493579 907.97400118 291.11606562 938.77096105 C291.11165773 943.91148057 291.1132147 949.05199925 291.1139679 954.19252014 C291.11448672 963.05293841 291.11140789 971.91334918 291.10573006 980.77376556 C291.09752678 993.58369689 291.0949909 1006.39362468 291.09374207 1019.20355836 C291.09156525 1039.99784954 291.08494272 1060.79213675 291.07543945 1081.58642578 C291.06622961 1101.75992819 291.05916635 1121.9334295 291.05493164 1142.10693359 C291.05453756 1143.97903423 291.05453756 1143.97903423 291.05413551 1145.88895509 C291.05283026 1152.15150624 291.05156661 1158.4140574 291.05032361 1164.67660856 C291.03999374 1216.45107512 291.0224132 1268.22553736 291 1320 C289.52502906 1317.1666117 288.70446271 1315.00664728 288.40917969 1311.81640625 C288.32833633 1310.98678375 288.24749298 1310.15716125 288.16419983 1309.30239868 C288.08423264 1308.39823212 288.00426544 1307.49406555 287.921875 1306.5625 C287.83026596 1305.60121185 287.73865692 1304.63992371 287.64427185 1303.64950562 C287.44485829 1301.54748759 287.24909245 1299.44512113 287.05648804 1297.34246826 C286.74348041 1293.92889931 286.42055908 1290.51639468 286.0949707 1287.10400391 C285.62966836 1282.22356907 285.16748668 1277.34285454 284.70751953 1272.46191406 C283.57018714 1260.42940318 282.38560964 1248.40159549 281.1875 1236.375 C281.00509262 1234.54382629 281.00509262 1234.54382629 280.81900024 1232.67565918 C276.50522656 1189.5062784 271.97589363 1146.33334327 266.4352417 1103.30271912 C266.34059631 1102.567314 266.24595093 1101.83190887 266.1484375 1101.07421875 C266.05492004 1100.34779678 265.96140259 1099.62137482 265.86505127 1098.87294006 C264.75302764 1090.16836181 263.75924962 1081.4500431 262.75839233 1072.7321167 C259.31575004 1042.75051655 255.32621366 1012.8659522 251 983 C250.4981641 979.52109476 249.99844128 976.04189302 249.5 972.5625 C249.38688477 971.77738037 249.27376953 970.99226074 249.15722656 970.18334961 C248.3845223 964.789768 247.64565746 959.39200383 246.91796875 953.9921875 C244.13613113 933.41689489 240.953809 912.94137541 237.42645264 892.48126221 C236.98604636 889.91881248 236.54939721 887.35574671 236.11376953 884.79248047 C226.10297822 825.74691374 226.10297822 825.74691374 213.72412109 767.16650391 C212.75716841 762.9381235 211.84686923 758.69816305 210.93502808 754.45761108 C208.05673371 741.07702072 205.0395003 727.7386092 201.8125 714.4375 C201.65009827 713.76652283 201.48769653 713.09554565 201.32037354 712.40423584 C198.03105112 698.84419759 194.46650088 685.37825184 190.5 672 C188.62158643 665.62374733 186.77111833 659.25350427 185.125 652.8125 C164.19856659 573.55363344 131.74070695 493.19585208 86 425 C85.56123535 424.34128906 85.1224707 423.68257812 84.67041016 423.00390625 C78.49227907 413.75361439 71.94921163 404.8307518 65.140625 396.03515625 C64.63861572 395.36782471 64.13660645 394.70049316 63.61938477 394.01293945 C62.021935 391.94688785 62.021935 391.94688785 60.05053711 390.08666992 C55.63337488 385.45438795 54.41799148 381.63108156 54.53515625 375.29296875 C54.62059969 373.04842242 54.74605917 370.8118543 54.8999939 368.57095337 C55.12412567 365.28364526 55.26240771 361.99405391 55.40834045 358.70249939 C55.48540528 356.99239181 55.5667719 355.28247294 55.65232849 353.57276917 C56.07223031 345.15164696 56.19632288 336.743169 56.1875 328.3125 C56.18698639 327.58222595 56.18647278 326.8519519 56.1859436 326.09954834 C55.97927214 234.455157 39.59830166 143.64130194 2.6620636 9.63221741 C1.70746122 6.4361403 0.76281659 3.24802043 0 0 Z " fill="#015243" transform="translate(2477,688)"/>
<path d="M0 0 C2.75890839 1.41742297 4.59826774 3.24940159 6.79289615 5.44560146 C7.26181429 5.91075847 7.73073243 6.37591549 8.21386021 6.85516816 C9.79211923 8.42444403 11.35940738 10.00424253 12.92700946 11.5841589 C14.06414326 12.71926939 15.20193404 13.85372204 16.34032643 14.98757029 C19.47350845 18.11208 22.59722433 21.24590814 25.71951258 24.38129878 C29.08558146 27.75824032 32.46027142 31.12654675 35.83391559 34.49591732 C42.44366572 41.10002606 49.0453974 47.71209536 55.64452603 54.32681572 C63.32229117 62.0220888 71.00807929 69.70932756 78.6942741 77.39617938 C92.40237942 91.10597382 106.10340167 104.8228249 119.80036151 118.54375362 C133.10643691 131.87309712 146.4170591 145.19787705 159.7329787 158.51738644 C160.96353804 159.74827992 160.96353804 159.74827992 162.21895716 161.00403994 C163.87149573 162.6570211 165.52403458 164.31000197 167.17657371 165.96298257 C167.99166055 166.77828898 168.8067474 167.59359539 169.64653385 168.43360806 C170.86598172 169.65337991 170.86598172 169.65337991 172.11006491 170.89779362 C184.77993521 183.57136041 197.44597279 196.2487572 210.11147974 208.92668435 C214.7100349 213.52968168 219.30909331 218.13217549 223.9084976 222.73432434 C231.20147612 230.03172654 238.4927902 237.33078315 245.7806733 244.63327444 C249.11305379 247.97228222 252.44621904 251.31049635 255.78152263 254.64658451 C258.82932602 257.69517041 261.87482787 260.74603528 264.91843203 263.7988134 C266.02510426 264.90800972 267.13263447 266.01635073 268.24106619 267.12378877 C269.73712253 268.61876208 271.23012073 270.11672113 272.72232425 271.6155386 C273.55554069 272.45000153 274.38875712 273.28446446 275.24722254 274.14421415 C277.00592792 276.03057003 277.00592792 276.03057003 277.00592792 277.03057003 C93.85592792 277.03057003 -89.29407208 277.03057003 -277.99407208 277.03057003 C-274.38142669 272.81581708 -270.9376831 268.84827323 -267.05026829 264.94975185 C-266.35788993 264.25339575 -266.35788993 264.25339575 -265.65152413 263.54297185 C-264.1197407 262.00359015 -262.58450354 260.46770279 -261.04921734 258.93181515 C-259.93299042 257.81156747 -258.81697309 256.69111091 -257.70114636 255.57046461 C-254.64625367 252.50367136 -251.58826363 249.43998331 -248.52970731 246.37684441 C-245.22736424 243.06852134 -241.9278372 239.75739152 -238.62786114 236.44670773 C-230.66942443 228.46381677 -222.70609849 220.485812 -214.74189168 212.5086782 C-212.49323737 210.25630935 -210.24471241 208.00381145 -207.99623358 205.75126743 C-194.03269464 191.76250895 -180.06757168 177.77533397 -166.09764683 163.79295254 C-162.86665065 160.55902675 -159.63567053 157.32508492 -156.40471661 154.09111691 C-155.200181 152.88546222 -155.200181 152.88546222 -153.97131135 151.65545088 C-140.93607705 138.60753745 -127.91116881 125.54936573 -114.89041005 112.48700851 C-101.52468042 99.07892784 -88.14960671 85.68022605 -74.76530194 72.29068708 C-67.24937089 64.77133612 -59.73769561 57.2478357 -52.23649991 49.71378231 C-45.85535404 43.3047299 -39.46588611 36.90412769 -33.06515478 30.51463264 C-29.79753844 27.25222531 -26.53418833 23.98582053 -23.2815057 20.70851803 C-20.30803795 17.7127308 -17.32342726 14.72855109 -14.32924999 11.75346619 C-13.2442275 10.67126798 -12.16347977 9.58476465 -11.08733486 8.49373811 C-9.63146185 7.01895982 -8.16125643 5.56020524 -6.68619359 4.10465908 C-5.87076899 3.28787796 -5.05534439 2.47109683 -4.21520996 1.62956476 C-1.99407208 0.03057003 -1.99407208 0.03057003 0 0 Z " fill="#287164" transform="translate(1563.9940720796585,2187.9694299697876)"/>
<path d="M0 0 C197.67 0 395.34 0 599 0 C599 29.37 599 58.74 599 89 C430.7 89 262.4 89 89 89 C89 501.83 89 914.66 89 1340 C88.67 1340 88.34 1340 88 1340 C88.01223425 1338.92707842 88.0244685 1337.85415684 88.03707348 1336.74872248 C88.45548831 1299.99770464 88.8550247 1263.2464867 89.24121094 1226.49511719 C89.24899521 1225.7544865 89.25677948 1225.0138558 89.26479964 1224.25078176 C90.09981446 1144.75400801 90.80996947 1065.25726495 91.27081299 985.75738525 C91.28110286 983.98770356 91.29139281 982.21802188 91.30168286 980.44834019 C91.51738673 943.28679667 91.71569176 906.12517661 91.89394855 868.96343482 C91.98353655 850.29061578 92.07646108 831.61781452 92.17254308 812.94502777 C92.18701559 810.12864081 92.20139279 807.31225337 92.21576602 804.4958659 C92.43744006 761.22381497 92.72983295 717.95369601 93.23138428 674.68389893 C93.24213321 673.75644784 93.25288215 672.82899675 93.26395681 671.87344108 C93.4376539 656.92405819 93.61739063 641.97474789 93.79793101 627.02544632 C94.31905935 583.86675752 94.79411652 540.70966697 94.9762001 497.54802322 C94.97998112 496.65688717 94.98376213 495.76575112 94.98765772 494.84761094 C95.06994407 475.26564557 95.12935522 455.68367958 95.16723004 436.10158005 C95.18288053 428.21750681 95.20181104 420.33344207 95.22187042 412.44937897 C95.22398639 411.58660503 95.22610236 410.72383109 95.22828245 409.83491248 C95.29762911 382.22060219 95.63185994 354.61761035 96.11082294 327.00760427 C96.59372603 299.09844067 96.80505468 271.2005735 96.66011669 243.28724297 C96.63996959 239.39458884 96.62280531 235.50192683 96.60744667 231.60925102 C96.60277011 230.46505216 96.60277011 230.46505216 96.59799907 229.29773817 C96.55950209 218.12600226 96.75435487 206.97614523 97.0906353 195.80990028 C98.61604009 143.83910354 99.34365581 96.47216273 62.12655868 56.54889984 C34.17129293 26.74745343 34.17129293 26.74745343 1 4 C1 350.17 1 696.34 1 1053 C0.67 1053 0.34 1053 0 1053 C0 705.51 0 358.02 0 0 Z " fill="#3FAC98" transform="translate(0,23)"/>
<path d="M0 0 C56.79256963 -0.0338004 113.58513915 -0.06606416 170.37771606 -0.08468628 C171.21764353 -0.08496239 172.05757099 -0.08523851 172.92295079 -0.08552299 C191.17480121 -0.09150816 209.42665174 -0.09704861 227.67850243 -0.10213066 C236.62860451 -0.10462543 245.57870656 -0.10721853 254.52880859 -0.10986328 C255.41947332 -0.1101248 256.31013805 -0.11038632 257.22779262 -0.11065576 C286.12089566 -0.11918551 315.0139909 -0.13421337 343.90708921 -0.15259444 C373.5870209 -0.17144188 403.26694828 -0.18376676 432.94688585 -0.18782998 C437.13451373 -0.18840633 441.32214158 -0.1890576 445.50976944 -0.18975449 C446.33399228 -0.18988933 447.15821512 -0.19002418 448.00741441 -0.19016311 C461.29992012 -0.19253081 474.59241251 -0.20181839 487.88491278 -0.21366407 C501.23334221 -0.22541299 514.58175838 -0.22994239 527.93019281 -0.22700275 C535.87045077 -0.22547624 543.81066036 -0.22958461 551.75090962 -0.24159509 C557.66521426 -0.24993361 563.57948499 -0.24794684 569.49379338 -0.24179779 C571.8975829 -0.24094654 574.30137639 -0.24353686 576.70515798 -0.24976636 C579.95217184 -0.25769734 583.19894201 -0.25352501 586.44595146 -0.24609566 C587.39688732 -0.25134968 588.34782317 -0.25660371 589.32757527 -0.26201695 C590.1863865 -0.25752237 591.04519774 -0.25302778 591.93003356 -0.24839699 C592.67343722 -0.24870895 593.41684087 -0.24902092 594.18277191 -0.24934233 C596 -0 596 -0 598 2 C530.31885863 90.38447597 530.31885863 90.38447597 479.83335207 97.21886351 C455.10474304 100.07420731 429.94332541 99.12609857 405.13190364 97.91392422 C394.71357016 97.40493318 384.31088158 97.11000727 373.88067436 97.00213814 C372.82701008 96.99108809 372.82701008 96.99108809 371.75205965 96.97981482 C368.18149783 96.94331546 364.61091357 96.91006354 361.040309 96.87805647 C336.05124221 96.64829325 311.08785627 96.01890328 286.11401367 95.13598633 C261.92562787 94.28179923 237.74379482 93.6202274 213.54370117 93.20629883 C212.79168138 93.193362 212.03966158 93.18042516 211.26485331 93.1670963 C203.709499 93.03732835 196.15408558 92.91133679 188.59862198 92.78810535 C173.22122669 92.53721058 157.84431661 92.26119093 142.46763611 91.96986389 C141.40824519 91.94983932 141.40824519 91.94983932 140.32745243 91.92941021 C93.53981579 91.04216192 46.76987744 89.54970137 0 88 C0 58.96 0 29.92 0 0 Z " fill="#40AD98" transform="translate(2467,24)"/>
<path d="M0 0 C143.55 0 287.1 0 435 0 C428.25 7.875 428.25 7.875 424.96644783 11.1566 C424.21950507 11.9055338 423.47256232 12.65446761 422.70298493 13.42609638 C421.89947189 14.22669658 421.09595885 15.02729678 420.26809692 15.85215759 C418.96796278 17.15357338 418.96796278 17.15357338 417.6415633 18.48128039 C415.25118743 20.87301256 412.85860296 23.2624947 410.46503544 25.65103018 C407.87843127 28.23329828 405.29473583 30.81847395 402.7106781 33.40328979 C398.23851178 37.87597935 393.76452456 42.34684069 389.28927994 46.81645012 C382.81890469 53.27868324 376.35130683 59.74369023 369.88437401 66.20936806 C359.39101814 76.70053766 348.89543309 87.18947419 338.3984375 97.67700195 C328.20422914 107.86202517 318.01107616 118.0481027 307.81933594 128.2355957 C307.19065621 128.86401271 306.56197649 129.49242971 305.91424586 130.13988965 C302.76021341 133.29261702 299.60620165 136.44536508 296.45220017 139.59812343 C270.304673 165.73529126 244.15352436 191.86883318 218 218 C214.79045209 216.58501057 212.64038517 214.89082849 210.16569138 212.41737366 C209.41228053 211.6691783 208.65886968 210.92098295 207.8826282 210.15011501 C207.06161663 209.324642 206.24060506 208.49916899 205.39471436 207.64868164 C204.51741645 206.77450372 203.64011855 205.90032579 202.73623586 204.99965763 C200.30167834 202.57170442 197.87169348 200.13933269 195.44353771 197.70498705 C192.82412648 195.08105728 190.19897542 192.46288096 187.57455444 189.84396362 C182.43462964 184.71294011 177.30013627 179.57651437 172.16755864 174.43814254 C167.99798263 170.26405393 163.82646369 166.09191645 159.65354156 161.9211731 C159.06015622 161.32809422 158.46677087 160.73501534 157.85540415 160.12396437 C156.65005677 158.91925642 155.44470489 157.71455296 154.23934856 156.50985396 C142.93313128 145.20934188 131.63305635 133.90270366 120.33506432 122.59396899 C110.63179439 112.88175876 100.92328607 103.17481084 91.2109375 93.47167969 C79.94019693 82.21163045 68.67269283 70.94835895 57.41037107 59.67988873 C56.21065004 58.47953058 55.01092483 57.27917662 53.81119537 56.0788269 C53.22085573 55.48817871 52.63051608 54.89753051 52.02228735 54.28898388 C47.85325935 50.11822586 43.68190849 45.94979967 39.50966644 41.78225708 C34.42975092 36.70793757 29.35338725 31.63009714 24.28161189 26.54764104 C21.69175401 23.95250986 19.10029134 21.35903516 16.50450516 18.76983261 C13.69670529 15.96904684 10.89662909 13.16062291 8.09735107 10.35131836 C7.26741662 9.52584535 6.43748216 8.70037233 5.58239818 7.84988499 C4.83941832 7.10168963 4.09643846 6.35349428 3.33094406 5.58262634 C2.68303115 4.93438872 2.03511823 4.2861511 1.36757159 3.61826992 C0 2 0 2 0 0 Z " fill="#3CA692" transform="translate(1316,3289)"/>
<path d="M0 0 C0.33 0 0.66 0 1 0 C1 91.08 1 182.16 1 276 C-89.75 276 -180.5 276 -274 276 C-270.39782689 271.79746471 -266.97643713 267.8517556 -263.09466839 263.97441387 C-262.63724915 263.51614038 -262.1798299 263.05786689 -261.70854947 262.58570632 C-260.19100751 261.06653355 -258.66994556 259.55093758 -257.14884949 258.0353241 C-256.04284682 256.92960174 -254.9370662 255.82365725 -253.83148748 254.717511 C-250.80499219 251.69072119 -247.77540006 248.66704801 -244.74528706 245.64388049 C-241.47357256 242.37855549 -238.20477502 239.11031276 -234.93563843 235.84240723 C-229.2749514 230.18460324 -223.61249264 224.52857753 -217.94887352 218.87370872 C-209.7586928 210.69608933 -201.57175849 202.51522595 -193.38570587 194.33347443 C-180.10142149 181.05625278 -166.81527006 167.78090123 -153.52758789 154.50708008 C-152.73274907 153.71306907 -151.93791024 152.91905805 -151.11898539 152.1009861 C-145.47520572 146.46310856 -139.83135962 140.82529751 -134.1875 135.1875 C-127.73180457 128.73873585 -121.27614179 122.28993901 -114.82055664 115.84106445 C-114.02517057 115.0465065 -113.22978449 114.25194856 -112.41029581 113.43331309 C-99.16571881 100.2024044 -85.92309205 86.96954541 -72.68186551 73.73528367 C-64.51162565 65.56953227 -56.33960703 57.40556861 -48.1653128 49.24387578 C-42.57160761 43.65857308 -36.97965041 38.07152448 -31.38908794 32.48307612 C-28.15990471 29.25524255 -24.92988291 26.02825921 -21.69769096 22.80343819 C-18.74308866 19.85554871 -15.7907613 16.90540121 -12.84027783 13.95338944 C-11.76864661 12.88203126 -10.69615451 11.8115334 -9.62274875 10.74195316 C-8.17158404 9.29572353 -6.72375324 7.84615084 -5.27612591 6.39638042 C-4.46867544 5.58985175 -3.66122497 4.78332307 -2.8293063 3.95235413 C-0.94460273 2.12687923 -0.94460273 2.12687923 0 0 Z " fill="#4FC3AD" transform="translate(1563,2189)"/>
<path d="M0 0 C21.78 0 43.56 0 66 0 C80.75202784 34.04314116 80.75202784 34.04314116 86.16009521 47.21331787 C87.91777813 51.49261812 89.68518806 55.76789656 91.453125 60.04296875 C91.82005463 60.93034729 92.18698425 61.81772583 92.56503296 62.73199463 C96.94381816 73.30406612 101.41168142 83.83841609 105.875 94.375 C112.71721736 110.53075514 119.45850858 126.71983212 126 143 C126.85340539 134.81497233 127.25865039 126.6614032 127.5 118.4375 C127.56043236 116.50373253 127.56043236 116.50373253 127.62208557 114.53089905 C127.72997529 111.06895695 127.83354991 107.6068988 127.93608475 104.14479446 C128.00034045 101.98857555 128.06595653 99.83240235 128.13204956 97.67623901 C128.72903904 78.19968035 129.27486285 58.72234985 129.65820312 39.24023438 C129.92815885 26.14462691 130.47608668 13.09783306 131 0 C147.83 0 164.66 0 182 0 C181.33871094 12.42527344 181.33871094 12.42527344 180.6640625 25.1015625 C179.1426274 54.22988737 177.86402872 83.36523313 176.69238281 112.50976562 C176.42728889 119.10145365 176.15559294 125.69285179 175.88235092 132.28420639 C174.78292201 158.88258271 173.75444438 185.47203584 173.32235718 212.09091187 C173.30705334 212.9447282 173.2917495 213.79854454 173.2759819 214.6782341 C173.24825545 216.24731193 173.22434303 217.81646419 173.20515823 219.38566971 C173.14332392 222.81843911 172.84008914 225.63964346 172 229 C150.55 229 129.1 229 107 229 C103.37 220.42 99.74 211.84 96 203 C93.60279819 197.57336734 91.20475488 192.15127796 88.7633667 186.74505615 C86.94711469 182.72125337 85.1427239 178.69212202 83.3359375 174.6640625 C82.97098175 173.85107697 82.606026 173.03809143 82.23001099 172.20046997 C70.02132506 145.00237641 58.01423289 117.70865833 47 90 C45.75540952 92.48918097 45.80906577 94.27899415 45.71875 97.06494141 C45.68197647 98.13289444 45.64520294 99.20084747 45.60731506 100.30116272 C45.57190109 101.47279465 45.53648712 102.64442657 45.5 103.8515625 C45.43956764 105.68363503 45.43956764 105.68363503 45.37791443 107.55271912 C45.26949082 110.8836481 45.16550453 114.21465493 45.06391525 117.54579544 C45.00003097 119.6239926 44.93430969 121.70212341 44.86795044 123.78024292 C44.21746309 144.16753018 43.71024228 164.55555329 43.32641602 184.94970703 C43.04782463 199.64263734 42.58405302 214.31523824 42 229 C25.17 229 8.34 229 -9 229 C-9 216.67952522 -9 216.67952522 -8.65039062 212.25390625 C-8.57308716 211.20275635 -8.49578369 210.15160645 -8.4161377 209.06860352 C-8.33037476 207.91158936 -8.24461182 206.7545752 -8.15625 205.5625 C-6.49871148 181.46875339 -5.69672944 157.32668297 -4.74487549 133.19711232 C-4.55349782 128.34655663 -4.36032268 123.49607518 -4.16616821 118.64562988 C-3.12897667 92.71913407 -2.09273241 66.7923856 -1.23046875 40.859375 C-1.19409019 39.76531216 -1.19409019 39.76531216 -1.1569767 38.64914703 C-0.73212668 25.76721584 -0.37294605 12.88359076 0 0 Z " fill="#005B4A" transform="translate(2006,4)"/>
<path d="M0 0 C2.05494871 -0.01175925 4.10987506 -0.02873724 6.16473389 -0.05126953 C22.18503634 -0.21890218 38.15692975 -0.04339793 50.83712769 11.27124023 C63.6397457 24.81569219 66.00532099 42.38662681 65.76681519 60.29858398 C65.29312894 75.50656027 60.62351777 90.6127091 50.55197144 102.23217773 C46.01846143 106.42547669 41.21078342 109.7655161 35.55197144 112.23217773 C36.10884644 112.45131836 36.66572144 112.67045898 37.23947144 112.89624023 C49.17413148 117.85557532 57.16452781 125.28143009 62.36447144 137.23217773 C69.8012651 156.66537299 69.13413315 178.90265363 61.55197144 198.23217773 C55.63531912 211.45660001 46.91141035 220.57819628 33.55197144 226.23217773 C16.89547771 231.67756992 -1.91288457 230.37456485 -19.22927856 230.32983398 C-21.38117439 230.32796428 -23.53307064 230.32654299 -25.68496704 230.32554626 C-31.29404924 230.32176453 -36.90310472 230.31197239 -42.51217651 230.30084229 C-48.25771727 230.29053373 -54.00326243 230.2860286 -59.74880981 230.28100586 C-70.98189434 230.27034535 -82.21495921 230.25332245 -93.44802856 230.23217773 C-93.39267944 229.27240524 -93.33733032 228.31263275 -93.28030396 227.32377625 C-88.93922076 151.98473128 -87.18333646 76.6859395 -86.44802856 1.23217773 C-27.91262175 0.13425549 -27.91262175 0.13425549 0 0 Z M-34.44802856 46.23217773 C-35.05774149 60.90258411 -35.63443517 75.54747973 -35.44802856 90.23217773 C-30.98982223 90.32018646 -26.53184317 90.37290695 -22.07302856 90.41967773 C-20.82134888 90.44481445 -19.56966919 90.46995117 -18.28005981 90.49584961 C-9.65266229 90.56360404 -2.17696338 89.90505393 5.42697144 85.60717773 C11.51700554 78.80066903 12.20889678 71.72166134 11.93087769 62.77124023 C11.44128497 58.19834329 10.62725724 54.72109847 7.55197144 51.23217773 C1.75343994 46.56037511 -4.3085974 46.10392484 -11.49880981 46.13452148 C-12.48701973 46.13664391 -12.48701973 46.13664391 -13.49519348 46.1388092 C-15.58368618 46.14437273 -17.67206868 46.15691827 -19.76052856 46.16967773 C-21.18305305 46.17469746 -22.60557923 46.17925954 -24.02810669 46.18334961 C-27.50144933 46.19433016 -30.97472818 46.21156938 -34.44802856 46.23217773 Z M-37.44802856 136.23217773 C-38.0534432 151.90533228 -38.59590925 167.54634541 -38.44802856 183.23217773 C-33.62834554 183.33182923 -28.80927579 183.40401085 -23.98880005 183.4519043 C-22.35262593 183.47189106 -20.71652205 183.49909016 -19.08059692 183.53393555 C-4.13136636 183.94813045 -4.13136636 183.94813045 8.42697144 176.54467773 C13.6810581 168.35448381 15.08710603 159.44374023 13.04806519 149.86499023 C11.52397656 145.24917897 9.36152591 142.19516455 5.55197144 139.23217773 C-0.16632732 136.69560102 -4.67369469 135.8064129 -10.88552856 135.93920898 C-11.65107056 135.94345383 -12.41661255 135.94769867 -13.20535278 135.95207214 C-15.61995543 135.96869445 -18.03368368 136.00631267 -20.44802856 136.04467773 C-22.09775598 136.05974596 -23.74749666 136.07343059 -25.39724731 136.08569336 C-29.41450476 136.11854356 -33.43111909 136.17020801 -37.44802856 136.23217773 Z " fill="#005B4A" transform="translate(1516.4480285644531,2.767822265625)"/>
<path d="M0 0 C2.07201542 -0.00677821 4.14402279 -0.01697245 6.21600342 -0.03076172 C23.20394375 -0.13602632 39.80011899 -0.03854291 52.99386597 12.45068359 C61.41584816 22.04479733 66.20080115 36.47686514 66.50949097 49.17724609 C66.54816284 50.14662109 66.58683472 51.11599609 66.62667847 52.11474609 C67.04048348 71.24173352 63.02041493 89.20501972 49.69699097 103.42724609 C45.75106446 107.2434226 41.43481425 109.80579414 36.50949097 112.17724609 C37.30613159 112.55236328 38.10277222 112.92748047 38.92355347 113.31396484 C52.25641033 119.75331299 59.18922863 127.64735889 64.68527222 141.39990234 C71.05102156 162.85036576 68.90615703 186.57559112 58.28683472 206.22021484 C51.24563485 217.9349144 40.49253528 224.31267448 27.50949097 228.17724609 C12.11728665 230.6770052 -3.60651806 230.31559723 -19.15066528 230.27490234 C-21.27871161 230.27303219 -23.40675838 230.27161112 -25.5348053 230.27061462 C-31.07646927 230.26683643 -36.61810611 230.25704753 -42.15975952 230.24591064 C-47.838365 230.23559426 -53.51697496 230.23109532 -59.19558716 230.22607422 C-70.29390623 230.21541999 -81.39220535 230.19840162 -92.49050903 230.17724609 C-92.01954294 218.21820143 -91.53449677 206.26523708 -90.79299927 194.31958008 C-86.83045558 130.05220054 -86.39768477 65.54595159 -85.49050903 1.17724609 C-28.15652465 0.08130226 -28.15652465 0.08130226 0 0 Z M-33.49050903 46.17724609 C-34.47011252 60.85380549 -34.60758237 75.47103439 -34.49050903 90.17724609 C-30.17806715 90.23584518 -25.8657293 90.27104295 -21.55300903 90.30224609 C-20.34064575 90.31900391 -19.12828247 90.33576172 -17.87918091 90.35302734 C-7.82201306 90.40753774 0.36604624 90.41678997 7.84542847 83.14599609 C12.85190967 77.22283523 13.00015513 70.78347527 12.79074097 63.23583984 C12.27039008 57.57702391 10.81393289 54.51133442 6.75949097 50.36474609 C1.19234422 46.61762809 -4.12326276 45.92516673 -10.73660278 45.98193359 C-11.3925795 45.98476349 -12.04855621 45.98759338 -12.72441101 45.99050903 C-14.79247313 46.00158626 -16.86008076 46.02666547 -18.92800903 46.05224609 C-20.34141418 46.06229208 -21.7548262 46.07141508 -23.16824341 46.07958984 C-26.60914298 46.10148425 -30.04978155 46.13592558 -33.49050903 46.17724609 Z M-36.49050903 136.17724609 C-37.42252545 151.85509368 -37.61186533 167.47374182 -37.49050903 183.17724609 C-32.83155373 183.27707537 -28.17323826 183.34916043 -23.51345825 183.39697266 C-21.93261858 183.41693031 -20.3518512 183.44410669 -18.77127075 183.47900391 C-8.2726562 183.70478056 1.09317488 183.90211757 9.44699097 176.61474609 C13.9549825 170.30036079 15.22914013 161.73356234 14.50949097 154.17724609 C13.39196245 147.72377061 11.68379671 143.47319289 6.52120972 139.33349609 C1.26904524 136.31477632 -3.79399102 135.89848479 -9.73269653 135.98193359 C-10.50106842 135.98476349 -11.26944031 135.98759338 -12.06109619 135.99050903 C-14.49606424 136.00163299 -16.93065365 136.02672249 -19.36550903 136.05224609 C-21.02435786 136.06228598 -22.68321249 136.07141007 -24.34207153 136.07958984 C-28.39169482 136.10154672 -32.4410379 136.13602203 -36.49050903 136.17724609 Z " fill="#005B4A" transform="translate(775.4905090332031,2.82275390625)"/>
<path d="M0 0 C0.74966034 -0.00261841 1.49932068 -0.00523682 2.271698 -0.00793457 C22.69755008 -0.01552853 42.5194987 3.08071686 62.25 8.3125 C63.00076616 15.62544901 63.43399376 22.88155535 63.56640625 30.23046875 C63.58718735 31.21372635 63.60796844 32.19698395 63.62937927 33.21003723 C63.69401141 36.30663041 63.75335195 39.40329772 63.8125 42.5 C63.85576764 44.61784577 63.89938434 46.73568443 63.94335938 48.85351562 C64.04960226 54.00643726 64.15110435 59.15943234 64.25 64.3125 C63.20521484 63.9112793 62.16042969 63.51005859 61.08398438 63.09667969 C53.71661642 60.28692588 46.40379209 57.50265336 38.75 55.5625 C37.95940186 55.36060059 37.16880371 55.15870117 36.35424805 54.95068359 C16.25576022 50.00813533 -4.27870711 49.31271915 -23 59.4375 C-32.62272372 65.4549099 -39.60349499 73.25131454 -44.75 83.3125 C-45.18957031 84.14136719 -45.62914063 84.97023438 -46.08203125 85.82421875 C-56.83949431 107.56664409 -58.32061926 135.64877862 -50.68359375 158.50390625 C-46.4253505 169.73273911 -40.60241977 177.02237061 -29.75 182.3125 C-17.19733937 187.88903042 -4.75607983 187.18374943 8.38671875 183.96875 C11.25 183.3125 11.25 183.3125 14.25 183.3125 C14.24476318 182.60754395 14.23952637 181.90258789 14.23413086 181.17626953 C14.21312729 177.93002237 14.20026631 174.6837896 14.1875 171.4375 C14.17912109 170.32890625 14.17074219 169.2203125 14.16210938 168.078125 C14.15888672 166.98242188 14.15566406 165.88671875 14.15234375 164.7578125 C14.14710693 163.76281738 14.14187012 162.76782227 14.13647461 161.74267578 C14.28506373 157.25304759 14.8030207 152.78229301 15.25 148.3125 C7.66 148.3125 0.07 148.3125 -7.75 148.3125 C-7.88434422 131.92250546 -7.29751517 115.73795523 -6.75 99.3125 C18.33 99.3125 43.41 99.3125 69.25 99.3125 C69.25 109.82257926 69.12859593 120.21338613 68.62890625 130.6953125 C68.56367285 132.12513583 68.49881766 133.55497646 68.43431091 134.98483276 C68.26512855 138.71826455 68.09199422 142.45150069 67.91760254 146.18469238 C67.60836447 152.81301827 67.30509088 159.44161636 67.00390625 166.0703125 C66.97102571 166.79054722 66.93814518 167.51078194 66.90426826 168.25284195 C66.36927013 180.01677868 65.9341024 191.78161886 65.57545471 203.55227661 C65.31013567 212.15410722 64.89433985 220.73044154 64.25 229.3125 C21.26849722 239.01558577 -31.60282949 247.21118886 -71.5625 223 C-94.54313626 207.4291677 -104.1967955 182.86444207 -109.49511719 156.54003906 C-116.55682919 119.48487224 -110.85204468 77.32818149 -89.9375 45.4375 C-74.48999155 22.8084386 -53.00734968 7.16662226 -25.96875 1.85546875 C-17.27415548 0.38878351 -8.79360198 0.02931882 0 0 Z " fill="#005B4A" transform="translate(2312.75,-0.3125)"/>
<path d="M0 0 C18.48 0 36.96 0 56 0 C55.6390625 6.62707031 55.278125 13.25414062 54.90625 20.08203125 C51.70484358 75.4767182 51.70484358 75.4767182 50.5 130.9375 C50.49605225 131.9245694 50.49210449 132.91163879 50.48803711 133.92861938 C50.33164729 154.95625894 50.33164729 154.95625894 60 173 C66.36008557 178.46108614 73.72395638 180.38744852 82 179.875 C89.53595547 178.84524211 95.95606283 176.3158789 100.66015625 170.15234375 C109.99782425 155.15218321 110.52756064 136.75344858 111.5546875 119.609375 C111.67900046 117.64441758 111.80350684 115.6794724 111.92819214 113.71453857 C113.3440322 90.90974843 114.23137595 68.0799669 115.125 45.25 C115.41593595 37.84903693 115.71086639 30.44825856 116.0132103 23.04775238 C116.13076665 20.12892178 116.24246685 17.20990652 116.35379028 14.29083252 C116.42455887 12.53665103 116.49557874 10.78247964 116.56689453 9.02832031 C116.61053635 7.82130463 116.61053635 7.82130463 116.65505981 6.58990479 C116.88618768 1.11381232 116.88618768 1.11381232 118 0 C119.77991924 -0.09370624 121.56356739 -0.11744271 123.34594727 -0.11352539 C125.05760826 -0.11341209 125.05760826 -0.11341209 126.80384827 -0.11329651 C128.0454924 -0.10813522 129.28713654 -0.10297394 130.56640625 -0.09765625 C132.46204567 -0.09553383 132.46204567 -0.09553383 134.39598083 -0.09336853 C137.76124889 -0.08870582 141.1264499 -0.0797148 144.49169922 -0.06866455 C147.9234967 -0.05844846 151.35530109 -0.05387049 154.78710938 -0.04882812 C161.52475824 -0.0377738 168.26237525 -0.0210171 175 0 C174.05857268 21.92836803 173.0610124 43.8538873 172.01171875 65.77734375 C171.94615595 67.14814653 171.94615595 67.14814653 171.87926865 68.5466423 C171.43478968 77.83795712 170.98888543 87.12920111 170.53960896 96.42028522 C170.32627856 100.83613621 170.11406942 105.25204055 169.90234375 109.66796875 C169.86152994 110.51785685 169.82071613 111.36774494 169.77866554 112.24338722 C169.22434759 123.82099007 168.71513738 135.39843036 168.32823181 146.983078 C167.50767486 170.5195162 164.2242248 193.96020979 146.8203125 211.37890625 C142.80298478 215.11246151 138.71769689 218.20965489 134 221 C133.13375 221.52078125 132.2675 222.0415625 131.375 222.578125 C105.37717178 236.87693052 69.72275768 237.38380672 41.73828125 229.328125 C31.71180423 225.76594925 22.14002538 220.90002152 14 214 C12.4840625 212.88625 12.4840625 212.88625 10.9375 211.75 C-1.07040006 201.47149859 -5.64071776 185.16747411 -7 170 C-7.16722621 165.79285011 -7.17511944 161.59285881 -7.15625 157.3828125 C-7.15305252 156.19587296 -7.14985504 155.00893341 -7.14656067 153.786026 C-7.07743754 143.35095678 -6.56580877 132.97425491 -5.88909912 122.56350708 C-4.04570236 93.97969533 -3.05692101 65.36884268 -2.09420109 36.74469757 C-1.97568045 33.23528829 -1.8545975 29.72596951 -1.7332859 26.21665573 C-1.65049619 23.78316852 -1.57214639 21.34956617 -1.49406433 18.91592407 C-1.44334857 17.43230506 -1.3924409 15.9486926 -1.34130859 14.46508789 C-1.29928314 13.18678604 -1.25725769 11.90848419 -1.21395874 10.59144592 C-1.00262956 7.04413893 -0.50255441 3.5178809 0 0 Z " fill="#005B4A" transform="translate(1234,4)"/>
<path d="M0 0 C1.78204079 0.00333092 1.78204079 0.00333092 3.6000824 0.00672913 C4.58053528 0.00651009 4.58053528 0.00651009 5.58079529 0.00628662 C7.75058766 0.00698569 9.92029517 0.01477774 12.09007263 0.02259827 C13.59079949 0.02446247 15.09152696 0.02588636 16.59225464 0.02688599 C20.54934865 0.03071099 24.50640616 0.04054112 28.46348572 0.05158997 C32.49851488 0.06180446 36.53354991 0.06638369 40.56858826 0.07142639 C48.49113108 0.08216341 56.41364419 0.09923962 64.33616638 0.12025452 C64.53343323 0.87110825 64.73070007 1.62196198 64.9339447 2.39556885 C77.73791052 51.09298156 91.11343004 99.60892352 104.89949989 148.03707218 C107.62921133 157.62638567 110.3453239 167.21944906 113.05101013 176.81556702 C113.75046849 179.29489772 114.44993121 181.7742272 115.1493988 184.2535553 C116.0994386 187.62141129 117.04927927 190.98932224 117.9981842 194.35749817 C118.83333427 197.32050135 119.67002518 200.28306077 120.50804138 203.24525452 C120.88281868 204.57074814 120.88281868 204.57074814 121.26516724 205.92301941 C122.96552484 211.9030617 124.76711469 217.84130251 126.68089294 223.75697327 C127.33616638 226.12025452 127.33616638 226.12025452 127.33616638 229.12025452 C107.86616638 229.12025452 88.39616638 229.12025452 68.33616638 229.12025452 C66.398573 221.39086574 64.46120471 213.66142677 62.52602386 205.93143463 C61.62473169 202.33154065 60.72302307 198.73175217 59.82029724 195.13221741 C58.95041911 191.66359109 58.08169962 188.19467645 57.21377373 184.72556114 C56.8828782 183.40382295 56.55156934 182.08218816 56.21983528 180.76066017 C55.75433559 178.9059479 55.29045777 177.05082879 54.8266449 175.19569397 C54.56239212 174.14090347 54.29813934 173.08611298 54.02587891 171.99935913 C53.40011136 169.38718352 52.86295076 166.75417643 52.33616638 164.12025452 C31.54616638 164.12025452 10.75616638 164.12025452 -10.66383362 164.12025452 C-11.65383362 167.42025452 -12.64383362 170.72025452 -13.66383362 174.12025452 C-14.61992999 176.94197996 -15.5891986 179.75218108 -16.58961487 182.55775452 C-16.85968857 183.32216858 -17.12976227 184.08658264 -17.40802002 184.87416077 C-18.26189403 187.29032186 -19.11881006 189.70538653 -19.97633362 192.12025452 C-20.82288911 194.5066463 -21.6686491 196.89330962 -22.51251221 199.28065491 C-23.03304458 200.75306866 -23.55498752 202.22498525 -24.07894897 203.69618225 C-27.06314338 212.1325464 -29.83240874 220.62597989 -32.66383362 229.12025452 C-53.12383362 229.12025452 -73.58383362 229.12025452 -94.66383362 229.12025452 C-91.50803435 220.91517643 -88.30474112 212.81883175 -84.83180237 204.75697327 C-80.12091192 193.71454822 -75.60267226 182.60185486 -71.15211487 171.45228577 C-70.65712809 170.21244242 -70.65712809 170.21244242 -70.15214157 168.94755173 C-68.10092334 163.80727376 -66.05336344 158.6655442 -64.00715637 153.52326965 C-60.95475015 145.85240238 -57.899266 138.18276624 -54.83961487 130.51478577 C-54.50488537 129.67567343 -54.17015587 128.83656109 -53.82528305 127.9720211 C-48.04237134 113.48364331 -42.15494928 99.0395653 -36.20419312 84.61935425 C-26.10773031 60.13857786 -16.41858511 35.49701728 -7.25465393 10.65174866 C-7.01787933 10.01236359 -6.78110474 9.37297852 -6.53715515 8.71421814 C-5.90273149 6.99975794 -5.27168293 5.28404986 -4.6408844 3.56825256 C-3.27573635 0.14787789 -3.27573635 0.14787789 0 0 Z M26.33616638 54.12025452 C25.94872253 55.23247375 25.56127869 56.34469299 25.16209412 57.49061584 C23.68950166 61.71646731 22.21466873 65.94153426 20.73924255 70.16639709 C20.10747001 71.97641344 19.4762624 73.7866271 18.84568787 75.59706116 C15.15394004 86.19499965 11.41329123 96.76755786 7.4468689 107.26644897 C5.89733759 111.08747809 5.89733759 111.08747809 5.33616638 115.12025452 C17.87616638 115.12025452 30.41616638 115.12025452 43.33616638 115.12025452 C38.38616638 94.99025452 33.43616638 74.86025452 28.33616638 54.12025452 C27.67616638 54.12025452 27.01616638 54.12025452 26.33616638 54.12025452 Z " fill="#005B4A" transform="translate(932.6638336181641,3.8797454833984375)"/>
<path d="M0 0 C47.19 0 94.38 0 143 0 C142.34 16.83 141.68 33.66 141 51 C112.62 50.67 84.24 50.34 55 50 C55 54.62 55 59.24 55 64 C54.67 71.92 54.34 79.84 54 88 C89.64 87.505 89.64 87.505 126 87 C126 104.2423041 126 104.2423041 125.5625 111.55859375 C125.52318359 112.27084106 125.48386719 112.98308838 125.44335938 113.71691895 C125.30010358 116.29070214 125.14968577 118.86408275 125 121.4375 C124.67 127.233125 124.34 133.02875 124 139 C99.91 139.33 75.82 139.66 51 140 C50.67 150.56 50.34 161.12 50 172 C49.505 175.96 49.505 175.96 49 180 C56.20907544 179.75682695 63.41814032 179.51334296 70.62719345 179.26950932 C73.97818286 179.15617672 77.32917621 179.04296387 80.68017578 178.92993164 C99.12091702 178.30782597 117.56077443 177.66545291 136 177 C136 194.34614911 134.98959417 211.68210197 134 229 C86.81 229 39.62 229 -9 229 C-8.43536782 217.70735644 -7.86810501 206.43189661 -7.1328125 195.15234375 C-4.98790645 161.19952564 -3.41316923 127.25310828 -2.3125 93.25 C-2.13330772 87.77843381 -2.13330772 87.77843381 -2.05012894 85.24223137 C-1.140155 56.8299669 -0.58006763 28.42331389 0 0 Z " fill="#005B4A" transform="translate(1610,4)"/>
<path d="M0 0 C54.12 0 108.24 0 164 0 C163.34 17.16 162.68 34.32 162 52 C144.18 51.34 126.36 50.68 108 50 C108 54.29 108 58.58 108 63 C107.93491444 65.33232062 107.85303125 67.66436077 107.74047852 69.99487305 C107.68361374 71.2068335 107.62674896 72.41879395 107.56816101 73.66748047 C107.4744799 75.57037842 107.4744799 75.57037842 107.37890625 77.51171875 C107.3139848 78.87946024 107.2494027 80.24721787 107.18513489 81.61499023 C107.04973552 84.48992489 106.91286803 87.36478382 106.77484131 90.23959351 C106.41596076 97.73214488 106.0727029 105.22542254 105.73046875 112.71875 C105.69704628 113.44997259 105.66362381 114.18119518 105.62918854 114.93457603 C104.68799786 135.57339157 104.11245839 156.20239572 103.7578125 176.859375 C103.73633148 178.09536942 103.71485046 179.33136383 103.69271851 180.60481262 C103.58547928 186.80701513 103.48339771 193.00921156 103.39208984 199.21166992 C103.35522359 201.50439582 103.31828032 203.79712049 103.28125 206.08984375 C103.26772491 207.1280426 103.25419983 208.16624146 103.24026489 209.23590088 C103.22349701 210.2278949 103.20672913 211.21988892 103.18945312 212.24194336 C103.17066101 213.51708046 103.17066101 213.51708046 103.15148926 214.81797791 C102.92594552 219.55550948 102.42940175 224.27658074 102 229 C83.19 229 64.38 229 45 229 C45.26554687 224.87628906 45.53109375 220.75257813 45.8046875 216.50390625 C49.34382832 161.02987643 51.37658105 105.55907486 53 50 C52.32752731 50.06851669 51.65505463 50.13703339 50.96220398 50.20762634 C44.47403693 50.8376773 38.03551217 51.19319003 31.51953125 51.31640625 C30.58066574 51.33718735 29.64180023 51.35796844 28.67448425 51.37937927 C25.72055273 51.44396047 22.76654429 51.50332734 19.8125 51.5625 C17.79100816 51.60577253 15.76952366 51.64938935 13.74804688 51.69335938 C8.83210695 51.7995458 3.91609091 51.90106101 -1 52 C-1.17428914 34.62918192 -0.56088673 17.38748853 0 0 Z " fill="#44B6A1" transform="translate(1060,4)"/>
<path d="M0 0 C19.14 0 38.28 0 58 0 C57.42473426 19.05567774 56.67471872 38.09841316 55.84375 57.14453125 C55.79025391 58.37212032 55.73675781 59.5997094 55.68164062 60.86449814 C55.17658167 72.44244152 54.66722808 84.02019535 54.15673828 95.59790039 C53.87489988 101.99321704 53.59528773 108.38862835 53.31684875 114.78409386 C53.16292523 118.30436698 53.00650789 121.82452288 52.84997559 125.34468079 C52.07119266 143.2299103 51.54239299 161.10103127 51 179 C77.07 178.67 103.14 178.34 130 178 C129.690625 184.373125 129.38125 190.74625 129.0625 197.3125 C128.91953491 200.29470581 128.91953491 200.29470581 128.77368164 203.3371582 C128.69435433 204.95004147 128.61485667 206.56291637 128.53515625 208.17578125 C128.49708862 208.98317749 128.459021 209.79057373 128.4197998 210.62243652 C128.11234721 216.77974844 127.55946529 222.84588177 127 229 C82.12 229 37.24 229 -9 229 C-9 216.63207471 -9 216.63207471 -8.68041992 212.36669922 C-8.60991425 211.39362823 -8.53940857 210.42055725 -8.46676636 209.41799927 C-8.38878815 208.39060638 -8.31080994 207.3632135 -8.23046875 206.3046875 C-8.06313947 203.98798592 -7.89624945 201.67125258 -7.72973633 199.35449219 C-7.6412442 198.1380603 -7.55275208 196.92162842 -7.46157837 195.66833496 C-5.80412323 172.72860958 -4.44695767 149.78656712 -3.4058876 126.81076813 C-3.31439262 124.79176413 -3.2219921 122.77280311 -3.12948608 120.75384521 C-1.77992591 91.06444899 -0.89023186 61.38222913 -0.46777344 31.66699219 C-0.41605296 28.07158468 -0.36121028 24.47622458 -0.30664062 20.88085938 C-0.20121249 13.9206135 -0.10068795 6.96032235 0 0 Z " fill="#005B4B" transform="translate(1775,4)"/>
<path d="M0 0 C21.78 0 43.56 0 66 0 C80.93660568 34.46909003 80.93660568 34.46909003 87.375 50.125 C88.80756339 53.60068585 90.24151156 57.07579922 91.67578125 60.55078125 C92.03145676 61.41319931 92.38713226 62.27561737 92.75358582 63.16416931 C95.28003198 69.28171202 97.84147897 75.3838561 100.41796875 81.48046875 C101.46434429 83.96347896 102.51030212 86.4466648 103.55621338 88.92987061 C104.22229356 90.50697815 104.89083828 92.08304728 105.56195068 93.65802002 C106.48640373 95.82800653 107.40225287 98.00144012 108.31640625 100.17578125 C108.59050827 100.81235153 108.86461029 101.44892181 109.14701843 102.1047821 C110.51288534 105.37761461 111 107.36906498 111 111 C103.34619856 111.02528903 95.69240783 111.04284104 88.03857422 111.05493164 C85.43310137 111.0599703 82.82763137 111.0668013 80.22216797 111.07543945 C76.48404236 111.08752544 72.74595403 111.09323288 69.0078125 111.09765625 C67.83695099 111.10281754 66.66608948 111.10797882 65.45974731 111.11329651 C64.37877777 111.11337204 63.29780823 111.11344757 62.18408203 111.11352539 C60.75178757 111.11685631 60.75178757 111.11685631 59.29055786 111.12025452 C57 111 57 111 55 110 C54.03857422 108.05053711 54.03857422 108.05053711 53.0546875 105.52734375 C52.70019531 104.62822266 52.34570312 103.72910156 51.98046875 102.80273438 C51.61566406 101.85720703 51.25085937 100.91167969 50.875 99.9375 C50.50246094 98.98810547 50.12992188 98.03871094 49.74609375 97.06054688 C48.82452835 94.7093736 47.90948198 92.35586803 47 90 C45.75540952 92.48918097 45.80906577 94.27899415 45.71875 97.06494141 C45.68197647 98.13289444 45.64520294 99.20084747 45.60731506 100.30116272 C45.57190109 101.47279465 45.53648712 102.64442657 45.5 103.8515625 C45.43956764 105.68363503 45.43956764 105.68363503 45.37791443 107.55271912 C45.26949082 110.8836481 45.16550453 114.21465493 45.06391525 117.54579544 C45.00003097 119.6239926 44.93430969 121.70212341 44.86795044 123.78024292 C44.21746309 144.16753018 43.71024228 164.55555329 43.32641602 184.94970703 C43.04782463 199.64263734 42.58405302 214.31523824 42 229 C25.17 229 8.34 229 -9 229 C-9 216.67952522 -9 216.67952522 -8.65039062 212.25390625 C-8.57308716 211.20275635 -8.49578369 210.15160645 -8.4161377 209.06860352 C-8.33037476 207.91158936 -8.24461182 206.7545752 -8.15625 205.5625 C-6.49871148 181.46875339 -5.69672944 157.32668297 -4.74487549 133.19711232 C-4.55349782 128.34655663 -4.36032268 123.49607518 -4.16616821 118.64562988 C-3.12897667 92.71913407 -2.09273241 66.7923856 -1.23046875 40.859375 C-1.19409019 39.76531216 -1.19409019 39.76531216 -1.1569767 38.64914703 C-0.73212668 25.76721584 -0.37294605 12.88359076 0 0 Z " fill="#36A48F" transform="translate(2006,4)"/>
<path d="M0 0 C2.05494871 -0.01175925 4.10987506 -0.02873724 6.16473389 -0.05126953 C22.18503634 -0.21890218 38.15692975 -0.04339793 50.83712769 11.27124023 C63.6397457 24.81569219 66.00532099 42.38662681 65.76681519 60.29858398 C65.26955859 76.26330045 60.18263217 93.03533054 48.38400269 104.30249023 C39.84366269 111.32879405 32.33416488 112.67837268 21.53634644 112.57275391 C20.35499619 112.57319199 19.17364594 112.57363007 17.95649719 112.57408142 C14.07148419 112.57199989 10.18690859 112.54869793 6.30197144 112.52514648 C3.60055788 112.51787579 0.89914475 112.51513157 -1.80227661 112.51228333 C-8.17341739 112.50298487 -14.54440246 112.4784012 -20.91547489 112.44823486 C-28.17305772 112.41462201 -35.43064826 112.3981876 -42.68828964 112.38314855 C-57.60828915 112.35184943 -72.52814323 112.29913215 -87.44802856 112.23217773 C-87.53023254 88.62193153 -87.30772739 65.02133387 -86.98446655 41.41351318 C-86.92258117 36.85959904 -86.86316332 32.30565265 -86.80349731 27.75170898 C-86.68733337 18.91183316 -86.56858033 10.07199481 -86.44802856 1.23217773 C-27.91262175 0.13425549 -27.91262175 0.13425549 0 0 Z M-34.44802856 46.23217773 C-35.05774149 60.90258411 -35.63443517 75.54747973 -35.44802856 90.23217773 C-30.98982223 90.32018646 -26.53184317 90.37290695 -22.07302856 90.41967773 C-20.82134888 90.44481445 -19.56966919 90.46995117 -18.28005981 90.49584961 C-9.65266229 90.56360404 -2.17696338 89.90505393 5.42697144 85.60717773 C11.51700554 78.80066903 12.20889678 71.72166134 11.93087769 62.77124023 C11.44128497 58.19834329 10.62725724 54.72109847 7.55197144 51.23217773 C1.75343994 46.56037511 -4.3085974 46.10392484 -11.49880981 46.13452148 C-12.48701973 46.13664391 -12.48701973 46.13664391 -13.49519348 46.1388092 C-15.58368618 46.14437273 -17.67206868 46.15691827 -19.76052856 46.16967773 C-21.18305305 46.17469746 -22.60557923 46.17925954 -24.02810669 46.18334961 C-27.50144933 46.19433016 -30.97472818 46.21156938 -34.44802856 46.23217773 Z " fill="#3AAA95" transform="translate(1516.4480285644531,2.767822265625)"/>
<path d="M0 0 C2.07201542 -0.00677821 4.14402279 -0.01697245 6.21600342 -0.03076172 C23.20394375 -0.13602632 39.80011899 -0.03854291 52.99386597 12.45068359 C61.41584816 22.04479733 66.20080115 36.47686514 66.50949097 49.17724609 C66.54816284 50.14662109 66.58683472 51.11599609 66.62667847 52.11474609 C67.04114438 71.27228149 63.03143095 89.32875229 49.57199097 103.48974609 C43.22009184 109.57496244 37.20584484 112.30677107 28.35255432 112.29750061 C27.33598251 112.29887527 26.31941071 112.30024994 25.27203369 112.30166626 C24.16792145 112.29807098 23.0638092 112.29447571 21.92623901 112.29077148 C20.16950111 112.29099052 20.16950111 112.29099052 18.37727356 112.29121399 C14.50856673 112.29051767 10.63990813 112.28273831 6.77120972 112.27490234 C4.0879254 112.27303717 1.40464375 112.27156454 -1.27864075 112.27061462 C-7.61794068 112.2675094 -13.95722332 112.25930691 -20.29651564 112.24926513 C-27.5153552 112.23807888 -34.7341956 112.23258722 -41.95304167 112.2275697 C-56.79887347 112.21712362 -71.64469011 112.19953984 -86.49050903 112.17724609 C-86.54893635 85.94394411 -86.48228213 59.72184644 -86.02694702 33.49224854 C-85.96385531 29.80851674 -85.90516781 26.12471415 -85.84597778 22.44091797 C-85.73150713 15.3529578 -85.61266309 8.26507842 -85.49050903 1.17724609 C-28.15652465 0.08130226 -28.15652465 0.08130226 0 0 Z M-33.49050903 46.17724609 C-34.47011252 60.85380549 -34.60758237 75.47103439 -34.49050903 90.17724609 C-30.17806715 90.23584518 -25.8657293 90.27104295 -21.55300903 90.30224609 C-20.34064575 90.31900391 -19.12828247 90.33576172 -17.87918091 90.35302734 C-7.82201306 90.40753774 0.36604624 90.41678997 7.84542847 83.14599609 C12.85190967 77.22283523 13.00015513 70.78347527 12.79074097 63.23583984 C12.27039008 57.57702391 10.81393289 54.51133442 6.75949097 50.36474609 C1.19234422 46.61762809 -4.12326276 45.92516673 -10.73660278 45.98193359 C-11.3925795 45.98476349 -12.04855621 45.98759338 -12.72441101 45.99050903 C-14.79247313 46.00158626 -16.86008076 46.02666547 -18.92800903 46.05224609 C-20.34141418 46.06229208 -21.7548262 46.07141508 -23.16824341 46.07958984 C-26.60914298 46.10148425 -30.04978155 46.13592558 -33.49050903 46.17724609 Z " fill="#3AAA95" transform="translate(775.4905090332031,2.82275390625)"/>
<path d="M0 0 C19.14 0 38.28 0 58 0 C58 9.20455349 57.93739978 18.24648529 57.4140625 27.41015625 C57.28739146 29.77016687 57.16102176 32.13019369 57.03491211 34.49023438 C56.93459183 36.33427856 56.93459183 36.33427856 56.83224487 38.21557617 C53.40879085 101.76246481 52.30171378 165.38220084 51 229 C31.86 229 12.72 229 -7 229 C-5.85694009 199.28044227 -5.85694009 199.28044227 -5.18405151 184.50034332 C-5.05671079 181.70085363 -4.93067727 178.90130738 -4.80493164 176.10174561 C-4.44820721 168.16345395 -4.08971003 160.22524327 -3.72949219 152.28710938 C-2.06948513 115.67319093 -0.85294143 79.11506098 -0.46777344 42.4644165 C-0.40740949 36.80274098 -0.34198965 31.14112163 -0.27747345 25.47949219 C-0.18122938 16.98636391 -0.09117861 8.49319092 0 0 Z " fill="#005B4A" transform="translate(1921,4)"/>
<path d="M0 0 C47.19 0 94.38 0 143 0 C142.34 16.83 141.68 33.66 141 51 C112.62 50.67 84.24 50.34 55 50 C55 54.62 55 59.24 55 64 C54.67 71.92 54.34 79.84 54 88 C89.64 87.505 89.64 87.505 126 87 C126 102 126 102 124 111 C82.42 111 40.84 111 -2 111 C-2 94.97474075 -1.97601677 78.99956931 -1.5625 62.98828125 C-1.52248915 61.34778554 -1.4827776 59.70728251 -1.44335938 58.06677246 C-1.2991522 52.14859334 -1.14927303 46.23055351 -1 40.3125 C-0.505 20.3578125 -0.505 20.3578125 0 0 Z " fill="#3DAD98" transform="translate(1610,4)"/>
<path d="M0 0 C0.74966034 -0.00261841 1.49932068 -0.00523682 2.271698 -0.00793457 C22.69755008 -0.01552853 42.5194987 3.08071686 62.25 8.3125 C63.00076616 15.62544901 63.43399376 22.88155535 63.56640625 30.23046875 C63.58718735 31.21372635 63.60796844 32.19698395 63.62937927 33.21003723 C63.69401141 36.30663041 63.75335195 39.40329772 63.8125 42.5 C63.85576764 44.61784577 63.89938434 46.73568443 63.94335938 48.85351562 C64.04960226 54.00643726 64.15110435 59.15943234 64.25 64.3125 C63.20521484 63.9112793 62.16042969 63.51005859 61.08398438 63.09667969 C53.71661642 60.28692588 46.40379209 57.50265336 38.75 55.5625 C37.95940186 55.36060059 37.16880371 55.15870117 36.35424805 54.95068359 C16.25576022 50.00813533 -4.27870711 49.31271915 -23 59.4375 C-32.62293038 65.45503913 -39.60311094 73.25126204 -44.75 83.3125 C-45.17796875 84.11816406 -45.6059375 84.92382812 -46.046875 85.75390625 C-49.64387998 93.02562927 -51.67768819 100.65688178 -53.734375 108.46875 C-54.34189396 110.76797559 -54.99796825 113.05640474 -55.75 115.3125 C-73.9 115.3125 -92.05 115.3125 -110.75 115.3125 C-110.75 107.00792466 -110.54242736 100.2640434 -108.75 92.375 C-108.52997314 91.39281494 -108.30994629 90.41062988 -108.08325195 89.39868164 C-100.8651183 58.84950355 -84.67968864 30.43015662 -57.56640625 13.53515625 C-39.8747646 2.99345818 -20.28504083 0.06763251 0 0 Z " fill="#41B39D" transform="translate(2312.75,-0.3125)"/>
<path d="M0 0 C1.78204079 0.00333092 1.78204079 0.00333092 3.6000824 0.00672913 C4.58053528 0.00651009 4.58053528 0.00651009 5.58079529 0.00628662 C7.75058766 0.00698569 9.92029517 0.01477774 12.09007263 0.02259827 C13.59079949 0.02446247 15.09152696 0.02588636 16.59225464 0.02688599 C20.54934865 0.03071099 24.50640616 0.04054112 28.46348572 0.05158997 C32.49851488 0.06180446 36.53354991 0.06638369 40.56858826 0.07142639 C48.49113108 0.08216341 56.41364419 0.09923962 64.33616638 0.12025452 C64.5667424 0.98880066 64.79731842 1.8573468 65.03488159 2.75221252 C67.25188515 11.10163661 69.47120828 19.45044035 71.6928854 27.79862213 C72.83388358 32.08634286 73.97410621 36.37426609 75.11228943 40.66273499 C76.43310265 45.63882783 77.7567817 50.61415242 79.08226013 55.58900452 C79.30015575 56.40748871 79.51805138 57.2259729 79.7425499 58.06925964 C82.10308914 66.92654096 84.50001534 75.77126893 87.00462341 84.58900452 C87.21679158 85.33672371 87.42895975 86.0844429 87.64755726 86.85482025 C88.64747167 90.37259078 89.65478732 93.88801369 90.6734314 97.40040588 C91.02498795 98.6273114 91.37654449 99.85421692 91.73875427 101.11830139 C92.04857742 102.18657166 92.35840057 103.25484192 92.6776123 104.35548401 C93.33616638 107.12025452 93.33616638 107.12025452 93.33616638 111.12025452 C76.50616638 111.12025452 59.67616638 111.12025452 42.33616638 111.12025452 C38.95999918 100.99175292 38.95999918 100.99175292 37.98582458 97.12294006 C37.76582291 96.25561752 37.54582123 95.38829498 37.31915283 94.49468994 C37.09402512 93.59124344 36.8688974 92.68779694 36.63694763 91.75697327 C36.39703598 90.80256851 36.15712433 89.84816376 35.90994263 88.86483765 C35.40823856 86.86440085 34.90832744 84.8635136 34.41014099 82.86219788 C33.64612668 79.7975672 32.87329907 76.73524733 32.09983826 73.67298889 C31.6116759 71.72195009 31.12402741 69.77078262 30.63694763 67.81947327 C30.29014702 66.44912178 30.29014702 66.44912178 29.93634033 65.05108643 C29.62052254 63.77374382 29.62052254 63.77374382 29.29832458 62.47059631 C29.11195938 61.72496933 28.92559418 60.97934235 28.73358154 60.21112061 C28.33616638 58.12025452 28.33616638 58.12025452 28.33616638 54.12025452 C27.67616638 54.12025452 27.01616638 54.12025452 26.33616638 54.12025452 C26.22836349 54.66403244 26.12056061 55.20781036 26.00949097 55.76806641 C24.82317894 61.45084874 23.1801504 66.80345987 21.18382263 72.24916077 C20.88302292 73.0830986 20.58222321 73.91703644 20.27230835 74.77624512 C19.31957177 77.41364406 18.35921647 80.04819265 17.39866638 82.68275452 C16.75819724 84.45275771 16.11821919 86.22293868 15.47874451 87.99330139 C12.48287647 96.27451259 12.48287647 96.27451259 11.12623596 99.95695496 C10.58410134 101.44138067 10.05434684 102.93036893 9.53511047 104.42295837 C7.55276438 110.01195552 7.55276438 110.01195552 5.33616638 111.12025452 C3.70199043 111.21053801 2.06413801 111.2378111 0.42747498 111.23377991 C-0.59343231 111.23370438 -1.6143396 111.23362885 -2.66618347 111.23355103 C-4.32404373 111.2258091 -4.32404373 111.2258091 -6.01539612 111.21791077 C-7.14456451 111.21649582 -8.27373291 111.21508087 -9.43711853 111.21362305 C-13.0543835 111.20801195 -16.67158726 111.19545754 -20.28883362 111.18275452 C-22.73674939 111.17774095 -25.18466613 111.17317779 -27.63258362 111.16908264 C-33.64302128 111.15803892 -39.65342308 111.14128995 -45.66383362 111.12025452 C-45.06688736 106.52541924 -43.83021437 102.69591757 -42.03102112 98.43275452 C-41.76261414 97.79038849 -41.49420715 97.14802246 -41.21766663 96.4861908 C-40.63545651 95.09358417 -40.05058292 93.70208868 -39.46333313 92.31159973 C-37.85820707 88.50696245 -36.27737284 84.69224569 -34.69508362 80.87806702 C-34.3637442 80.08030853 -34.03240479 79.28255005 -33.69102478 78.46061707 C-30.04997259 69.67461654 -26.52866629 60.84224078 -23.03883362 51.99525452 C-22.7287738 51.20994354 -22.41871399 50.42463257 -22.09925842 49.61552429 C-17.00055889 36.68416278 -12.06535138 23.69433584 -7.25514221 10.65296936 C-7.01829712 10.01340805 -6.78145203 9.37384674 -6.53742981 8.71490479 C-5.9029037 7.00021974 -5.27176797 5.28428115 -4.6408844 3.56825256 C-3.27573635 0.14787789 -3.27573635 0.14787789 0 0 Z " fill="#36A490" transform="translate(932.6638336181641,3.8797454833984375)"/>
<path d="M0 0 C0.1419036 11.95143636 -0.11513502 23.87573493 -0.50509644 35.82052612 C-0.84123833 46.22692507 -1.07904678 56.6325682 -1.25390625 67.04296875 C-1.28501747 68.87956558 -1.28501747 68.87956558 -1.3167572 70.75326538 C-1.41960861 76.90216447 -1.51653506 83.0511047 -1.60717773 89.20019531 C-1.64426215 91.49674651 -1.68144853 93.79329607 -1.71875 96.08984375 C-1.73906029 97.64749702 -1.73906029 97.64749702 -1.75978088 99.23661804 C-1.77653366 100.2283754 -1.79328644 101.22013275 -1.81054688 102.24194336 C-1.82933899 103.51708046 -1.82933899 103.51708046 -1.84851074 104.81797791 C-2.07405448 109.55550948 -2.57059825 114.27658074 -3 119 C-21.81 119 -40.62 119 -60 119 C-59.73445313 114.87628906 -59.46890625 110.75257813 -59.1953125 106.50390625 C-58.83556922 100.856957 -58.47958378 95.20977511 -58.125 89.5625 C-58.07905575 88.83183445 -58.0331115 88.1011689 -57.98577499 87.34836197 C-56.56606334 64.73392437 -55.37999931 42.12769574 -54.59619141 19.48071289 C-54.56177444 18.52051239 -54.52735748 17.56031189 -54.49189758 16.5710144 C-54.42919559 14.80213229 -54.37029206 13.03310937 -54.31608582 11.26394653 C-54.19076479 7.7019346 -53.94967085 4.43354481 -53 1 C-45.61271416 0.85745091 -38.22542548 0.71504988 -30.83813477 0.57275391 C-28.32283462 0.52428579 -25.80753514 0.47578323 -23.29223633 0.42724609 C-19.68571136 0.3576577 -16.07918405 0.28819143 -12.47265625 0.21875 C-10.77424339 0.18593933 -10.77424339 0.18593933 -9.04151917 0.15246582 C-8.00051559 0.13244507 -6.95951202 0.11242432 -5.88696289 0.09179688 C-4.96540909 0.07403198 -4.04385529 0.05626709 -3.09437561 0.03796387 C-1 0 -1 0 0 0 Z " fill="#005B4A" transform="translate(1165,114)"/>
<path d="M0 0 C1.01037827 0.00222061 2.02075653 0.00444122 3.06175232 0.00672913 C4.77341331 0.00684242 4.77341331 0.00684242 6.51965332 0.00695801 C7.76129745 0.01211929 9.00294159 0.01728058 10.2822113 0.02259827 C12.17785072 0.02472069 12.17785072 0.02472069 14.11178589 0.02688599 C17.47705394 0.0315487 20.84225495 0.04053972 24.20750427 0.05158997 C27.63930175 0.06180606 31.07110614 0.06638403 34.50291443 0.07142639 C41.2405633 0.08248071 47.9781803 0.09923742 54.71580505 0.12025452 C54.07723268 15.12154621 53.40437338 30.12117883 52.71580505 45.12025452 C52.65781738 46.39040405 52.59982971 47.66055359 52.54008484 48.9691925 C52.17298325 56.99164198 51.79553507 65.01349769 51.40614319 73.03489685 C51.27951978 75.6695448 51.15578902 78.30433341 51.0349884 80.93925476 C50.86356139 84.66407812 50.68156254 88.38824669 50.49705505 92.11244202 C50.44809586 93.22418289 50.39913666 94.33592377 50.34869385 95.48135376 C50.29517258 96.51831894 50.24165131 97.55528412 50.18650818 98.62367249 C50.14368713 99.52052765 50.10086609 100.41738281 50.05674744 101.34141541 C49.71580505 104.12025452 49.71580505 104.12025452 47.71580505 111.12025452 C29.56580505 111.12025452 11.41580505 111.12025452 -7.28419495 111.12025452 C-7.28419495 92.72936623 -7.28419495 92.72936623 -6.93287659 84.69081116 C-6.8954686 83.77324539 -6.85806061 82.85567963 -6.81951904 81.91030884 C-6.69787837 78.95018905 -6.57138349 75.99030369 -6.4443512 73.03041077 C-6.35690915 70.94817755 -6.26962667 68.86593763 -6.18249512 66.78369141 C-6.0006583 62.45803474 -5.81627297 58.13249603 -5.63014221 53.80702209 C-5.39141039 48.25211757 -5.16019576 42.69692774 -4.93093204 37.1416254 C-4.75325322 32.86001288 -4.57118342 28.5785957 -4.38780022 24.29722404 C-4.30059938 22.24666513 -4.21489876 20.19604186 -4.13070869 18.14535713 C-4.01332261 15.29961455 -3.88992719 12.45419591 -3.76490784 9.60877991 C-3.73110016 8.75854248 -3.69729248 7.90830505 -3.66246033 7.03230286 C-3.35021733 0.1763767 -3.35021733 0.1763767 0 0 Z " fill="#39A893" transform="translate(1354.284194946289,3.8797454833984375)"/>
<path d="M0 0 C19.14 0 38.28 0 58 0 C58 9.59561274 57.89963818 19.04517633 57.37890625 28.60546875 C57.31468979 29.84960037 57.25047333 31.09373199 57.18431091 32.37556458 C56.98067492 36.31307613 56.77202122 40.25029758 56.5625 44.1875 C56.29010225 49.34751026 56.02058856 54.50765995 55.75390625 59.66796875 C55.68805328 60.93397919 55.62220032 62.19998962 55.55435181 63.50436401 C55.0382842 73.66481452 54.65648329 83.82730798 54.36390686 93.99662781 C53.89169554 109.10830446 53.89169554 109.10830446 52 111 C50.34261557 111.09346915 48.68125356 111.11744977 47.02124023 111.11352539 C45.96021591 111.11344986 44.89919159 111.11337433 43.80601501 111.11329651 C42.07479149 111.10555458 42.07479149 111.10555458 40.30859375 111.09765625 C38.5461306 111.09553383 38.5461306 111.09553383 36.74806213 111.09336853 C32.97784936 111.08774992 29.20769496 111.07519426 25.4375 111.0625 C22.88867273 111.0574874 20.33984453 111.05292408 17.79101562 111.04882812 C11.52732367 111.03777444 5.26366601 111.02101821 -1 111 C-1.09603637 88.19727265 -0.82959141 65.4021844 -0.53643799 42.60174561 C-0.46390574 36.92515555 -0.39403156 31.24853215 -0.32368469 25.57191467 C-0.21776792 17.04791667 -0.10858556 8.52396629 0 0 Z " fill="#39A894" transform="translate(1921,4)"/>
<path d="M0 0 C19.14 0 38.28 0 58 0 C57.35985418 20.04570917 56.63119083 40.08314308 55.75268555 60.11962891 C55.62373742 63.06836909 55.49899127 66.01724427 55.37768555 68.96630859 C55.22714659 72.62571959 55.06965226 76.28477173 54.90736198 79.94367981 C54.81987474 81.9516429 54.73897153 83.95988956 54.65834045 85.96813965 C54.5733152 87.83339294 54.5733152 87.83339294 54.48657227 89.73632812 C54.44073502 90.80500122 54.39489777 91.87367432 54.34767151 92.97473145 C53.82626862 99.0114259 52.85689604 105.00172774 52 111 C34.51 111 17.02 111 -1 111 C-1.1153447 73.97435045 -0.64950275 37.02165681 0 0 Z " fill="#3AA894" transform="translate(1775,4)"/>
<path d="M0 0 C18.48 0 36.96 0 56 0 C54.79227919 24.55550438 54.79227919 24.55550438 54.27148438 35.05859375 C53.91676485 42.21265735 53.56258234 49.3667446 53.21166992 56.52099609 C52.9285811 62.29178365 52.64302384 68.06244435 52.35578728 73.83302689 C52.24687542 76.02967656 52.13883847 78.2263698 52.03170967 80.42310715 C51.88099092 83.51054576 51.72710286 86.59781187 51.57250977 89.68505859 C51.52935135 90.58417969 51.48619293 91.48330078 51.44172668 92.40966797 C50.57740635 109.42259365 50.57740635 109.42259365 49 111 C47.34261557 111.09346915 45.68125356 111.11744977 44.02124023 111.11352539 C42.96021591 111.11344986 41.89919159 111.11337433 40.80601501 111.11329651 C39.07479149 111.10555458 39.07479149 111.10555458 37.30859375 111.09765625 C35.5461306 111.09553383 35.5461306 111.09553383 33.74806213 111.09336853 C29.97784936 111.08774992 26.20769496 111.07519426 22.4375 111.0625 C19.88867273 111.0574874 17.33984453 111.05292408 14.79101562 111.04882812 C8.52732367 111.03777444 2.26366601 111.02101821 -4 111 C-4.29452061 91.54598894 -3.50493035 72.12673661 -2.77319336 52.69067383 C-2.59527837 47.96379132 -2.42443179 43.23668315 -2.25558567 38.50946903 C-2.12360735 34.83501566 -1.98805947 31.16070063 -1.85142326 27.48641777 C-1.78696583 25.74223185 -1.72357845 23.99800603 -1.66131783 22.25374031 C-1.57413069 19.82664285 -1.48214733 17.39977221 -1.38891602 14.97290039 C-1.36445908 14.26586975 -1.34000214 13.55883911 -1.31480408 12.8303833 C-1.14019182 8.44958443 -0.62566649 4.37966544 0 0 Z " fill="#39A893" transform="translate(1234,4)"/>
<path d="M0 0 C0.33 0 0.66 0 1 0 C1.1229272 14.08934822 0.95157841 28.13881784 0.42602539 42.21875 C-0.01797338 54.51836233 -0.26153675 66.81989191 -0.5 79.125 C-0.8373533 96.42671744 -1.3122514 113.7080351 -2 131 C-18.83 131 -35.66 131 -53 131 C-53 118.65673372 -53 118.65673372 -52.61743164 113.46948242 C-52.53520859 112.30089188 -52.45298553 111.13230133 -52.36827087 109.92829895 C-52.27896805 108.68738998 -52.18966522 107.44648102 -52.09765625 106.16796875 C-51.27514773 94.23913305 -50.65977169 82.31076513 -50.18359375 70.36328125 C-50.15226978 69.58229946 -50.12094582 68.80131767 -50.08867264 67.99666977 C-49.83363259 61.61275167 -49.58778341 55.22848677 -49.34277344 48.84417725 C-49.15680557 44.00580213 -48.96749466 39.16758128 -48.77354622 34.32951927 C-48.68547029 32.09831896 -48.60232306 29.86697095 -48.51939392 27.63557434 C-48.46557311 26.28088396 -48.41151452 24.92620299 -48.35717773 23.5715332 C-48.31213608 22.39484573 -48.26709442 21.21815826 -48.22068787 20.0058136 C-48 17 -48 17 -47 13 C-31.49 13 -15.98 13 0 13 C0 8.71 0 4.42 0 0 Z " fill="#005C4A" transform="translate(2050,102)"/>
<path d="M0 0 C16.83 0 33.66 0 51 0 C50.80664062 3.61839844 50.61328125 7.23679687 50.4140625 10.96484375 C50.14952561 15.95564975 49.88706261 20.94656351 49.625 25.9375 C49.52279144 27.88091278 49.52279144 27.88091278 49.41851807 29.86358643 C48.33151062 50.62437136 47.39825517 71.38780992 46.64697266 92.16381836 C46.61013367 93.14097305 46.57329468 94.11812775 46.53533936 95.12489319 C46.46713379 96.93558162 46.40231302 98.74640219 46.34161377 100.55735779 C46.31122009 101.35295609 46.28082642 102.14855438 46.24951172 102.96826172 C46.22525116 103.65491913 46.2009906 104.34157654 46.17599487 105.04904175 C46 107 46 107 45 111 C29.49 111 13.98 111 -2 111 C-2.07271208 89.11366472 -2.08529202 67.25445499 -1.5625 45.375 C-1.54285187 44.52948578 -1.52320374 43.68397156 -1.50296021 42.81283569 C-1.16440056 28.53327771 -0.57097693 14.27442337 0 0 Z " fill="#3AA894" transform="translate(2137,4)"/>
<path d="M0 0 C0 5.28 0 10.56 0 16 C-24.75 16 -49.5 16 -75 16 C-75 11.05 -75 6.1 -75 1 C-66.40246014 0.86897394 -57.8049129 0.73846464 -49.20735168 0.60884857 C-45.21456417 0.54863335 -41.22178026 0.48819747 -37.22900391 0.42724609 C-33.37108128 0.36836162 -29.51315008 0.31007144 -25.6552124 0.25218201 C-24.18812748 0.23006571 -22.72104569 0.20774034 -21.25396729 0.18519592 C-19.18885085 0.15349833 -17.12372422 0.12256472 -15.05859375 0.09179688 C-13.88611084 0.07403198 -12.71362793 0.05626709 -11.50561523 0.03796387 C-7.67061415 -0.00356707 -3.83522596 0 0 0 Z " fill="#157865" transform="translate(2382,99)"/>
<path d="M0 0 C0.66 0.33 1.32 0.66 2 1 C-3.66133346 7.72297605 -9.79749661 13.93599157 -16.01609802 20.13635254 C-17.12779915 21.24849037 -18.23928023 22.36084818 -19.35056168 23.47340536 C-22.38812893 26.51319805 -25.42878748 29.54988166 -28.4699806 32.58604622 C-31.75527676 35.86700993 -35.03766805 39.15087757 -38.32041931 42.43438721 C-44.00285194 48.1173433 -49.68710757 53.79847065 -55.37261772 59.47834778 C-63.5928335 67.69042453 -71.81027521 75.90527258 -80.02705003 84.12079209 C-93.35942017 97.4509755 -106.69402034 110.77892581 -120.0300293 124.10546875 C-132.98204955 137.04830512 -145.93301547 149.99219498 -158.88256836 162.9375 C-159.68124411 163.73591303 -160.47991986 164.53432605 -161.30279791 165.35693341 C-165.30965178 169.36248222 -169.31648497 173.3680517 -173.32330787 177.37363148 C-206.54566614 210.58562889 -239.77164633 243.79400103 -273 277 C-273.99 276.67 -274.98 276.34 -276 276 C-184.92 184.92 -93.84 93.84 0 0 Z " fill="#2B9F91" transform="translate(1562,2188)"/>
</svg>
